<?xml version="1.0" standalone="no"?>
<!DOCTYPE svg PUBLIC "-//W3C//DTD SVG 1.1//EN" "http://www.w3.org/Graphics/SVG/1.1/DTD/svg11.dtd" >
<svg xmlns="http://www.w3.org/2000/svg" xmlns:xlink="http://www.w3.org/1999/xlink" version="1.1">
<metadata>
Created by FontForge 20170731 at Thu Jan 24 23:34:52 2013
 By Aleksey,,,
Copyright (c) 2010 by Svetoslav Simov. All rights reserved.
</metadata>
<defs>
<font id="UVFNexaLight" horiz-adv-x="592" >
  <font-face 
    font-family="UVF Nexa Light"
    font-weight="400"
    font-stretch="normal"
    units-per-em="1000"
    panose-1="2 0 0 0 0 0 0 0 0 0"
    ascent="750"
    descent="-250"
    x-height="494"
    cap-height="700"
    bbox="-108 -322 1030 1199.76"
    underline-thickness="50"
    underline-position="-150"
    unicode-range="U+0020-FB02"
  />
<missing-glyph horiz-adv-x="238" 
 />
    <glyph glyph-name=".notdef" horiz-adv-x="238" 
 />
    <glyph glyph-name=".null" horiz-adv-x="0" 
 />
    <glyph glyph-name="nonmarkingreturn" horiz-adv-x="322" 
 />
    <glyph glyph-name="space" unicode=" " horiz-adv-x="275" 
 />
    <glyph glyph-name="space" unicode="&#xa0;" horiz-adv-x="275" 
 />
    <glyph glyph-name="exclam" unicode="!" horiz-adv-x="195" 
d="M111 700v-559h-51v559h51zM48 35q0 19 12.5 29t27 10t27 -10t12.5 -29q0 -20 -12.5 -29.5t-27 -9.5t-27 9.5t-12.5 29.5z" />
    <glyph glyph-name="quotedbl" unicode="&#x22;" horiz-adv-x="319" 
d="M99 704v-256h-45v256h45zM238 704v-256h-44v256h44z" />
    <glyph glyph-name="numbersign" unicode="#" horiz-adv-x="615" 
d="M287 700l-41 -168h201l42 168h46l-42 -168h91v-38h-100l-72 -283h95v-40h-104l-42 -171h-46l42 171h-201l-42 -171h-46l42 171h-81v40h89l73 283h-85v38h94l41 168h46zM237 494l-73 -283h202l72 283h-201z" />
    <glyph glyph-name="dollar" unicode="$" horiz-adv-x="633" 
d="M329 805v-100q34 -2 68 -9.5t65 -22t57 -36.5t43 -53l-47 -26q-14 27 -38 45t-52.5 29.5t-59.5 17t-59 5.5q-31 0 -68.5 -7t-69.5 -23t-53.5 -42t-20.5 -65q1 -33 18 -54.5t45.5 -36t67.5 -24t83 -17.5q51 -10 100 -21.5t88 -32.5t63 -55.5t24 -91.5q0 -50 -24 -84.5
t-61 -57t-82 -33.5t-88 -13v-97h-44v97q-38 1 -77.5 9.5t-75 25t-64.5 42t-47 60.5l48 24q16 -31 43 -52t60 -33.5t68 -18t67 -5.5t71 6.5t72.5 22t56.5 42t23 66.5q0 39 -19.5 64.5t-52 41.5t-74 26t-84.5 18q-48 9 -94 20t-82 30t-59 50t-24 80t21 83.5t57.5 57.5
t79.5 34.5t86 13.5v100h45z" />
    <glyph glyph-name="percent" unicode="%" horiz-adv-x="722" 
d="M593 703l-445 -703h-56l446 702zM173 705q51 0 85 -22t51 -54.5t17 -71t-17 -71t-51 -54.5t-85 -22t-84.5 22t-50.5 54.5t-17 71t17 71t50.5 54.5t84.5 22zM514 289q51 0 85 -22t51 -54.5t17 -71t-17 -71t-51 -54.5t-85 -22t-84.5 22t-50.5 54.5t-17 71t17 71t50.5 54.5
t84.5 22zM514 248q-36 0 -59.5 -15.5t-35 -39.5t-11.5 -51t12 -51t35.5 -39.5t59.5 -15.5q35 0 59 15.5t35.5 39.5t11.5 51t-12 51t-36 39.5t-59 15.5zM173 662q-36 0 -59.5 -15.5t-35.5 -38.5t-12 -50t12 -50t36 -38.5t60 -15.5q35 0 58.5 15.5t35 38.5t11 50t-12 50
t-35 38.5t-58.5 15.5z" />
    <glyph glyph-name="ampersand" unicode="&#x26;" horiz-adv-x="720" 
d="M515 531q0 41 -15 66.5t-39.5 39.5t-57 18.5t-67.5 4.5q-50 0 -87.5 -11t-62 -30t-36 -44.5t-11.5 -55.5q0 -40 19.5 -67t49 -43t64 -23t66.5 -7h297v-43h-64v-153q0 -28 3.5 -54t13.5 -45.5t27 -30.5t43 -11v-42q-43 -6 -74.5 19t-42.5 70q-19 -31 -43 -50.5t-51 -30
t-55.5 -14t-56.5 -3.5q-128 0 -193.5 52t-65.5 143q0 33 12 60.5t32 49t45.5 37t51.5 24.5q-55 17 -92 59.5t-37 101.5q0 40 16.5 74.5t48 59t78 38.5t106.5 14q42 0 82.5 -7t72 -25.5t51 -52.5t19.5 -88h-47zM527 336h-192q-52 0 -91 -13.5t-65 -34.5t-39 -48t-13 -54
q0 -68 50.5 -108t156.5 -40q30 0 64 6t62.5 22.5t47.5 44.5t19 72v153z" />
    <glyph glyph-name="quotesingle" unicode="'" horiz-adv-x="209" 
d="M117 704v-256h-44v256h44z" />
    <glyph glyph-name="parenleft" unicode="(" horiz-adv-x="385" 
d="M334 728q-63 -44 -106 -107.5t-65 -137t-23 -153t20 -154.5t64.5 -141t109.5 -114l-26 -39q-73 47 -122 118t-73.5 153.5t-24.5 170.5t24.5 170.5t73.5 153.5t122 118z" />
    <glyph glyph-name="parenright" unicode=")" horiz-adv-x="349" 
d="M44 766q73 -47 122 -118t73.5 -153.5t24.5 -170.5t-24.5 -170.5t-73.5 -153.5t-122 -118l-26 39q66 48 109.5 114t64.5 141t20 154.5t-23 153t-65 137t-106 107.5z" />
    <glyph glyph-name="asterisk" unicode="*" horiz-adv-x="294" 
d="M188 493l-51 73l-53 -73l-33 23l57 71l-79 23l11 36l79 -26l-2 81h41l-2 -81l85 25l11 -36l-86 -22l55 -70l-33 -24v0z" />
    <glyph glyph-name="plus" unicode="+" horiz-adv-x="503" 
d="M49 366h175v172h47v-172h175v-48h-175v-177h-47v177h-175v48v0z" />
    <glyph glyph-name="comma" unicode="," horiz-adv-x="198" 
d="M45 30q0 19 12.5 29t27 10t27 -10t12.5 -29q0 -8 -3 -17l-40 -102h-43l31 83q-10 4 -17 13t-7 23z" />
    <glyph glyph-name="hyphen" unicode="-" horiz-adv-x="478" 
d="M58 341h350v-52h-350v52z" />
    <glyph glyph-name="period" unicode="." horiz-adv-x="191" 
d="M36 30q0 19 12.5 29t27 10t27 -10t12.5 -29q0 -20 -12.5 -29.5t-27 -9.5t-27 9.5t-12.5 29.5z" />
    <glyph glyph-name="slash" unicode="/" horiz-adv-x="436" 
d="M-12 -82l373 841h54l-374 -841h-53z" />
    <glyph glyph-name="zero" unicode="0" horiz-adv-x="635" 
d="M88 267q0 -75 32 -125t79.5 -75t103.5 -25t103.5 25t79.5 75t32 125v167q0 75 -32 124.5t-79.5 74.5t-103.5 25t-103.5 -25t-79.5 -74.5t-32 -124.5v-167zM35 434q0 92 39.5 153t99.5 91.5t129 30.5t129 -30.5t99.5 -92t39.5 -152.5v-167q0 -91 -39.5 -152.5t-99.5 -92
t-129 -30.5t-129 30.5t-99.5 91.5t-39.5 153v167z" />
    <glyph glyph-name="one" unicode="1" horiz-adv-x="328" 
d="M4 47h118v605h-118v48h172v-653h118v-47h-290v47z" />
    <glyph glyph-name="two" unicode="2" horiz-adv-x="661" 
d="M46 514q0 56 24 93.5t62.5 60t86.5 32t95 9.5q48 0 96.5 -10.5t86.5 -34.5t62.5 -63t24.5 -96q0 -54 -24.5 -92t-63 -62t-86.5 -35.5t-94 -11.5q-38 0 -77.5 -6t-71.5 -22t-52 -44t-20 -73v-107h482v-52h-535v158q0 58 24.5 96t63.5 60t87.5 30.5t96.5 8.5q34 0 72.5 7
t71.5 24.5t54.5 47t21.5 73.5q0 46 -21 76.5t-53 48.5t-71 25t-75 7q-35 0 -73 -7t-69.5 -23.5t-52 -45.5t-20.5 -72h-53z" />
    <glyph glyph-name="three" unicode="3" horiz-adv-x="640" 
d="M43 529q0 54 24.5 89t62.5 55.5t84 28t90 7.5q62 0 110 -14.5t81 -39t50 -58.5t17 -73q0 -30 -11.5 -57t-31.5 -48.5t-47 -36.5t-58 -21q31 -6 60.5 -21.5t51.5 -38t35.5 -51.5t13.5 -61q0 -41 -17.5 -77t-51 -63t-84 -42.5t-116.5 -15.5q-45 0 -93.5 8t-88.5 28.5
t-66 57t-26 93.5h52q0 -47 22.5 -74.5t56 -41.5t72.5 -17.5t72 -3.5q55 0 96 11.5t68 31.5t40 46.5t13 56.5q0 27 -14 54t-41 48.5t-68 34.5t-95 13h-116v45h113q52 0 91 13t65.5 33t40 45.5t13.5 50.5q0 27 -12.5 52.5t-39 45t-65.5 31t-91 11.5q-32 0 -69 -4.5
t-68.5 -18.5t-52.5 -40.5t-21 -71.5h-51z" />
    <glyph glyph-name="four" unicode="4" horiz-adv-x="639" 
d="M507 700v-488h88v-54h-88v-158h-54v158h-429l-11 65l405 477h89zM453 660l-382 -448h382v448z" />
    <glyph glyph-name="five" unicode="5" horiz-adv-x="637" 
d="M54 380v320h487v-48h-437v-224h225q71 0 119 -18.5t77.5 -48.5t42 -68.5t12.5 -79.5q0 -43 -16.5 -82.5t-50 -69.5t-84.5 -48t-121 -18q-48 0 -96 9t-87 31.5t-63.5 60.5t-24.5 97h54q0 -46 20.5 -74t52.5 -43.5t70.5 -21t73.5 -5.5q56 0 97 12.5t68 34t40 51.5t13 65
q0 31 -9 61.5t-31.5 54t-60.5 38t-96 14.5h-275z" />
    <glyph glyph-name="six" unicode="6" horiz-adv-x="660" 
d="M102 325q21 30 46.5 49t54 30.5t59.5 15.5t64 4q49 0 98 -12t88 -38t63 -67t24 -99q0 -60 -24.5 -101t-63.5 -66.5t-88 -37t-98 -11.5q-50 0 -99.5 12t-88.5 38t-63.5 67.5t-24.5 100.5v306q0 49 23 85.5t60.5 60.5t85 36t97.5 12q52 0 99.5 -11t83.5 -33t58.5 -55.5
t25.5 -77.5h-54q-2 31 -19.5 55.5t-46 40.5t-66.5 24.5t-81 8.5q-40 0 -78 -9t-68 -27.5t-48.5 -46t-18.5 -63.5v-191zM325 43q37 0 76.5 8t71.5 26.5t52.5 50.5t20.5 80q0 43 -20.5 74.5t-52 52t-71 30.5t-76.5 10q-38 0 -77 -10t-71.5 -30t-53.5 -51.5t-21 -74.5
q0 -47 20.5 -79t52.5 -51.5t71.5 -27.5t77.5 -8z" />
    <glyph glyph-name="seven" unicode="7" horiz-adv-x="591" 
d="M485 650h-454v50h510l7 -44l-380 -656h-61z" />
    <glyph glyph-name="eight" unicode="8" horiz-adv-x="680" 
d="M323 340q-31 0 -71.5 -7.5t-77 -25.5t-61.5 -48t-25 -75q0 -44 25 -72.5t61.5 -45t77 -23.5t71.5 -7t71.5 7t76.5 23.5t61.5 45t25.5 72.5t-25.5 74t-62 48t-77 26t-70.5 8zM323 -15q-48 0 -99.5 10t-93.5 33t-69 61t-27 95q0 36 13 66t35 52.5t50.5 37.5t59.5 21
q-30 9 -57 23.5t-46.5 34t-31 45.5t-11.5 59q0 55 26.5 91.5t67 59t89.5 32t94 9.5t94 -9t89.5 -31t67 -59t26.5 -93q0 -33 -12 -59t-33 -46.5t-48.5 -35t-58.5 -23.5q31 -6 60 -21.5t52 -38t37 -51.5t14 -64q0 -57 -27 -95t-69 -61t-93 -33t-99 -10zM323 669
q-32 0 -71 -6.5t-73 -23t-57 -45t-23 -71.5q0 -40 23 -66.5t57.5 -42t73 -22t70.5 -6.5q31 0 70 6.5t73 22t57.5 42t23.5 66.5q0 42 -23 70t-57 45t-73 24t-71 7z" />
    <glyph glyph-name="nine" unicode="9" horiz-adv-x="672" 
d="M538 377q-21 -30 -46.5 -49t-54.5 -30.5t-60 -15.5t-64 -4q-50 0 -98.5 12t-87.5 38t-63 67t-24 99q0 60 24 101t63 66.5t88 37t99 11.5t99.5 -12t88.5 -38t63.5 -67.5t24.5 -100.5v-306q0 -50 -23 -86.5t-60.5 -60.5t-85 -35.5t-97.5 -11.5q-53 0 -100 11t-83 33
t-58.5 55.5t-25.5 77.5h54q2 -32 19.5 -56t46 -40t66.5 -24.5t81 -8.5q40 0 78.5 9t68.5 27.5t48.5 46t18.5 63.5v191zM314 659q-38 0 -77 -8t-71 -26.5t-52.5 -50.5t-20.5 -80q0 -47 20.5 -78.5t52 -51.5t70.5 -28.5t77 -8.5q37 0 76.5 10t72 30t53.5 51.5t21 74.5
q0 47 -20.5 79t-52.5 51.5t-72 27.5t-77 8z" />
    <glyph glyph-name="colon" unicode=":" horiz-adv-x="210" 
d="M52 30q0 19 12.5 29t27 10t27 -10t12.5 -29q0 -20 -12.5 -29.5t-27 -9.5t-27 9.5t-12.5 29.5zM52 330q0 19 12.5 29t27 10t27 -10t12.5 -29q0 -20 -12.5 -29.5t-27 -9.5t-27 9.5t-12.5 29.5z" />
    <glyph glyph-name="semicolon" unicode=";" horiz-adv-x="210" 
d="M52 330q0 19 12.5 29t27 10t27 -10t12.5 -29q0 -20 -12.5 -29.5t-27 -9.5t-27 9.5t-12.5 29.5zM52 30q0 19 12.5 29t27 10t27 -10t12.5 -29q0 -8 -3 -17l-40 -102h-43l31 83q-10 4 -17 13t-7 23z" />
    <glyph glyph-name="less" unicode="&#x3c;" horiz-adv-x="355" 
d="M244 523l30 -34l-192 -171l196 -172l-34 -34l-211 186v39z" />
    <glyph glyph-name="equal" unicode="=" horiz-adv-x="492" 
d="M53 256h367v-49h-367v49zM53 432h367v-50h-367v50z" />
    <glyph glyph-name="greater" unicode="&#x3e;" horiz-adv-x="359" 
d="M289 337v-39l-211 -186l-34 34l196 172l-192 171l30 34z" />
    <glyph glyph-name="question" unicode="?" horiz-adv-x="647" 
d="M33 508q0 57 24 96t62.5 63t86.5 34.5t95 10.5q48 0 96.5 -9.5t86.5 -33t62.5 -63t24.5 -99.5q0 -51 -13.5 -84t-35 -54t-47 -32t-49.5 -18q-39 -12 -62.5 -23.5t-36.5 -30t-17 -47.5t-4 -77h-51q0 51 7 87.5t25 62.5t48.5 43t77.5 31q21 6 40.5 15t34.5 25t23.5 40
t8.5 62q0 49 -20.5 79.5t-53 48t-71 23.5t-74.5 6q-35 0 -72.5 -7t-69.5 -24.5t-53 -47.5t-21 -77h-52zM246 36q0 19 12 29t27 10t27 -10t12 -29q0 -20 -12 -29.5t-27 -9.5t-27 9.5t-12 29.5z" />
    <glyph glyph-name="at" unicode="@" horiz-adv-x="926" 
d="M444 695q88 0 159.5 -26.5t122.5 -76t78.5 -121t27.5 -161.5q0 -63 -11.5 -107.5t-28.5 -77.5t-42.5 -47t-50 -10t-42 25t-17.5 59v-1q-35 -48 -88.5 -75t-113.5 -27q-52 0 -98 19.5t-80 53.5t-53.5 80t-19.5 98q0 57 19.5 103.5t53.5 79.5t80 50.5t98 17.5
q60 0 115.5 -27.5t86.5 -82.5v85h44v-373q0 -20 7 -29.5t18 -9.5t22.5 8t20.5 23q21 38 27 80.5t6 84.5q0 83 -24 146.5t-68.5 106t-107.5 64.5t-141 22t-141 -25.5t-107 -71.5t-68 -108.5t-24 -136.5t24 -135.5t68 -105.5t107 -68.5t141 -24.5q45 0 82.5 12t70.5 29l26 -38
q-42 -26 -86.5 -37.5t-92.5 -11.5q-91 0 -163.5 28.5t-123 79.5t-77.5 120.5t-27 151.5q0 80 27 151t77.5 123.5t123 83t163.5 30.5zM438 504q-42 0 -79 -14t-64 -40.5t-43 -64.5t-16 -85q0 -42 16 -79t43 -64.5t64 -43.5t79 -16q68 0 113 30t67.5 75.5t22.5 98t-22.5 98
t-67.5 75.5t-113 30z" />
    <glyph glyph-name="A" unicode="A" horiz-adv-x="694" 
d="M621 0l-77 172h-418l-76 -172h-58l314 700h59l314 -700h-58zM523 222l-188 426l-188 -426h376z" />
    <glyph glyph-name="B" unicode="B" horiz-adv-x="671" 
d="M119 52h233q33 0 68.5 5t65 19.5t48.5 40t19 67.5q0 41 -17.5 69t-45 45.5t-62 25.5t-69.5 8h-240v-280zM119 383h240q31 0 62 5.5t55.5 20t39.5 38.5t15 62t-15.5 65.5t-41 45t-57.5 26t-65 8.5h-233v-271zM352 700q44 0 85.5 -11t73.5 -34.5t51.5 -59.5t19.5 -86
q0 -54 -30.5 -93.5t-83.5 -56.5q66 -18 102 -66.5t36 -109.5q0 -54 -23 -89.5t-59 -56t-81.5 -29t-90.5 -8.5h-287v700h287z" />
    <glyph glyph-name="C" unicode="C" horiz-adv-x="673" 
d="M642 97q-53 -53 -119.5 -79t-135.5 -26q-89 0 -156 28.5t-112 77.5t-68.5 113t-23.5 135q-1 70 21.5 135.5t67.5 115.5t113 80.5t158 30.5q69 0 135.5 -26t119.5 -79l-37 -32q-45 45 -101.5 67t-116.5 22q-77 0 -134.5 -25t-96.5 -68t-58 -99.5t-19 -119.5
q1 -62 20.5 -117.5t58.5 -97.5t96 -66.5t133 -24.5q60 0 117 22t102 67z" />
    <glyph glyph-name="D" unicode="D" horiz-adv-x="709" 
d="M296 700q89 0 155 -29.5t110 -77.5t66 -109.5t24 -125.5q1 -67 -19.5 -131t-64.5 -114.5t-111.5 -81.5t-159.5 -31h-237v700h237zM113 649v-597h183q78 0 135 26.5t94.5 70t55 98.5t16.5 111q-1 55 -20 107t-56 93t-93 66t-132 25h-183z" />
    <glyph glyph-name="E" unicode="E" horiz-adv-x="614" 
d="M117 377h410v-49h-410v-276h442v-52h-495v700h483v-51h-430v-272z" />
    <glyph glyph-name="F" unicode="F" horiz-adv-x="590" 
d="M118 367h403v-51h-403v-317h-54v701h471v-54h-417v-279z" />
    <glyph glyph-name="G" unicode="G" horiz-adv-x="736" 
d="M615 571q-46 45 -105.5 67.5t-119.5 22.5q-77 0 -135 -26t-97 -69.5t-58 -99.5t-19 -117q0 -62 19.5 -117.5t58.5 -97.5t96.5 -67t134.5 -25q57 0 112.5 19.5t100.5 61.5v196h-244v47h295v-262q-55 -55 -120.5 -84t-143.5 -29q-89 0 -156.5 29t-113 78t-68.5 113.5
t-23 136.5q0 82 26 149t74 114t114.5 73t146.5 26q69 0 135.5 -26t120.5 -79z" />
    <glyph glyph-name="H" unicode="H" horiz-adv-x="709" 
d="M565 0v318h-446v-318h-54v700h54v-333h446v333h54v-700h-54z" />
    <glyph glyph-name="I" unicode="I" horiz-adv-x="208" 
d="M65 0v700h53v-700h-53z" />
    <glyph glyph-name="J" unicode="J" horiz-adv-x="679" 
d="M536 653h-268v47h321v-436q0 -65 -21 -116t-58 -86t-87.5 -54t-110.5 -19t-110.5 20t-87 56.5t-57.5 87t-21 111.5h50q0 -50 17 -91.5t47.5 -71t72 -46t89.5 -16.5t89 15t71 43.5t47 70.5t17 96v389z" />
    <glyph glyph-name="K" unicode="K" horiz-adv-x="563" 
d="M556 0h-68l-369 345v-344h-54v699h54v-319l340 319h65v-5l-352 -330l384 -361v-4z" />
    <glyph glyph-name="L" unicode="L" horiz-adv-x="550" 
d="M118 700v-649h394v-51h-448v700h54z" />
    <glyph glyph-name="M" unicode="M" horiz-adv-x="818" 
d="M675 622l-268 -410h-18l-270 410v-622h-54v700h64l268 -408l265 408h66v-700h-53v622z" />
    <glyph glyph-name="N" unicode="N" horiz-adv-x="704" 
d="M88 700l471 -579v579h53v-700h-21l-472 578v-578h-54v700h23z" />
    <glyph glyph-name="O" unicode="O" horiz-adv-x="804" 
d="M387 711q88 0 154.5 -30t111 -80t66 -115.5t21.5 -136.5q0 -69 -22.5 -134t-66.5 -115.5t-110 -81t-154 -30.5t-154 30.5t-110.5 81.5t-66.5 116.5t-22 134.5q0 70 22 135.5t66 115t110 79.5t155 30zM387 661q-75 0 -131.5 -25.5t-94 -68t-56 -99t-18.5 -118.5
q0 -59 19 -115.5t56.5 -100t93.5 -70t131 -26.5t131.5 26.5t94 70t56.5 100t19 115.5q0 61 -19 117t-56.5 99t-94 69t-131.5 26z" />
    <glyph glyph-name="P" unicode="P" horiz-adv-x="654" 
d="M118 650v-359h253q58 0 97 26.5t58.5 66.5t19.5 86.5t-19.5 86.5t-58.5 66.5t-97 26.5h-253zM118 242v-242h-54v700h307q76 0 126.5 -34t76 -85t25.5 -110t-25.5 -110t-76 -85t-126.5 -34h-253z" />
    <glyph glyph-name="Q" unicode="Q" horiz-adv-x="781" 
d="M387 709q88 0 154.5 -29t111 -78.5t66 -114.5t21.5 -137q0 -64 -20.5 -126.5t-61.5 -112.5l89 -86l-34 -35l-88 84q-43 -38 -103 -59.5t-135 -21.5q-89 0 -156 29.5t-111 79.5t-66 116t-21 138q1 70 23.5 133.5t66.5 112.5t110 78t154 29zM387 658q-67 0 -122.5 -23
t-95 -63.5t-61.5 -96t-22 -119.5q-1 -62 17.5 -118.5t56 -99.5t94.5 -68.5t133 -25.5q75 0 131 25t93.5 67.5t56.5 98t19 115.5q0 62 -19 118t-56.5 98t-93.5 67t-131 25z" />
    <glyph glyph-name="R" unicode="R" horiz-adv-x="649" 
d="M623 0h-71l-242 265h-191v-265h-54v700h308q57 0 100 -18.5t71.5 -49.5t43.5 -70t15 -80q0 -43 -13.5 -81.5t-42 -68t-71.5 -47t-100 -17.5zM119 316h248q91 0 133.5 46.5t43.5 120.5q0 31 -10 61t-31.5 53.5t-54 38t-75.5 14.5h-254v-334z" />
    <glyph glyph-name="S" unicode="S" horiz-adv-x="633" 
d="M518 565q-19 31 -43.5 49.5t-52 28.5t-57 13.5t-59.5 3.5q-31 0 -68 -6.5t-69 -22.5t-53.5 -43.5t-21.5 -69.5q0 -33 17 -55t46 -36t68 -23.5t83 -17.5q51 -10 100 -21.5t88 -32.5t63 -55.5t24 -91.5q0 -59 -27 -97t-68 -60t-89.5 -30.5t-92.5 -8.5q-41 0 -83.5 8.5
t-81 27t-70.5 47.5t-52 69l48 24q16 -32 43.5 -56t60 -39.5t68 -23.5t67.5 -8t71 5.5t72.5 22t56.5 45t23 75.5q0 39 -19.5 64.5t-52 41.5t-74 26t-84.5 18q-48 9 -94.5 20.5t-83 30.5t-59 50t-22.5 79q-1 55 24 92.5t64.5 60t87 32t90.5 9.5q37 0 72 -4t67.5 -17t61.5 -36
t55 -62z" />
    <glyph glyph-name="T" unicode="T" horiz-adv-x="608" 
d="M263 651h-253v48h560v-48h-253v-651h-54v651z" />
    <glyph glyph-name="U" unicode="U" horiz-adv-x="683" 
d="M600 700v-435q0 -91 -39.5 -152.5t-99.5 -92t-129 -30.5t-129 30.5t-99.5 91.5t-39.5 153v435h53v-435q0 -75 32 -125t79.5 -75t103.5 -25t103.5 25t79.5 75t32 125v435h53z" />
    <glyph glyph-name="V" unicode="V" horiz-adv-x="674" 
d="M645 700l-288 -702h-58l-288 702h58l259 -640l259 640h58z" />
    <glyph glyph-name="W" unicode="W" horiz-adv-x="1045" 
d="M496 700h30l214 -640l217 640h58l-247 -702h-58l-111 328l-88 277l-88 -275l-112 -330h-58l-245 702h57l216 -640z" />
    <glyph glyph-name="X" unicode="X" horiz-adv-x="646" 
d="M533 699h58v-1l-238 -339l257 -358v-1h-64l-226 320l-226 -320h-64v1l257 358l-238 339v1h59l212 -299z" />
    <glyph glyph-name="Y" unicode="Y" horiz-adv-x="639" 
d="M277 280l-273 419v1h63l237 -368l238 368h63v-1l-274 -419v-280h-54v280z" />
    <glyph glyph-name="Z" unicode="Z" horiz-adv-x="578" 
d="M37 700h507v-19l-451 -628h451v-53h-531v23l445 627h-421v50z" />
    <glyph glyph-name="bracketleft" unicode="[" horiz-adv-x="277" 
d="M78 762h181v-48h-129v-786h129v-48h-181v882z" />
    <glyph glyph-name="backslash" unicode="\" horiz-adv-x="436" 
d="M370 -82l-374 841h53l373 -841h-52z" />
    <glyph glyph-name="bracketright" unicode="]" horiz-adv-x="304" 
d="M198 -120h-181v48h129v786h-129v48h181v-882z" />
    <glyph glyph-name="asciicircum" unicode="^" horiz-adv-x="516" 
d="M480 381h-52l-181 277l-181 -277h-52l-2 3l210 316h50l210 -316z" />
    <glyph glyph-name="underscore" unicode="_" horiz-adv-x="514" 
d="M13 -26h468v-46h-468v46z" />
    <glyph glyph-name="grave" unicode="`" horiz-adv-x="234" 
d="M121 577l-92 123v1h65l75 -120v-4h-48z" />
    <glyph glyph-name="a" unicode="a" horiz-adv-x="608" 
d="M530 494v-494h-49v105q-36 -58 -89 -85.5t-113 -27.5q-52 0 -97.5 18.5t-79.5 52.5t-54 80.5t-20 103.5t20 103.5t54 79.5t79.5 51.5t97.5 18.5q60 0 115.5 -28t86.5 -86v108h49zM279 453q-42 0 -79 -15t-64 -42t-43 -65t-16 -84q0 -47 16 -85t43 -65t64 -42t79 -15
q69 0 114.5 30.5t68.5 76.5t23 99.5t-23 99.5t-68.5 76.5t-114.5 30.5z" />
    <glyph glyph-name="b" unicode="b" horiz-adv-x="621" 
d="M306 455q-43 0 -80 -15t-64 -42.5t-42.5 -65.5t-15.5 -84t15 -84.5t42 -66t64 -42.5t81 -15q42 0 78.5 13t64 39t43.5 65t16 90q0 52 -16 91t-43.5 65t-64 39t-78.5 13zM103 700v-314q30 60 85.5 88t119.5 28q52 0 97 -17t78.5 -49.5t53 -80t19.5 -108.5
q0 -62 -19 -109.5t-52.5 -79.5t-78.5 -49t-97 -17q-63 0 -119 30t-87 87v-109h-48v700h48z" />
    <glyph glyph-name="c" unicode="c" horiz-adv-x="505" 
d="M460 69q-38 -38 -84.5 -56t-95.5 -18q-52 0 -98.5 17.5t-81 50t-54.5 79t-20 105.5q0 58 19.5 105t54 79.5t80.5 50t100 17.5q49 0 95.5 -18.5t84.5 -55.5l-32 -31q-30 30 -69 44.5t-79 14.5q-42 0 -79.5 -13.5t-65.5 -39.5t-44.5 -64.5t-16.5 -88.5t16.5 -88.5
t44.5 -64.5t65.5 -39.5t79.5 -13.5q40 0 78.5 15.5t68.5 45.5z" />
    <glyph glyph-name="d" unicode="d" horiz-adv-x="615" 
d="M278 455q-42 0 -78.5 -13t-64 -39t-43.5 -65t-16 -91q0 -51 16 -90t43.5 -65t64 -39t78.5 -13q43 0 80 15t64 42.5t42.5 66t15.5 84.5t-15.5 84t-42.5 65.5t-64 42.5t-80 15zM529 700v-700h-48v109q-31 -57 -87 -87t-119 -30q-52 0 -97 17t-78.5 49t-52.5 79.5t-19 109.5
q0 61 19.5 108.5t53 80t78.5 49.5t97 17q64 0 119.5 -28t85.5 -88v314h48z" />
    <glyph glyph-name="e" unicode="e" horiz-adv-x="594" 
d="M278 -7q-52 0 -98 17.5t-80 50.5t-53.5 80t-19.5 106q0 55 19.5 102t53.5 81t80 53t98 19t99.5 -16.5t82 -50.5t52 -86.5t10.5 -124.5h-445q4 -44 21.5 -78t44.5 -57t62 -35.5t73 -12.5q24 0 50 5t49.5 14.5t44 23.5t34.5 32l35 -28q-18 -24 -42.5 -41.5t-52.5 -29.5
t-58 -18t-60 -6zM478 267q-1 92 -55.5 141t-144.5 49q-38 0 -73 -12.5t-62 -37t-44.5 -60t-21.5 -80.5h401z" />
    <glyph glyph-name="f" unicode="f" horiz-adv-x="377" 
d="M106 0v447h-101v43h101v44q0 37 8 68t25.5 53.5t45.5 35t69 12.5q28 0 52.5 -9t45.5 -25l-24 -36q-20 12 -36.5 18.5t-39.5 6.5q-47 0 -72.5 -29.5t-25.5 -94.5v-44h163v-43h-163v-447h-48z" />
    <glyph glyph-name="g" unicode="g" horiz-adv-x="543" 
d="M452 514l32 -28l-48 -56q26 -29 43.5 -68.5t17.5 -99.5q0 -32 -9.5 -64t-26.5 -59.5t-41.5 -50t-55.5 -36.5q66 -23 100.5 -68t34.5 -109q0 -50 -18.5 -87t-50 -61.5t-74.5 -36.5t-92 -12t-92 13t-74.5 38.5t-49.5 62t-18 83.5h49q0 -38 15 -66t40.5 -46.5t59 -27.5
t70.5 -9t71 8.5t59.5 26.5t41 46.5t15.5 67.5q0 40 -16.5 68t-42.5 46t-60 26t-68 8q-54 0 -97 19t-73 51t-46 75.5t-16 93.5q0 58 18 102.5t49.5 75.5t74 47t90.5 16q38 0 74.5 -12.5t65.5 -32.5zM264 454q-38 0 -71.5 -12t-58 -36t-39 -60t-14.5 -84q0 -38 12.5 -72.5
t36.5 -60.5t58 -41.5t76 -15.5q38 0 72 15.5t59 41.5t39.5 60.5t14.5 72.5q0 47 -14.5 83t-39.5 60t-59 36.5t-72 12.5z" />
    <glyph glyph-name="h" unicode="h" horiz-adv-x="560" 
d="M102 700v-298q30 53 78 75.5t100 23.5q52 0 90.5 -16t64.5 -44.5t39 -69t13 -88.5v-283h-48v283q0 38 -9 69.5t-28.5 54t-49.5 35t-72 12.5q-39 0 -71.5 -14t-55.5 -39t-36 -58t-13 -72v-271h-49v700h47z" />
    <glyph glyph-name="i" unicode="i" horiz-adv-x="189" 
d="M104 496v-496h-49v496h49zM41 655q0 19 12.5 29t27 10t27 -10t12.5 -29q0 -20 -12.5 -29.5t-27 -9.5t-27 9.5t-12.5 29.5z" />
    <glyph glyph-name="j" unicode="j" horiz-adv-x="191" 
d="M113 495v-543q0 -36 -5 -66.5t-19.5 -53.5t-40.5 -36t-67 -13q-26 0 -46 6t-43 18l14 42q35 -20 75 -20q28 0 45 10t25.5 26.5t11 39t2.5 47.5v543h48zM49 660q0 19 12.5 29t27 10t27 -10t12.5 -29q0 -20 -12.5 -29.5t-27 -9.5t-27 9.5t-12.5 29.5z" />
    <glyph glyph-name="k" unicode="k" horiz-adv-x="438" 
d="M103 700v-422l233 216h65v-2l-250 -231l279 -258v-3h-62l-265 242v-242h-48v700h48z" />
    <glyph glyph-name="l" unicode="l" horiz-adv-x="186" 
d="M104 700v-700h-49v700h49z" />
    <glyph glyph-name="m" unicode="m" horiz-adv-x="919" 
d="M787 0v296q0 36 -11.5 65.5t-32.5 51t-50 33.5t-64 12t-64.5 -12.5t-50.5 -34.5t-32.5 -52t-11.5 -66v-293h-49v293q0 36 -11.5 66t-32.5 51.5t-50.5 34t-64.5 12.5t-64 -12.5t-50 -34t-32.5 -51.5t-11.5 -66v-293h-49v494h46l1 -82q26 49 69.5 70.5t91.5 21.5
q28 0 56 -6.5t52.5 -21.5t44 -38t30.5 -56q11 30 30.5 53t44 38.5t52 23t56.5 7.5q45 0 83 -15t65.5 -42.5t43 -66t15.5 -84.5v-296h-49z" />
    <glyph glyph-name="n" unicode="n" horiz-adv-x="575" 
d="M103 494v-88q29 51 76.5 73.5t99.5 23.5q49 0 90.5 -15t70.5 -43t45.5 -68.5t16.5 -91.5v-285h-49v284q0 85 -47.5 128.5t-128.5 42.5q-38 0 -70 -14t-55 -38t-35.5 -57t-12.5 -71v-275h-49v494h48z" />
    <glyph glyph-name="o" unicode="o" 
d="M283 -7q-52 0 -98 17.5t-80 50t-53.5 79.5t-19.5 106t19.5 106.5t53.5 81t80 51.5t98 18t98 -18t80 -51.5t53.5 -81t19.5 -106.5t-19.5 -106t-53.5 -79.5t-80 -50t-98 -17.5zM283 41q42 0 79 14t64.5 40.5t43.5 64.5t16 86t-16 87t-43.5 66.5t-64.5 42.5t-79 15t-79 -15
t-64.5 -42.5t-43.5 -66.5t-16 -87t16 -86t43.5 -64.5t64.5 -40.5t79 -14z" />
    <glyph glyph-name="p" unicode="p" horiz-adv-x="622" 
d="M306 38q42 0 79 13t64 39.5t43 65.5t16 91t-16 91t-43 64.5t-64 38.5t-79 13q-43 0 -79.5 -15.5t-63.5 -43t-42 -66t-15 -83.5t15.5 -83.5t42.5 -66t63.5 -43t78.5 -15.5zM55 -206v700h48v-117q29 57 85.5 90.5t128.5 33.5q50 -2 94 -19.5t76.5 -50t51 -78.5t18.5 -106
q0 -62 -19.5 -110t-53.5 -80.5t-80 -49t-98 -16.5q-63 0 -117.5 30.5t-86.5 92.5v-320h-47z" />
    <glyph glyph-name="q" unicode="q" horiz-adv-x="615" 
d="M280 38q42 0 78.5 15.5t63.5 43t42.5 66t15.5 83.5t-15 83.5t-42 66t-63.5 43t-79.5 15.5q-42 0 -79 -13t-64 -38.5t-43 -64.5t-16 -91t16 -91t43 -65.5t64 -39.5t79 -13zM484 -206v320q-32 -62 -86.5 -92.5t-117.5 -30.5q-52 0 -98 16.5t-80 49t-53.5 80.5t-19.5 110
q0 60 18.5 106t51 78.5t76.5 50t94 19.5q72 0 128.5 -33.5t85.5 -90.5v117h48v-700h-47z" />
    <glyph glyph-name="r" unicode="r" horiz-adv-x="392" 
d="M101 494l2 -88q12 25 30 42.5t40 29t46 16.5t48 5q56 2 106 -29l-22 -40q-20 12 -41 17.5t-43 5.5q-35 0 -64.5 -13.5t-51.5 -36t-34.5 -52t-12.5 -63.5v-288h-49v494h46z" />
    <glyph glyph-name="s" unicode="s" horiz-adv-x="499" 
d="M394 404q-38 33 -75 42.5t-79 9.5q-29 0 -56 -5t-48 -16.5t-33.5 -28.5t-11.5 -41q1 -25 15.5 -40.5t37 -25t48.5 -15t49 -9.5q33 -6 69.5 -13t67 -22t50 -41t17.5 -69q-1 -41 -20.5 -67.5t-49.5 -42.5t-65 -22t-68 -6t-64.5 6t-60 18.5t-52 31t-39.5 43.5l36 32
q31 -44 81 -64t100 -20q22 0 48.5 3.5t49.5 14t39 29t17 47.5q1 27 -13 43.5t-36.5 27t-52 16.5t-59.5 11q-36 6 -70.5 13.5t-61.5 22t-43.5 37.5t-16.5 60q0 36 16.5 62.5t44 43.5t62.5 24.5t73 7.5q54 0 100.5 -15.5t83.5 -50.5z" />
    <glyph glyph-name="t" unicode="t" horiz-adv-x="394" 
d="M168 643v-149h168v-41h-168v-301q0 -25 3.5 -46t13 -36t27.5 -23.5t47 -8.5q18 0 37.5 5.5t38.5 14.5l17 -40q-23 -11 -46.5 -18t-46.5 -7q-39 0 -66 11t-43 32t-23 50.5t-7 65.5v301h-105v41h105v144z" />
    <glyph glyph-name="u" unicode="u" horiz-adv-x="575" 
d="M453 0v89q-29 -51 -76.5 -73.5t-99.5 -23.5q-50 0 -91 15t-70 43t-45.5 68.5t-16.5 91.5v285h49v-284q0 -85 47.5 -128.5t128.5 -42.5q38 0 70 14t55 38t35.5 57t12.5 71v275h49v-495h-48z" />
    <glyph glyph-name="v" unicode="v" horiz-adv-x="502" 
d="M8 494h54l180 -437l180 437h54l-207 -494h-54z" />
    <glyph glyph-name="w" unicode="w" horiz-adv-x="765" 
d="M565 0h-54l-80 216l-60 192l-62 -193l-80 -215h-54l-176 494h54l149 -437l151 437h35l150 -437l148 437h54z" />
    <glyph glyph-name="x" unicode="x" horiz-adv-x="486" 
d="M229 292l147 202h59v-2l-177 -236l191 -254v-2h-58l-162 221l-162 -221h-58v2l191 254l-177 236v2h59z" />
    <glyph glyph-name="y" unicode="y" horiz-adv-x="517" 
d="M477 494l-301 -700h-52l91 212l-198 488h53l115 -292l58 -143l57 144l124 291h53z" />
    <glyph glyph-name="z" unicode="z" horiz-adv-x="459" 
d="M40 494h372v-19l-312 -429h312v-46h-388v17l315 433h-299v44z" />
    <glyph glyph-name="braceleft" unicode="{" horiz-adv-x="319" 
d="M263 -109q-47 -7 -76.5 -2t-46.5 21.5t-23 45.5t-6 71v147q0 21 -3 42t-11.5 38t-24 27.5t-40.5 10.5v39q25 0 40.5 10.5t24 27.5t11.5 38t3 42v135q0 42 7.5 71.5t25 47t46.5 22t73 -3.5v-34q-33 5 -54 2t-33 -15t-16.5 -34t-4.5 -56v-135q0 -20 -1.5 -41.5t-8.5 -40.5
t-21.5 -33.5t-40.5 -21.5q26 -6 40.5 -21t21.5 -34.5t8.5 -41t1.5 -41.5v-147q0 -34 5 -55.5t17 -33t33 -13.5t53 4v-38z" />
    <glyph glyph-name="bar" unicode="|" horiz-adv-x="252" 
d="M141 705v-823h-53v823h53v0z" />
    <glyph glyph-name="braceright" unicode="}" horiz-adv-x="298" 
d="M18 -71q32 -6 53 -4t33 13.5t17 33t5 55.5v147q0 20 1.5 41.5t8.5 41t21.5 34.5t40.5 21q-26 7 -40.5 21.5t-21.5 33.5t-8.5 40.5t-1.5 41.5v135q0 34 -4.5 56t-16.5 34t-33 15t-54 -2v34q44 8 73 3.5t46.5 -22t25 -47t7.5 -71.5v-135q0 -21 3 -42t11.5 -38t24 -27.5
t40.5 -10.5v-39q-25 0 -40.5 -10.5t-24 -27.5t-11.5 -38t-3 -42v-147q0 -42 -6 -71t-23 -45.5t-46.5 -21.5t-76.5 2v38z" />
    <glyph glyph-name="asciitilde" unicode="~" horiz-adv-x="555" 
d="M506 334q-26 -68 -76 -90.5t-117 11.5l-109 63q-26 13 -49.5 14t-43.5 -7t-35.5 -24.5t-24.5 -38.5l-37 18q14 33 36 56.5t49 35t59 9.5t67 -21l102 -58q21 -11 41.5 -16t38.5 -0.5t33 20t25 44.5l41 -16v0z" />
    <glyph glyph-name="exclamdown" unicode="&#xa1;" horiz-adv-x="195" 
d="M63 -201v559h51v-559h-51zM126 464q0 -20 -12.5 -29.5t-27 -9.5t-27 9.5t-12.5 29.5q0 19 12.5 29t27 10t27 -10t12.5 -29z" />
    <glyph glyph-name="cent" unicode="&#xa2;" horiz-adv-x="575" 
d="M338 -85h-48v71q-48 4 -90.5 22.5t-73.5 50t-49 76.5t-18 102q0 54 17.5 98.5t48.5 77t73 51.5t92 24v60h48v-60q43 -5 83 -23t73 -50l-34 -31q-31 30 -68.5 45t-77.5 15q-42 0 -80 -13t-66 -39.5t-44.5 -65t-16.5 -89.5q0 -52 16.5 -91t44.5 -64.5t66 -38t80 -12.5
q40 0 77.5 16t68.5 46l34 -35q-33 -32 -73 -50t-83 -22v-71z" />
    <glyph glyph-name="sterling" unicode="&#xa3;" horiz-adv-x="663" 
d="M59 351h80q-9 34 -18 72t-9 84q0 51 19 88.5t52 62t76.5 36.5t91.5 12q44 0 84.5 -8.5t72 -29.5t50.5 -56t19 -87h-46q0 41 -16.5 67.5t-42.5 41.5t-58 20.5t-63 5.5q-41 0 -76 -9.5t-60.5 -28.5t-39.5 -48t-14 -67q0 -41 9.5 -79.5t17.5 -76.5h259v-43h-250
q6 -33 7 -65.5t-6.5 -65t-26 -65t-52.5 -64.5h465v-48h-525v45q39 40 60.5 75t30.5 67t7.5 61.5t-7.5 59.5h-91v43z" />
    <glyph glyph-name="currency" unicode="&#xa4;" horiz-adv-x="562" 
d="M422 455q21 -28 31.5 -61.5t10.5 -68.5t-11 -68.5t-32 -60.5l60 -60l-35 -35l-61 60q-23 -17 -54 -27t-69 -10t-69 10t-55 27l-60 -60l-35 35l60 60q-22 27 -33 60.5t-11 68.5t11 68.5t32 61.5l-59 59l35 35l59 -60q24 18 55 28.5t70 10.5q38 0 69 -10.5t55 -28.5l60 60
l35 -35zM262 171q51 0 84.5 23t50.5 57.5t17 75t-17 75t-50.5 57.5t-84.5 23t-85 -23t-51 -57.5t-17 -75t17 -75t51 -57.5t85 -23z" />
    <glyph glyph-name="yen" unicode="&#xa5;" horiz-adv-x="627" 
d="M123 208h154v63h-154v41h133l-252 387v1h61l239 -368l240 368h61v-1l-254 -387h139v-41h-160v-63h160v-41h-160v-167h-53v167h-154v41z" />
    <glyph glyph-name="brokenbar" unicode="&#xa6;" horiz-adv-x="195" 
d="M53 342v364h54v-364h-54zM107 275v-363h-54v363h54z" />
    <glyph glyph-name="section" unicode="&#xa7;" horiz-adv-x="539" 
d="M414 619q-38 32 -75 41.5t-79 9.5q-29 0 -56 -5t-48 -16t-33.5 -28t-11.5 -40q1 -25 15.5 -41t36.5 -26t48 -15.5t49 -9.5q33 -5 70 -13.5t67.5 -23.5t50 -39.5t17.5 -62.5q-2 -51 -31 -76t-71 -35q21 -6 40 -16t33.5 -24t22 -34t6.5 -47q-1 -40 -20.5 -66t-49 -41.5
t-65 -21.5t-68.5 -6t-64.5 6t-60 18t-52 30.5t-39.5 42.5l36 31q31 -43 81 -62.5t100 -19.5q22 0 48.5 3.5t50 14t39 28t17.5 46.5q1 26 -13 42t-37 26t-52.5 15t-59.5 10q-36 6 -70.5 15t-61.5 24.5t-43.5 38.5t-17.5 56q-1 36 24 70t69 49q-40 14 -66 39.5t-27 73.5
q0 36 16.5 61.5t44 42t63 24t73.5 7.5q54 0 100.5 -15t83.5 -50zM418 353q-1 28 -24 48t-57.5 31.5t-75 13t-74 -8.5t-56 -31.5t-20.5 -56.5q0 -28 23.5 -48t58 -30t74.5 -11t74 9t56 30.5t21 53.5z" />
    <glyph glyph-name="dieresis" unicode="&#xa8;" horiz-adv-x="455" 
d="M64 678q0 19 12.5 29t27 10t27 -10t12.5 -29q0 -20 -12.5 -29.5t-27 -9.5t-27 9.5t-12.5 29.5zM278 678q0 19 12.5 29t27 10t27 -10t12.5 -29q0 -20 -12.5 -29.5t-27 -9.5t-27 9.5t-12.5 29.5z" />
    <glyph glyph-name="copyright" unicode="&#xa9;" horiz-adv-x="881" 
d="M425 713q87 0 154 -29t113 -79t70 -116t24 -141q0 -74 -24 -140.5t-70 -116.5t-113 -79t-154 -29t-154.5 29t-113 79t-69.5 116.5t-24 140.5q0 75 24 141t69.5 116t113 79t154.5 29zM574 212q-27 -28 -63 -42.5t-74 -14.5q-42 0 -77.5 15t-62 41.5t-41.5 62t-15 77.5
q0 41 15 76.5t41.5 62t62 41.5t77.5 15q38 0 74 -14.5t63 -42.5l-35 -36q-44 42 -102 42q-31 0 -57.5 -11t-46 -30.5t-30.5 -46t-11 -56.5q0 -31 11 -57.5t30.5 -46t46 -30.5t57.5 -11q59 0 102 43zM114 348q0 -67 20.5 -125t60.5 -101.5t98 -68.5t132 -25t132 25t97.5 68.5
t60 101.5t20.5 125t-20.5 125.5t-60 102t-97.5 68.5t-132 25t-132 -25t-98 -68.5t-60.5 -102t-20.5 -125.5z" />
    <glyph glyph-name="ordfeminine" unicode="&#xaa;" horiz-adv-x="467" 
d="M331 701h44v-324h-44v63q-23 -34 -56.5 -50.5t-70.5 -16.5q-34 0 -64 11.5t-52.5 33t-35.5 52.5t-13 70t13 70t35.5 52t52.5 32.5t64 11.5q37 0 71.5 -17t55.5 -50v62zM207 660q-50 0 -84 -33t-34 -87t34 -87.5t84 -33.5q39 0 65.5 18t39.5 44.5t13.5 58t-13 58t-40 44.5
t-65.5 18zM51 315h334v-48h-334v48z" />
    <glyph glyph-name="guillemotleft" unicode="&#xab;" horiz-adv-x="372" 
d="M168 536h52v-5l-135 -214l135 -214v-6h-52l-138 220zM124 317l138 219h52v-5l-135 -214l135 -214v-6h-52z" />
    <glyph glyph-name="logicalnot" unicode="&#xac;" horiz-adv-x="452" 
d="M385 175h-50v136h-297v51h347v-187z" />
    <glyph glyph-name="registered" unicode="&#xae;" horiz-adv-x="914" 
d="M442 713q87 0 154.5 -29t113 -79t69.5 -116t24 -141q0 -74 -24 -140.5t-69.5 -116.5t-113 -79t-154.5 -29t-154 29t-113 79t-70 116.5t-24 140.5q0 75 24 141t70 116t113 79t154 29zM132 348q0 -67 20.5 -125t60 -101.5t97.5 -68.5t132 -25t132 25t97.5 68.5t60.5 101.5
t21 125t-21 125.5t-60.5 102t-97.5 68.5t-132 25t-132 -25t-97.5 -68.5t-60 -102t-20.5 -125.5zM496 306l120 -136v-8h-52l-125 144h-83v-144h-47v383h170q41 0 68.5 -16.5t42 -41.5t16 -54.5t-10 -56t-36.5 -46t-63 -24.5zM356 348h120q41 0 61.5 23.5t21 52t-19.5 52
t-60 23.5h-123v-151z" />
    <glyph glyph-name="degree" unicode="&#xb0;" horiz-adv-x="354" 
d="M164 529q-35 0 -58.5 14.5t-35.5 36.5t-12 47t12 47t35.5 36.5t58.5 14.5t58.5 -14.5t35 -36.5t11.5 -47t-11.5 -47t-35 -36.5t-58.5 -14.5zM164 568q29 0 43.5 18.5t14.5 41t-14.5 41t-43.5 18.5q-30 0 -45.5 -18.5t-16 -41t14.5 -41t47 -18.5z" />
    <glyph glyph-name="plusminus" unicode="&#xb1;" horiz-adv-x="519" 
d="M73 390h163v164h46v-164h162v-45h-162v-166h-46v166h-163v45zM81 94h358v-47h-358v47z" />
    <glyph glyph-name="twosuperior" unicode="&#xb2;" horiz-adv-x="462" 
d="M97 683q0 32 12 52.5t31 32.5t43 16.5t49 4.5q23 0 47 -4.5t43 -16.5t31 -32.5t12 -52.5q0 -36 -14 -57.5t-34.5 -33t-43 -14.5t-40.5 -3q-11 0 -26.5 -2.5t-29.5 -10t-24 -20.5t-10 -35v-37h216v-42h-264v80q0 27 11.5 47.5t31 34t44 20.5t51.5 7q38 0 61.5 14.5
t23.5 51.5q0 35 -23 49.5t-64 14.5q-17 0 -33 -2t-28 -9t-19.5 -19.5t-7.5 -33.5h-46z" />
    <glyph glyph-name="threesuperior" unicode="&#xb3;" horiz-adv-x="405" 
d="M141 593v43h51q14 0 29 2.5t28 9t21 17.5t8 27q0 20 -21.5 38.5t-64.5 18.5q-12 0 -27 -2.5t-28.5 -10t-22.5 -20t-9 -32.5h-43q0 28 11 48t29 33t41.5 18.5t48.5 5.5t49 -6t42.5 -18t29.5 -30.5t11 -43.5q0 -31 -16 -50.5t-42 -26.5q32 -8 48.5 -32.5t16.5 -46.5
q0 -33 -12 -54t-31.5 -33.5t-44.5 -17.5t-51 -5t-50 5.5t-42.5 18t-30.5 33t-12 50.5h48q0 -22 9.5 -34.5t23.5 -18.5t29 -7.5t26 -1.5q13 0 28.5 2t29.5 9t23.5 20t9.5 34q0 8 -4.5 18t-15 19t-27.5 15t-41 6h-55z" />
    <glyph glyph-name="acute" unicode="&#xb4;" horiz-adv-x="224" 
d="M39 577v4l75 120h65v-1l-92 -123h-48z" />
    <glyph glyph-name="mu" unicode="&#xb5;" horiz-adv-x="633" 
d="M481 70q-18 -31 -47 -51.5t-63.5 -30.5t-71.5 -9t-70 12t-59 31.5t-38 50.5v-299h-51v717h49v-298q0 -55 25.5 -94t64.5 -59t83.5 -21t83.5 19.5t64.5 62t25.5 106.5v284h49v-491h-42l-3 70v0z" />
    <glyph glyph-name="mu" unicode="&#x3bc;" horiz-adv-x="633" 
d="M481 70q-18 -31 -47 -51.5t-63.5 -30.5t-71.5 -9t-70 12t-59 31.5t-38 50.5v-299h-51v717h49v-298q0 -55 25.5 -94t64.5 -59t83.5 -21t83.5 19.5t64.5 62t25.5 106.5v284h49v-491h-42l-3 70v0z" />
    <glyph glyph-name="paragraph" unicode="&#xb6;" horiz-adv-x="811" 
d="M337 -216h-49v411q-62 0 -108 21.5t-76 57t-45 81t-14.5 92.5t16.5 92.5t47 81t77 57t107 21.5h467v-44h-106v-871h-47v871h-269v-871z" />
    <glyph glyph-name="periodcentered" unicode="&#xb7;" horiz-adv-x="179" 
d="M36 339q0 19 12.5 29t27 10t27 -10t12.5 -29q0 -20 -12.5 -29.5t-27 -9.5t-27 9.5t-12.5 29.5z" />
    <glyph glyph-name="cedilla" unicode="&#xb8;" horiz-adv-x="296" 
d="M88 -66l20 88h39l-13 -58q31 1 51 -7.5t31 -23t13.5 -33.5t-1.5 -37q-10 -37 -40 -53.5t-63 -16.5q-31 0 -59.5 13t-43.5 40l28 27q15 -22 33.5 -30.5t41.5 -8.5q21 0 39.5 9t23.5 29q4 14 0.5 27t-15.5 21.5t-31.5 11.5t-47.5 -3z" />
    <glyph glyph-name="onesuperior" unicode="&#xb9;" horiz-adv-x="282" 
d="M53 469h53v270h-55v42h103v-312h51v-42h-152v42z" />
    <glyph glyph-name="ordmasculine" unicode="&#xba;" horiz-adv-x="407" 
d="M97 578q0 -37 14.5 -62t36 -37.5t46.5 -13t46.5 12t36 37.5t14.5 63v52q0 38 -14.5 64t-36 38.5t-46.5 13t-46.5 -12.5t-36 -39t-14.5 -64v-52zM50 630q0 53 21.5 88t53.5 52.5t70 17.5t70 -17.5t53.5 -53t21.5 -87.5v-52q0 -52 -21.5 -87.5t-53.5 -53t-70 -17.5t-70 18
t-53.5 52.5t-21.5 87.5v52z" />
    <glyph glyph-name="guillemotright" unicode="&#xbb;" horiz-adv-x="372" 
d="M315 317l-138 -220h-52v6l135 214l-135 214v5h52zM83 97h-52v6l135 214l-135 214v5h52l138 -219z" />
    <glyph glyph-name="onequarter" unicode="&#xbc;" horiz-adv-x="776" 
d="M645 356v-233h42v-44h-42v-78h-45v78h-192l-3 37l175 240h65zM600 123v189l-139 -189h139zM145 -7l373 714h54l-374 -714h-53zM67 391h53v267h-55v42h103v-309h51v-42h-152v42z" />
    <glyph glyph-name="onehalf" unicode="&#xbd;" horiz-adv-x="812" 
d="M145 -7l373 714h54l-374 -714h-53zM67 391h53v267h-55v42h103v-309h51v-42h-152v42zM470 255q0 32 12 52.5t31 32.5t43 16.5t49 4.5q23 0 47 -4.5t43 -16.5t31 -32.5t12 -52.5q0 -36 -14 -57.5t-34.5 -33t-43 -14.5t-40.5 -3q-11 0 -26.5 -2.5t-29.5 -10t-24 -20.5
t-10 -35v-37h216v-42h-264v80q0 27 11.5 47.5t31 34t44 20.5t51.5 7q38 0 61.5 14.5t23.5 51.5q0 35 -23 49.5t-64 14.5q-17 0 -33 -2t-28 -9t-19.5 -19.5t-7.5 -33.5h-46z" />
    <glyph glyph-name="threequarters" unicode="&#xbe;" horiz-adv-x="798" 
d="M685 356v-233h42v-44h-42v-78h-45v78h-192l-3 37l175 240h65zM640 123v189l-139 -189h139zM193 -7l385 714h53l-387 -714h-51zM136 520v42h50q14 0 29 2.5t27.5 9t20.5 17t8 26.5q0 20 -21.5 38t-63.5 18q-12 0 -26.5 -2.5t-27.5 -10t-22 -20t-9 -31.5h-42q0 28 11 47.5
t28.5 32t40.5 18t47 5.5q25 0 48.5 -5.5t41.5 -17.5t29 -30t11 -43q0 -30 -16 -49.5t-41 -26.5q32 -8 48 -31.5t16 -45.5q0 -32 -12 -53t-31 -33t-44 -17t-50 -5t-48.5 5t-42 17.5t-30 32.5t-11.5 50h47q0 -21 9.5 -33.5t23 -18.5t28 -7.5t25.5 -1.5q13 0 28.5 2t29 9
t23 19.5t9.5 33.5q0 8 -4.5 18t-15 18.5t-27 14.5t-40.5 6h-54z" />
    <glyph glyph-name="questiondown" unicode="&#xbf;" horiz-adv-x="647" 
d="M579 -12q0 -57 -24 -96t-62.5 -63t-86.5 -34.5t-95 -10.5q-48 0 -96.5 9t-86.5 31.5t-62.5 61.5t-24.5 99q0 45 13.5 78t35 55.5t47 36.5t49.5 21q39 12 62.5 23.5t36.5 30.5t17 48t4 77h50q0 -51 -7 -87.5t-25 -62.5t-48.5 -43.5t-76.5 -30.5q-21 -6 -40.5 -17
t-34.5 -28.5t-23.5 -42t-8.5 -58.5q0 -49 20.5 -79t53 -46.5t71 -22t74.5 -5.5q34 0 72 7t70 24.5t53 47.5t21 77h52zM366 460q0 -20 -12 -29.5t-27 -9.5t-27 9.5t-12 29.5q0 19 12 29t27 10t27 -10t12 -29z" />
    <glyph glyph-name="Agrave" unicode="&#xc0;" horiz-adv-x="694" 
d="M621 0l-77 172h-418l-76 -172h-58l314 700h59l314 -700h-58zM523 222l-188 426l-188 -426h376zM315 772l-92 123v1h65l75 -120v-4h-48z" />
    <glyph glyph-name="Aacute" unicode="&#xc1;" horiz-adv-x="694" 
d="M621 0l-77 172h-418l-76 -172h-58l314 700h59l314 -700h-58zM523 222l-188 426l-188 -426h376zM303 771v4l75 120h65v-1l-92 -123h-48z" />
    <glyph glyph-name="Acircumflex" unicode="&#xc2;" horiz-adv-x="694" 
d="M621 0l-77 172h-418l-76 -172h-58l314 700h59l314 -700h-58zM523 222l-188 426l-188 -426h376zM315 898h40l142 -132v-7h-53l-109 96l-109 -96h-53v7z" />
    <glyph glyph-name="Atilde" unicode="&#xc3;" horiz-adv-x="694" 
d="M621 0l-77 172h-418l-76 -172h-58l314 700h59l314 -700h-58zM523 222l-188 426l-188 -426h376zM210 797q3 22 14 37.5t26.5 23t34.5 7t37 -9.5l41 -22q18 -8 36.5 -4t24.5 30l34 -11q-2 -23 -13 -38.5t-27 -23t-35 -6.5t-37 10l-41 22q-18 8 -36.5 3.5t-24.5 -29.5z" />
    <glyph glyph-name="Adieresis" unicode="&#xc4;" horiz-adv-x="694" 
d="M621 0l-77 172h-418l-76 -172h-58l314 700h59l314 -700h-58zM523 222l-188 426l-188 -426h376zM190 811q0 19 12.5 29t27 10t27 -10t12.5 -29q0 -20 -12.5 -29.5t-27 -9.5t-27 9.5t-12.5 29.5zM404 811q0 19 12.5 29t27 10t27 -10t12.5 -29q0 -20 -12.5 -29.5t-27 -9.5
t-27 9.5t-12.5 29.5z" />
    <glyph glyph-name="Aring" unicode="&#xc5;" horiz-adv-x="694" 
d="M232 788q0 24 9 42t23.5 30t33.5 18t39 6t39 -6t34 -18t24.5 -30t9.5 -42q0 -38 -21 -63t-55 -33l311 -692h-58l-77 172h-418l-76 -172h-58l311 693q-33 8 -52 32.5t-19 62.5zM523 222l-188 426l-188 -426h376zM336 846q-30 0 -44.5 -18.5t-14.5 -41t14.5 -41t44.5 -18.5
q31 0 46.5 18.5t15.5 41t-15.5 41t-46.5 18.5z" />
    <glyph glyph-name="AE" unicode="&#xc6;" horiz-adv-x="957" 
d="M521 377h345v-49h-345v-277h379v-51h-429v248h-250l-147 -248h-62l426 700h448v-49h-365v-274zM471 659h-5l-216 -362h221v362z" />
    <glyph glyph-name="Ccedilla" unicode="&#xc7;" horiz-adv-x="673" 
d="M336 -91l21 84q-81 5 -142.5 35.5t-103 78.5t-63 109.5t-21.5 129.5q-1 70 21.5 135.5t67.5 115.5t113 80.5t158 30.5q69 0 135.5 -26t119.5 -79l-37 -32q-45 45 -101.5 67t-116.5 22q-77 0 -134.5 -25t-96.5 -68t-58 -99.5t-19 -119.5q1 -62 20.5 -117.5t58.5 -97.5
t96 -66.5t133 -24.5q60 0 117 22t102 67l36 -34q-51 -51 -115.5 -77t-131.5 -28l-12 -53q31 1 51 -7.5t31.5 -23t14 -33.5t-1.5 -37q-10 -37 -40.5 -54.5t-63.5 -17.5q-31 0 -60 13.5t-44 40.5l29 28q15 -22 33.5 -30.5t41.5 -8.5q21 0 39.5 9t23.5 29q4 14 0 27t-16 21.5
t-31.5 11.5t-47.5 -3z" />
    <glyph glyph-name="Egrave" unicode="&#xc8;" horiz-adv-x="614" 
d="M117 377h410v-49h-410v-276h442v-52h-495v700h483v-51h-430v-272zM317 781l-92 123v1h65l75 -120v-4h-48z" />
    <glyph glyph-name="Eacute" unicode="&#xc9;" horiz-adv-x="614" 
d="M117 377h410v-49h-410v-276h442v-52h-495v700h483v-51h-430v-272zM273 778v4l75 120h65v-1l-92 -123h-48z" />
    <glyph glyph-name="Ecircumflex" unicode="&#xca;" horiz-adv-x="614" 
d="M117 377h410v-49h-410v-276h442v-52h-495v700h483v-51h-430v-272zM295 912h40l142 -132v-7h-53l-109 96l-109 -96h-53v7z" />
    <glyph glyph-name="Edieresis" unicode="&#xcb;" horiz-adv-x="614" 
d="M117 377h410v-49h-410v-276h442v-52h-495v700h483v-51h-430v-272zM175 818q0 19 12.5 29t27 10t27 -10t12.5 -29q0 -20 -12.5 -29.5t-27 -9.5t-27 9.5t-12.5 29.5zM389 818q0 19 12.5 29t27 10t27 -10t12.5 -29q0 -20 -12.5 -29.5t-27 -9.5t-27 9.5t-12.5 29.5z" />
    <glyph glyph-name="Igrave" unicode="&#xcc;" horiz-adv-x="208" 
d="M65 0v700h53v-700h-53zM75 778l-92 123v1h65l75 -120v-4h-48z" />
    <glyph glyph-name="Iacute" unicode="&#xcd;" horiz-adv-x="208" 
d="M65 0v700h53v-700h-53zM63 777v4l75 120h65v-1l-92 -123h-48z" />
    <glyph glyph-name="Icircumflex" unicode="&#xce;" horiz-adv-x="208" 
d="M65 0v700h53v-700h-53zM70 898h36l127 -131v-7h-47l-98 95l-98 -95h-48v7z" />
    <glyph glyph-name="Idieresis" unicode="&#xcf;" horiz-adv-x="208" 
d="M-28 810q0 19 12.5 29t27 10t27 -10t12.5 -29q0 -20 -12.5 -29.5t-27 -9.5t-27 9.5t-12.5 29.5zM132 810q0 19 12.5 29t27 10t27 -10t12.5 -29q0 -20 -12.5 -29.5t-27 -9.5t-27 9.5t-12.5 29.5zM65 0v700h53v-700h-53z" />
    <glyph glyph-name="Eth" unicode="&#xd0;" horiz-adv-x="709" 
d="M-8 366h67v334h237q89 0 155 -29.5t110 -77.5t66 -109.5t24 -125.5q1 -67 -19.5 -131t-64.5 -114.5t-111.5 -81.5t-159.5 -31h-237v317h-67v49zM113 649v-283h163v-49h-163v-265h183q78 0 135 26.5t94.5 70t55 98.5t16.5 111q-1 55 -20 107t-56 93t-93 66t-132 25h-183z
" />
    <glyph glyph-name="Ntilde" unicode="&#xd1;" horiz-adv-x="704" 
d="M88 700l471 -579v579h53v-700h-21l-472 578v-578h-54v700h23zM231 793q3 22 14 37.5t26.5 23t34.5 7t37 -9.5l41 -22q18 -8 36.5 -4t24.5 30l34 -11q-2 -23 -13 -38.5t-27 -23t-35 -6.5t-37 10l-41 22q-18 8 -36.5 3.5t-24.5 -29.5z" />
    <glyph glyph-name="Ograve" unicode="&#xd2;" horiz-adv-x="804" 
d="M387 711q88 0 154.5 -30t111 -80t66 -115.5t21.5 -136.5q0 -69 -22.5 -134t-66.5 -115.5t-110 -81t-154 -30.5t-154 30.5t-110.5 81.5t-66.5 116.5t-22 134.5q0 70 22 135.5t66 115t110 79.5t155 30zM387 661q-75 0 -131.5 -25.5t-94 -68t-56 -99t-18.5 -118.5
q0 -59 19 -115.5t56.5 -100t93.5 -70t131 -26.5t131.5 26.5t94 70t56.5 100t19 115.5q0 61 -19 117t-56.5 99t-94 69t-131.5 26zM373 783l-92 123v1h65l75 -120v-4h-48z" />
    <glyph glyph-name="Oacute" unicode="&#xd3;" horiz-adv-x="804" 
d="M387 711q88 0 154.5 -30t111 -80t66 -115.5t21.5 -136.5q0 -69 -22.5 -134t-66.5 -115.5t-110 -81t-154 -30.5t-154 30.5t-110.5 81.5t-66.5 116.5t-22 134.5q0 70 22 135.5t66 115t110 79.5t155 30zM387 661q-75 0 -131.5 -25.5t-94 -68t-56 -99t-18.5 -118.5
q0 -59 19 -115.5t56.5 -100t93.5 -70t131 -26.5t131.5 26.5t94 70t56.5 100t19 115.5q0 61 -19 117t-56.5 99t-94 69t-131.5 26zM359 783v4l75 120h65v-1l-92 -123h-48z" />
    <glyph glyph-name="Ocircumflex" unicode="&#xd4;" horiz-adv-x="804" 
d="M387 711q88 0 154.5 -30t111 -80t66 -115.5t21.5 -136.5q0 -69 -22.5 -134t-66.5 -115.5t-110 -81t-154 -30.5t-154 30.5t-110.5 81.5t-66.5 116.5t-22 134.5q0 70 22 135.5t66 115t110 79.5t155 30zM387 661q-75 0 -131.5 -25.5t-94 -68t-56 -99t-18.5 -118.5
q0 -59 19 -115.5t56.5 -100t93.5 -70t131 -26.5t131.5 26.5t94 70t56.5 100t19 115.5q0 61 -19 117t-56.5 99t-94 69t-131.5 26zM374 918h40l142 -132v-7h-53l-109 96l-109 -96h-53v7z" />
    <glyph glyph-name="Otilde" unicode="&#xd5;" horiz-adv-x="804" 
d="M387 711q88 0 154.5 -30t111 -80t66 -115.5t21.5 -136.5q0 -69 -22.5 -134t-66.5 -115.5t-110 -81t-154 -30.5t-154 30.5t-110.5 81.5t-66.5 116.5t-22 134.5q0 70 22 135.5t66 115t110 79.5t155 30zM387 661q-75 0 -131.5 -25.5t-94 -68t-56 -99t-18.5 -118.5
q0 -59 19 -115.5t56.5 -100t93.5 -70t131 -26.5t131.5 26.5t94 70t56.5 100t19 115.5q0 61 -19 117t-56.5 99t-94 69t-131.5 26zM263 797q3 22 14 37.5t26.5 23t34.5 7t37 -9.5l41 -22q18 -8 36.5 -4t24.5 30l34 -11q-2 -23 -13 -38.5t-27 -23t-35 -6.5t-37 10l-41 22
q-18 8 -36.5 3.5t-24.5 -29.5z" />
    <glyph glyph-name="Odieresis" unicode="&#xd6;" horiz-adv-x="804" 
d="M387 711q88 0 154.5 -30t111 -80t66 -115.5t21.5 -136.5q0 -69 -22.5 -134t-66.5 -115.5t-110 -81t-154 -30.5t-154 30.5t-110.5 81.5t-66.5 116.5t-22 134.5q0 70 22 135.5t66 115t110 79.5t155 30zM387 661q-75 0 -131.5 -25.5t-94 -68t-56 -99t-18.5 -118.5
q0 -59 19 -115.5t56.5 -100t93.5 -70t131 -26.5t131.5 26.5t94 70t56.5 100t19 115.5q0 61 -19 117t-56.5 99t-94 69t-131.5 26zM252 822q0 19 12.5 29t27 10t27 -10t12.5 -29q0 -20 -12.5 -29.5t-27 -9.5t-27 9.5t-12.5 29.5zM466 822q0 19 12.5 29t27 10t27 -10t12.5 -29
q0 -20 -12.5 -29.5t-27 -9.5t-27 9.5t-12.5 29.5z" />
    <glyph glyph-name="multiply" unicode="&#xd7;" horiz-adv-x="425" 
d="M72 478l124 -123l122 122l34 -33l-123 -123l124 -123l-31 -31l-124 123l-127 -127l-33 33l127 128l-124 123z" />
    <glyph glyph-name="Oslash" unicode="&#xd8;" horiz-adv-x="804" 
d="M130 -79l66 116q-81 50 -121.5 134.5t-40.5 179.5q0 70 22 135.5t66 115t110 79.5t155 30q50 0 92.5 -10t77.5 -28l50 88h54l-64 -111q72 -51 107.5 -130.5t35.5 -170.5q0 -69 -22.5 -134t-66.5 -115.5t-110 -81t-154 -30.5q-43 0 -80.5 7.5t-69.5 20.5l-54 -95h-53z
M387 661q-75 0 -131.5 -25.5t-94 -68t-56 -99t-18.5 -118.5q0 -80 34 -152t101 -115l310 546q-31 15 -67 23.5t-78 8.5zM387 38q75 0 131.5 26.5t94 70t56.5 100t19 115.5q0 75 -29 142.5t-87 111.5l-309 -543q55 -23 124 -23z" />
    <glyph glyph-name="Ugrave" unicode="&#xd9;" horiz-adv-x="683" 
d="M600 700v-435q0 -91 -39.5 -152.5t-99.5 -92t-129 -30.5t-129 30.5t-99.5 91.5t-39.5 153v435h53v-435q0 -75 32 -125t79.5 -75t103.5 -25t103.5 25t79.5 75t32 125v435h53zM327 774l-92 123v1h65l75 -120v-4h-48z" />
    <glyph glyph-name="Uacute" unicode="&#xda;" horiz-adv-x="683" 
d="M600 700v-435q0 -69 -23 -120.5t-60.5 -85.5t-86 -51.5t-98.5 -17.5t-98.5 17t-86 51.5t-60.5 86t-23 120.5v435h53v-435q0 -75 32 -125t79.5 -75t103.5 -25t103.5 25t79.5 75t32 125v435h53zM291 775v4l75 120h65v-1l-92 -123h-48z" />
    <glyph glyph-name="Ucircumflex" unicode="&#xdb;" horiz-adv-x="683" 
d="M600 700v-435q0 -69 -23 -120.5t-60.5 -85.5t-86 -51.5t-98.5 -17.5t-98.5 17t-86 51.5t-60.5 86t-23 120.5v435h53v-435q0 -75 32 -125t79.5 -75t103.5 -25t103.5 25t79.5 75t32 125v435h53zM312 907h40l142 -132v-7h-53l-109 96l-109 -96h-53v7z" />
    <glyph glyph-name="Udieresis" unicode="&#xdc;" horiz-adv-x="683" 
d="M600 700v-435q0 -69 -23 -120.5t-60.5 -85.5t-86 -51.5t-98.5 -17.5t-98.5 17t-86 51.5t-60.5 86t-23 120.5v435h53v-435q0 -75 32 -125t79.5 -75t103.5 -25t103.5 25t79.5 75t32 125v435h53zM186 819q0 19 12.5 29t27 10t27 -10t12.5 -29q0 -20 -12.5 -29.5t-27 -9.5
t-27 9.5t-12.5 29.5zM400 819q0 19 12.5 29t27 10t27 -10t12.5 -29q0 -20 -12.5 -29.5t-27 -9.5t-27 9.5t-12.5 29.5z" />
    <glyph glyph-name="Yacute" unicode="&#xdd;" horiz-adv-x="639" 
d="M277 280l-273 419v1h63l237 -368l238 368h63v-1l-274 -419v-280h-54v280zM264 777v4l75 120h65v-1l-92 -123h-48z" />
    <glyph glyph-name="Thorn" unicode="&#xde;" horiz-adv-x="654" 
d="M67 699h50v-122h257q76 0 126.5 -34t76 -85t25.5 -110t-25.5 -110t-76 -85t-126.5 -34h-256v-119h-51v699zM118 527v-359h256q58 0 97 26.5t58.5 66.5t19.5 86.5t-19.5 86.5t-58.5 66.5t-97 26.5h-256z" />
    <glyph glyph-name="germandbls" unicode="&#xdf;" horiz-adv-x="587" 
d="M177 401h81q26 0 56 5.5t55.5 19.5t42.5 39.5t17 65.5q0 42 -15 68.5t-39 41.5t-53 20t-56 5q-45 0 -75 -11t-48.5 -31t-27.5 -47.5t-10 -59.5v-517h-48v518q0 50 16.5 86.5t44.5 60t66 35t80 11.5q43 0 82 -10t68 -32t46 -56t17 -82q0 -54 -30 -94t-82 -53
q83 -17 120.5 -70t37.5 -131q0 -76 -33.5 -120.5t-84.5 -63.5t-112 -14.5t-116 27.5v46q54 -26 107 -30t96 12t69.5 52t26.5 90t-18.5 88.5t-48.5 53.5t-68.5 26t-78.5 7h-85v44z" />
    <glyph glyph-name="agrave" unicode="&#xe0;" horiz-adv-x="608" 
d="M530 494v-494h-49v105q-36 -58 -89 -85.5t-113 -27.5q-52 0 -97.5 18.5t-79.5 52.5t-54 80.5t-20 103.5t20 103.5t54 79.5t79.5 51.5t97.5 18.5q60 0 115.5 -28t86.5 -86v108h49zM279 453q-42 0 -79 -15t-64 -42t-43 -65t-16 -84q0 -47 16 -85t43 -65t64 -42t79 -15
q69 0 114.5 30.5t68.5 76.5t23 99.5t-23 99.5t-68.5 76.5t-114.5 30.5zM282 584l-92 123v1h65l75 -120v-4h-48z" />
    <glyph glyph-name="aacute" unicode="&#xe1;" horiz-adv-x="608" 
d="M530 494v-494h-49v105q-36 -58 -89 -85.5t-113 -27.5q-52 0 -97.5 18.5t-79.5 52.5t-54 80.5t-20 103.5t20 103.5t54 79.5t79.5 51.5t97.5 18.5q60 0 115.5 -28t86.5 -86v108h49zM279 453q-42 0 -79 -15t-64 -42t-43 -65t-16 -84q0 -47 16 -85t43 -65t64 -42t79 -15
q69 0 114.5 30.5t68.5 76.5t23 99.5t-23 99.5t-68.5 76.5t-114.5 30.5zM248 582v4l75 120h65v-1l-92 -123h-48z" />
    <glyph glyph-name="acircumflex" unicode="&#xe2;" horiz-adv-x="608" 
d="M530 494v-494h-49v105q-36 -58 -89 -85.5t-113 -27.5q-52 0 -97.5 18.5t-79.5 52.5t-54 80.5t-20 103.5t20 103.5t54 79.5t79.5 51.5t97.5 18.5q60 0 115.5 -28t86.5 -86v108h49zM279 453q-42 0 -79 -15t-64 -42t-43 -65t-16 -84q0 -47 16 -85t43 -65t64 -42t79 -15
q69 0 114.5 30.5t68.5 76.5t23 99.5t-23 99.5t-68.5 76.5t-114.5 30.5zM269 703h40l142 -132v-7h-53l-109 96l-109 -96h-53v7z" />
    <glyph glyph-name="atilde" unicode="&#xe3;" horiz-adv-x="608" 
d="M530 494v-494h-49v105q-36 -58 -89 -85.5t-113 -27.5q-52 0 -97.5 18.5t-79.5 52.5t-54 80.5t-20 103.5t20 103.5t54 79.5t79.5 51.5t97.5 18.5q60 0 115.5 -28t86.5 -86v108h49zM279 453q-42 0 -79 -15t-64 -42t-43 -65t-16 -84q0 -47 16 -85t43 -65t64 -42t79 -15
q69 0 114.5 30.5t68.5 76.5t23 99.5t-23 99.5t-68.5 76.5t-114.5 30.5zM167 587q3 22 14 37.5t26.5 23t34.5 7t37 -9.5l41 -22q18 -8 36.5 -4t24.5 30l34 -11q-2 -23 -13 -38.5t-27 -23t-35 -6.5t-37 10l-41 22q-18 8 -36.5 3.5t-24.5 -29.5z" />
    <glyph glyph-name="adieresis" unicode="&#xe4;" horiz-adv-x="608" 
d="M530 494v-494h-49v105q-36 -58 -89 -85.5t-113 -27.5q-52 0 -97.5 18.5t-79.5 52.5t-54 80.5t-20 103.5t20 103.5t54 79.5t79.5 51.5t97.5 18.5q60 0 115.5 -28t86.5 -86v108h49zM279 453q-42 0 -79 -15t-64 -42t-43 -65t-16 -84q0 -47 16 -85t43 -65t64 -42t79 -15
q69 0 114.5 30.5t68.5 76.5t23 99.5t-23 99.5t-68.5 76.5t-114.5 30.5zM152 668q0 19 12.5 29t27 10t27 -10t12.5 -29q0 -20 -12.5 -29.5t-27 -9.5t-27 9.5t-12.5 29.5zM366 668q0 19 12.5 29t27 10t27 -10t12.5 -29q0 -20 -12.5 -29.5t-27 -9.5t-27 9.5t-12.5 29.5z" />
    <glyph glyph-name="aring" unicode="&#xe5;" horiz-adv-x="608" 
d="M530 494v-494h-49v105q-36 -58 -89 -85.5t-113 -27.5q-52 0 -97.5 18.5t-79.5 52.5t-54 80.5t-20 103.5t20 103.5t54 79.5t79.5 51.5t97.5 18.5q60 0 115.5 -28t86.5 -86v108h49zM279 453q-42 0 -79 -15t-64 -42t-43 -65t-16 -84q0 -47 16 -85t43 -65t64 -42t79 -15
q69 0 114.5 30.5t68.5 76.5t23 99.5t-23 99.5t-68.5 76.5t-114.5 30.5zM188 652q0 22 8.5 39.5t23 28.5t33.5 17t39 6t39 -5.5t34 -17t24.5 -28.5t9.5 -40q0 -45 -31 -69.5t-77 -24.5q-48 0 -75.5 24.5t-27.5 69.5zM291 707q-29 0 -44 -17t-15 -38t15 -38t44 -17
q31 0 46.5 17t15.5 38t-15.5 38t-46.5 17z" />
    <glyph glyph-name="ae" unicode="&#xe6;" horiz-adv-x="1042" 
d="M726 -7q-66 0 -119 28t-84 79v-100h-41v105q-36 -58 -89.5 -85.5t-113.5 -27.5q-52 0 -97.5 18.5t-79.5 52.5t-54 80.5t-20 103.5t20 103.5t54 79.5t79.5 51.5t97.5 18.5q30 0 60 -7t57 -21t50 -35.5t38 -50.5v108h41v-104q31 52 83 82t118 30q52 0 99.5 -16.5t82 -50.5
t52 -86.5t10.5 -124.5h-447q4 -44 21.5 -78t45.5 -57t63 -35.5t73 -12.5q24 0 50 5t49.5 14.5t44 23.5t34.5 32l35 -28q-18 -24 -42.5 -41.5t-52.5 -29.5t-58 -18t-60 -6zM279 453q-42 0 -79 -15t-64 -42t-43 -65t-16 -84q0 -47 16 -85t43 -65t64 -42t79 -15q69 0 115 30.5
t69 76.5t23 99.5t-23 99.5t-69 76.5t-115 30.5zM926 267q-1 92 -55.5 141t-144.5 49q-38 0 -73 -12.5t-62.5 -37t-45.5 -60t-22 -80.5h403z" />
    <glyph glyph-name="ccedilla" unicode="&#xe7;" horiz-adv-x="505" 
d="M222 -83l18 81q-45 6 -84 26t-68 52t-45.5 75t-16.5 96q0 58 19.5 105t54 79.5t80.5 50t100 17.5q49 0 95.5 -18.5t84.5 -55.5l-32 -31q-30 30 -69 44.5t-79 14.5q-42 0 -79.5 -13.5t-65.5 -39.5t-44.5 -64.5t-16.5 -88.5t16.5 -88.5t44.5 -64.5t65.5 -39.5t79.5 -13.5
q40 0 78.5 15.5t68.5 45.5l33 -33q-38 -38 -84.5 -56t-95.5 -18h-1l-11 -48q31 1 51 -7.5t31 -23t13.5 -33.5t-1.5 -37q-10 -37 -40 -53.5t-63 -16.5q-31 0 -59.5 13t-43.5 40l28 27q15 -22 33.5 -30.5t41.5 -8.5q21 0 39.5 9t23.5 29q4 14 0.5 27t-15.5 21.5t-31.5 11.5
t-47.5 -3z" />
    <glyph glyph-name="egrave" unicode="&#xe8;" horiz-adv-x="594" 
d="M278 -7q-52 0 -98 17.5t-80 50.5t-53.5 80t-19.5 106q0 55 19.5 102t53.5 81t80 53t98 19t99.5 -16.5t82 -50.5t52 -86.5t10.5 -124.5h-445q4 -44 21.5 -78t44.5 -57t62 -35.5t73 -12.5q24 0 50 5t49.5 14.5t44 23.5t34.5 32l35 -28q-18 -24 -42.5 -41.5t-52.5 -29.5
t-58 -18t-60 -6zM478 267q-1 92 -55.5 141t-144.5 49q-38 0 -73 -12.5t-62 -37t-44.5 -60t-21.5 -80.5h401zM285 577l-92 123v1h65l75 -120v-4h-48z" />
    <glyph glyph-name="eacute" unicode="&#xe9;" horiz-adv-x="594" 
d="M278 -7q-52 0 -98 17.5t-80 50.5t-53.5 80t-19.5 106q0 55 19.5 102t53.5 81t80 53t98 19t99.5 -16.5t82 -50.5t52 -86.5t10.5 -124.5h-445q4 -44 21.5 -78t44.5 -57t62 -35.5t73 -12.5q24 0 50 5t49.5 14.5t44 23.5t34.5 32l35 -28q-18 -24 -42.5 -41.5t-52.5 -29.5
t-58 -18t-60 -6zM77 267h401q-1 92 -55.5 141t-144.5 49q-38 0 -73 -12.5t-62 -37t-44.5 -60t-21.5 -80.5zM244 577v4l75 120h65v-1l-92 -123h-48z" />
    <glyph glyph-name="ecircumflex" unicode="&#xea;" horiz-adv-x="594" 
d="M278 -7q-52 0 -98 17.5t-80 50.5t-53.5 80t-19.5 106q0 55 19.5 102t53.5 81t80 53t98 19t99.5 -16.5t82 -50.5t52 -86.5t10.5 -124.5h-445q4 -44 21.5 -78t44.5 -57t62 -35.5t73 -12.5q24 0 50 5t49.5 14.5t44 23.5t34.5 32l35 -28q-18 -24 -42.5 -41.5t-52.5 -29.5
t-58 -18t-60 -6zM77 267h401q-1 92 -55.5 141t-144.5 49q-38 0 -73 -12.5t-62 -37t-44.5 -60t-21.5 -80.5zM266 701h40l142 -132v-7h-53l-109 96l-109 -96h-53v7z" />
    <glyph glyph-name="edieresis" unicode="&#xeb;" horiz-adv-x="594" 
d="M278 -7q-52 0 -98 17.5t-80 50.5t-53.5 80t-19.5 106q0 55 19.5 102t53.5 81t80 53t98 19t99.5 -16.5t82 -50.5t52 -86.5t10.5 -124.5h-445q4 -44 21.5 -78t44.5 -57t62 -35.5t73 -12.5q24 0 50 5t49.5 14.5t44 23.5t34.5 32l35 -28q-18 -24 -42.5 -41.5t-52.5 -29.5
t-58 -18t-60 -6zM77 267h401q-1 92 -55.5 141t-144.5 49q-38 0 -73 -12.5t-62 -37t-44.5 -60t-21.5 -80.5zM139 661q0 19 12.5 29t27 10t27 -10t12.5 -29q0 -20 -12.5 -29.5t-27 -9.5t-27 9.5t-12.5 29.5zM353 661q0 19 12.5 29t27 10t27 -10t12.5 -29q0 -20 -12.5 -29.5
t-27 -9.5t-27 9.5t-12.5 29.5z" />
    <glyph glyph-name="igrave" unicode="&#xec;" horiz-adv-x="172" 
d="M57 580l-66 120v1h56l56 -117v-4h-46zM101 496v-496h-49v496h49z" />
    <glyph glyph-name="iacute" unicode="&#xed;" horiz-adv-x="176" 
d="M41 580v4l56 117h56v-1l-66 -120h-46zM95 496v-496h-49v496h49z" />
    <glyph glyph-name="icircumflex" unicode="&#xee;" horiz-adv-x="192" 
d="M68 701h31l93 -120v-7h-42l-67 84l-70 -84h-43v7zM104 496v-496h-49v496h49z" />
    <glyph glyph-name="idieresis" unicode="&#xef;" horiz-adv-x="193" 
d="M-27 658q0 18 11.5 27t26 9t26 -9t11.5 -27t-11.5 -27t-26 -9t-26 9t-11.5 27zM111 658q0 18 11.5 27t25.5 9t25.5 -9t11.5 -27t-11.5 -27t-25.5 -9t-25.5 9t-11.5 27zM104 496v-496h-49v496h49z" />
    <glyph glyph-name="eth" unicode="&#xf0;" horiz-adv-x="596" 
d="M395 694l-46 -65q101 -68 144.5 -165t45.5 -211q1 -58 -16.5 -106.5t-50.5 -83.5t-80.5 -54.5t-106.5 -19.5q-85 0 -141.5 37t-84.5 92.5t-28 120t28 120t84.5 92.5t141.5 37q42 0 88 -15t97 -63q-15 51 -54.5 99t-92.5 83l-42 -60l-32 22l41 59q-26 14 -52 25t-52 18
l14 42q32 -11 61 -23t55 -26l47 67zM285 35q68 0 113.5 30t68 75.5t22.5 98.5t-22.5 98.5t-68 75.5t-113.5 30t-113.5 -30t-68 -75.5t-22.5 -98.5t22.5 -98.5t68 -75.5t113.5 -30z" />
    <glyph glyph-name="ntilde" unicode="&#xf1;" horiz-adv-x="575" 
d="M103 494v-88q29 51 76.5 73.5t99.5 23.5q49 0 90.5 -15t70.5 -43t45.5 -68.5t16.5 -91.5v-285h-49v284q0 85 -47.5 128.5t-128.5 42.5q-38 0 -70 -14t-55 -38t-35.5 -57t-12.5 -71v-275h-49v494h48zM154 635q3 21 14 35t26.5 21t34 6.5t36.5 -8.5l41 -21q18 -8 36.5 -3.5
t24.5 27.5l34 -10q-2 -21 -13 -35.5t-27 -21t-35 -6t-37 8.5l-41 21q-17 8 -35.5 3.5t-24.5 -27.5z" />
    <glyph glyph-name="ograve" unicode="&#xf2;" 
d="M283 -7q-52 0 -98 17.5t-80 50t-53.5 79.5t-19.5 106t19.5 106.5t53.5 81t80 51.5t98 18t98 -18t80 -51.5t53.5 -81t19.5 -106.5t-19.5 -106t-53.5 -79.5t-80 -50t-98 -17.5zM283 41q42 0 79 14t64.5 40.5t43.5 64.5t16 86t-16 87t-43.5 66.5t-64.5 42.5t-79 15t-79 -15
t-64.5 -42.5t-43.5 -66.5t-16 -87t16 -86t43.5 -64.5t64.5 -40.5t79 -14zM276 586l-92 119v1h65l75 -116v-4h-48z" />
    <glyph glyph-name="oacute" unicode="&#xf3;" 
d="M283 -7q-52 0 -98 17.5t-80 50t-53.5 79.5t-19.5 106t19.5 106.5t53.5 81t80 51.5t98 18t98 -18t80 -51.5t53.5 -81t19.5 -106.5t-19.5 -106t-53.5 -79.5t-80 -50t-98 -17.5zM283 41q42 0 79 14t64.5 40.5t43.5 64.5t16 86t-16 87t-43.5 66.5t-64.5 42.5t-79 15t-79 -15
t-64.5 -42.5t-43.5 -66.5t-16 -87t16 -86t43.5 -64.5t64.5 -40.5t79 -14zM251 580v4l72 112h63v-1l-89 -115h-46z" />
    <glyph glyph-name="ocircumflex" unicode="&#xf4;" 
d="M283 -7q-52 0 -98 17.5t-80 50t-53.5 79.5t-19.5 106t19.5 106.5t53.5 81t80 51.5t98 18t98 -18t80 -51.5t53.5 -81t19.5 -106.5t-19.5 -106t-53.5 -79.5t-80 -50t-98 -17.5zM283 41q42 0 79 14t64.5 40.5t43.5 64.5t16 86t-16 87t-43.5 66.5t-64.5 42.5t-79 15t-79 -15
t-64.5 -42.5t-43.5 -66.5t-16 -87t16 -86t43.5 -64.5t64.5 -40.5t79 -14zM270 711h40l142 -132v-7h-53l-109 96l-109 -96h-53v7z" />
    <glyph glyph-name="otilde" unicode="&#xf5;" 
d="M283 -7q-52 0 -98 17.5t-80 50t-53.5 79.5t-19.5 106t19.5 106.5t53.5 81t80 51.5t98 18t98 -18t80 -51.5t53.5 -81t19.5 -106.5t-19.5 -106t-53.5 -79.5t-80 -50t-98 -17.5zM283 41q42 0 79 14t64.5 40.5t43.5 64.5t16 86t-16 87t-43.5 66.5t-64.5 42.5t-79 15t-79 -15
t-64.5 -42.5t-43.5 -66.5t-16 -87t16 -86t43.5 -64.5t64.5 -40.5t79 -14zM164 586q3 22 14 36.5t27 22t35 7t37 -9.5l41 -21q18 -8 36.5 -4t24.5 29l34 -10q-2 -23 -13 -37.5t-27 -22t-35 -6.5t-37 10l-41 21q-19 8 -37.5 3.5t-24.5 -28.5z" />
    <glyph glyph-name="odieresis" unicode="&#xf6;" 
d="M283 -7q-52 0 -98 17.5t-80 50t-53.5 79.5t-19.5 106t19.5 106.5t53.5 81t80 51.5t98 18t98 -18t80 -51.5t53.5 -81t19.5 -106.5t-19.5 -106t-53.5 -79.5t-80 -50t-98 -17.5zM283 41q42 0 79 14t64.5 40.5t43.5 64.5t16 86t-16 87t-43.5 66.5t-64.5 42.5t-79 15t-79 -15
t-64.5 -42.5t-43.5 -66.5t-16 -87t16 -86t43.5 -64.5t64.5 -40.5t79 -14zM142 643q0 19 12.5 29t27 10t27 -10t12.5 -29q0 -20 -12.5 -29.5t-27 -9.5t-27 9.5t-12.5 29.5zM356 643q0 19 12.5 29t27 10t27 -10t12.5 -29q0 -20 -12.5 -29.5t-27 -9.5t-27 9.5t-12.5 29.5z" />
    <glyph glyph-name="divide" unicode="&#xf7;" horiz-adv-x="485" 
d="M36 359h404v-50h-404v50zM201 179q0 19 12.5 29t27 10t27 -10t12.5 -29q0 -20 -12.5 -29.5t-27 -9.5t-27 9.5t-12.5 29.5zM201 484q0 19 12.5 29t27 10t27 -10t12.5 -29q0 -20 -12.5 -29.5t-27 -9.5t-27 9.5t-12.5 29.5z" />
    <glyph glyph-name="oslash" unicode="&#xf8;" 
d="M283 -7q-29 0 -57 5.5t-53 16.5l-41 -69h-50l54 90q-48 32 -76 85t-28 125q0 59 19.5 106.5t53.5 81t80 51.5t98 18q62 0 116 -26l37 62h51l-51 -85q45 -33 71.5 -86t26.5 -122q0 -59 -19.5 -106t-53.5 -79.5t-80 -50t-98 -17.5zM283 457q-42 0 -79 -15t-64.5 -42.5
t-43.5 -66.5t-16 -87q0 -57 22 -99.5t59 -68.5l213 358q-20 10 -43 15.5t-48 5.5zM283 41q42 0 79 14t64.5 40.5t43.5 64.5t16 86q0 54 -20 96.5t-55 70.5l-212 -356q19 -8 40 -12t44 -4z" />
    <glyph glyph-name="ugrave" unicode="&#xf9;" horiz-adv-x="575" 
d="M453 0v89q-29 -51 -76.5 -73.5t-99.5 -23.5q-50 0 -91 15t-70 43t-45.5 68.5t-16.5 91.5v285h49v-284q0 -85 47.5 -128.5t128.5 -42.5q38 0 70 14t55 38t35.5 57t12.5 71v275h49v-495h-48zM277 577l-92 123v1h65l75 -120v-4h-48z" />
    <glyph glyph-name="uacute" unicode="&#xfa;" horiz-adv-x="575" 
d="M453 0v89q-29 -51 -76.5 -73.5t-99.5 -23.5q-50 0 -91 15t-70 43t-45.5 68.5t-16.5 91.5v285h49v-284q0 -85 47.5 -128.5t128.5 -42.5q38 0 70 14t55 38t35.5 57t12.5 71v275h49v-495h-48zM247 577v4l75 120h65v-1l-92 -123h-48z" />
    <glyph glyph-name="ucircumflex" unicode="&#xfb;" horiz-adv-x="575" 
d="M453 0v89q-29 -51 -76.5 -73.5t-99.5 -23.5q-50 0 -91 15t-70 43t-45.5 68.5t-16.5 91.5v285h49v-284q0 -85 47.5 -128.5t128.5 -42.5q38 0 70 14t55 38t35.5 57t12.5 71v275h49v-495h-48zM262 701h39l137 -127v-7h-51l-106 92l-105 -92h-51v7z" />
    <glyph glyph-name="udieresis" unicode="&#xfc;" horiz-adv-x="575" 
d="M453 0v89q-29 -51 -76.5 -73.5t-99.5 -23.5q-50 0 -91 15t-70 43t-45.5 68.5t-16.5 91.5v285h49v-284q0 -85 47.5 -128.5t128.5 -42.5q38 0 70 14t55 38t35.5 57t12.5 71v275h49v-495h-48zM140 661q0 19 12.5 29t27 10t27 -10t12.5 -29q0 -20 -12.5 -29.5t-27 -9.5
t-27 9.5t-12.5 29.5zM354 661q0 19 12.5 29t27 10t27 -10t12.5 -29q0 -20 -12.5 -29.5t-27 -9.5t-27 9.5t-12.5 29.5z" />
    <glyph glyph-name="yacute" unicode="&#xfd;" horiz-adv-x="517" 
d="M477 494l-301 -700h-52l91 212l-198 488h53l115 -292l58 -143l57 144l124 291h53zM213 584v4l70 113h62v-1l-87 -116h-45z" />
    <glyph glyph-name="thorn" unicode="&#xfe;" horiz-adv-x="622" 
d="M58 -206v905h46l1 -322q29 57 86 90.5t129 33.5q50 -2 94 -19.5t76.5 -50t51 -78.5t18.5 -106q0 -62 -19.5 -110t-53.5 -80.5t-80 -49t-98 -16.5q-63 0 -117.5 30.5t-86.5 92.5v-320h-47zM309 38q42 0 79 13t64 39.5t43 65.5t16 91t-16 91t-43 64.5t-64 38.5t-79 13
q-43 0 -79.5 -15.5t-63.5 -43t-42 -66t-15 -83.5t15.5 -83.5t42.5 -66t63.5 -43t78.5 -15.5z" />
    <glyph glyph-name="ydieresis" unicode="&#xff;" horiz-adv-x="517" 
d="M477 494l-301 -700h-52l91 212l-198 488h53l115 -292l58 -143l57 144l124 291h53zM112 667q0 19 11.5 28t26 9t26 -9t11.5 -28q0 -18 -11.5 -27.5t-26 -9.5t-26 9.5t-11.5 27.5zM316 667q0 19 11.5 28t26 9t26 -9t11.5 -28q0 -18 -11.5 -27.5t-26 -9.5t-26 9.5
t-11.5 27.5z" />
    <glyph glyph-name="Abreve" unicode="&#x102;" horiz-adv-x="694" 
d="M621 0l-77 172h-418l-76 -172h-58l314 700h59l314 -700h-58zM523 222l-188 426l-188 -426h376zM473 906q0 -58 -33.5 -90.5t-92.5 -32.5q-61 0 -93.5 32.5t-32.5 90.5h40q0 -14 3.5 -28.5t12.5 -26.5t26 -20t44 -8q26 0 42.5 8t25.5 20t12.5 26.5t3.5 28.5h42z" />
    <glyph glyph-name="abreve" unicode="&#x103;" horiz-adv-x="608" 
d="M530 494v-494h-49v105q-36 -58 -89 -85.5t-113 -27.5q-52 0 -97.5 18.5t-79.5 52.5t-54 80.5t-20 103.5t20 103.5t54 79.5t79.5 51.5t97.5 18.5q60 0 115.5 -28t86.5 -86v108h49zM279 453q-42 0 -79 -15t-64 -42t-43 -65t-16 -84q0 -47 16 -85t43 -65t64 -42t79 -15
q69 0 114.5 30.5t68.5 76.5t23 99.5t-23 99.5t-68.5 76.5t-114.5 30.5zM430 700q0 -58 -33.5 -90.5t-92.5 -32.5q-61 0 -93.5 32.5t-32.5 90.5h40q0 -14 3.5 -28.5t12.5 -26.5t26 -20t44 -8q26 0 42.5 8t25.5 20t12.5 26.5t3.5 28.5h42z" />
    <glyph glyph-name="Dcroat" unicode="&#x110;" horiz-adv-x="709" 
d="M-29 388h88v312h237q89 0 155 -29.5t110 -77.5t66 -109.5t24 -125.5q1 -67 -19.5 -131t-64.5 -114.5t-111.5 -81.5t-159.5 -31h-237v329h-88v59zM113 649v-261h117v-59h-117v-277h183q78 0 135 26.5t94.5 70t55 98.5t16.5 111q-1 55 -20 107t-56 93t-93 66t-132 25h-183z
" />
    <glyph glyph-name="dcroat" unicode="&#x111;" horiz-adv-x="615" 
d="M529 700v-84h86v-52h-86v-564h-48v109q-31 -57 -87 -87t-119 -30q-52 0 -97 17t-78.5 49t-52.5 79.5t-19 109.5q0 61 19.5 108.5t53 80t78.5 49.5t97 17q64 0 119.5 -28t85.5 -88v178h-147v52h147v84h48zM278 455q-42 0 -78.5 -13t-64 -39t-43.5 -65t-16 -91
q0 -51 16 -90t43.5 -65t64 -39t78.5 -13q43 0 80 15t64 42.5t42.5 66t15.5 84.5t-15.5 84t-42.5 65.5t-64 42.5t-80 15z" />
    <glyph glyph-name="Itilde" unicode="&#x128;" horiz-adv-x="208" 
d="M65 0v700h53v-700h-53zM-19 797q3 22 14 37.5t26.5 23t34.5 7t37 -9.5l41 -22q18 -8 36.5 -4t24.5 30l34 -11q-2 -23 -13 -38.5t-27 -23t-35 -6.5t-37 10l-41 22q-18 8 -36.5 3.5t-24.5 -29.5z" />
    <glyph glyph-name="itilde" unicode="&#x129;" horiz-adv-x="189" 
d="M104 496v-496h-49v496h49zM-29 587q3 22 14 37.5t26.5 23t34.5 7t37 -9.5l41 -22q18 -8 36.5 -4t24.5 30l34 -11q-2 -23 -13 -38.5t-27 -23t-35 -6.5t-37 10l-41 22q-18 8 -36.5 3.5t-24.5 -29.5z" />
    <glyph glyph-name="dotlessi" unicode="&#x131;" horiz-adv-x="189" 
d="M104 496v-496h-49v496h49z" />
    <glyph glyph-name="Lslash" unicode="&#x141;" horiz-adv-x="564" 
d="M118 700v-330l116 49v-54l-116 -48v-266h394v-51h-448v295l-70 -28v52l70 29v352h54z" />
    <glyph glyph-name="lslash" unicode="&#x142;" horiz-adv-x="199" 
d="M108 700v-333l81 33v-54l-81 -32v-314h-49v295l-72 -28v52l72 29v352h49z" />
    <glyph glyph-name="OE" unicode="&#x152;" horiz-adv-x="976" 
d="M521 377h340v-49h-340v-280h377v-48h-423q-17 -2 -34 -3.5t-35 -1.5q-88 0 -154 29.5t-110.5 79t-66.5 114t-22 133.5q0 70 22 134.5t66 113.5t110 78t155 29q38 0 71 -6h406v-48h-362v-275zM406 664q-75 0 -131.5 -26t-94 -69.5t-56 -100t-18.5 -118.5q0 -59 19 -115
t56.5 -99.5t93.5 -69.5t131 -26q36 0 69 6v612q-33 6 -69 6z" />
    <glyph glyph-name="oe" unicode="&#x153;" horiz-adv-x="1079" 
d="M743 -7q-77 0 -135.5 40t-84.5 106q-27 -70 -85.5 -108t-136.5 -38q-52 0 -98 17.5t-80 50t-53.5 79.5t-19.5 106t19.5 106.5t53.5 81t80 51.5t98 18q78 0 136.5 -39.5t85.5 -111.5q13 33 34.5 60.5t50 47.5t63 31t72.5 11q52 0 98.5 -16.5t80.5 -50.5t51 -86.5
t10 -124.5h-219t-219 -1q4 -43 21 -77t43.5 -57t61 -35.5t72.5 -12.5q49 0 97.5 19t76.5 56l35 -28q-36 -47 -93 -71t-116 -24zM301 41q42 0 78.5 14t64 40.5t43 64.5t15.5 86t-15.5 87t-43 66.5t-64 42.5t-78.5 15t-79 -15t-64.5 -42.5t-43.5 -66.5t-16 -87t16 -86
t43.5 -64.5t64.5 -40.5t79 -14zM939 267q-1 92 -53.5 141t-142.5 49q-38 0 -72.5 -12.5t-61 -37t-43.5 -60t-21 -80.5h394z" />
    <glyph glyph-name="Scaron" unicode="&#x160;" horiz-adv-x="642" 
d="M518 565q-19 31 -43.5 49.5t-52 28.5t-57 13.5t-59.5 3.5q-31 0 -68 -6.5t-69 -22.5t-53.5 -43.5t-21.5 -69.5q0 -33 17 -55t46 -36t68 -23.5t83 -17.5q51 -10 100 -21.5t88 -32.5t63 -55.5t24 -91.5q0 -59 -27 -97t-68 -60t-89.5 -30.5t-92.5 -8.5q-41 0 -83.5 8.5
t-81 27t-70.5 47.5t-52 69l48 24q16 -32 43.5 -56t60 -39.5t68 -23.5t67.5 -8t71 5.5t72.5 22t56.5 45t23 75.5q0 39 -19.5 64.5t-52 41.5t-74 26t-84.5 18q-48 9 -94.5 20.5t-83 30.5t-59 50t-22.5 79q-1 55 24 92.5t64.5 60t87 32t90.5 9.5q37 0 72 -4t67.5 -17t61.5 -36
t55 -62zM328 778h-40l-142 132v7h53l109 -96l109 96h53v-7z" />
    <glyph glyph-name="scaron" unicode="&#x161;" horiz-adv-x="499" 
d="M394 404q-38 33 -75 42.5t-79 9.5q-29 0 -56 -5t-48 -16.5t-33.5 -28.5t-11.5 -41q1 -25 15.5 -40.5t37 -25t48.5 -15t49 -9.5q33 -6 69.5 -13t67 -22t50 -41t17.5 -69q-1 -41 -20.5 -67.5t-49.5 -42.5t-65 -22t-68 -6t-64.5 6t-60 18.5t-52 31t-39.5 43.5l36 32
q31 -44 81 -64t100 -20q22 0 48.5 3.5t49.5 14t39 29t17 47.5q1 27 -13 43.5t-36.5 27t-52 16.5t-59.5 11q-36 6 -70.5 13.5t-61.5 22t-43.5 37.5t-16.5 60q0 36 16.5 62.5t44 43.5t62.5 24.5t73 7.5q54 0 100.5 -15.5t83.5 -50.5zM270 569h-39l-136 127v7h51l105 -93
l105 93h51v-7z" />
    <glyph glyph-name="Utilde" unicode="&#x168;" horiz-adv-x="683" 
d="M600 700v-435q0 -91 -39.5 -152.5t-99.5 -92t-129 -30.5t-129 30.5t-99.5 91.5t-39.5 153v435h53v-435q0 -75 32 -125t79.5 -75t103.5 -25t103.5 25t79.5 75t32 125v435h53zM217 797q3 22 14 37.5t26.5 23t34.5 7t37 -9.5l41 -22q18 -8 36.5 -4t24.5 30l34 -11
q-2 -23 -13 -38.5t-27 -23t-35 -6.5t-37 10l-41 22q-18 8 -36.5 3.5t-24.5 -29.5z" />
    <glyph glyph-name="utilde" unicode="&#x169;" horiz-adv-x="575" 
d="M453 0v89q-29 -51 -76.5 -73.5t-99.5 -23.5q-50 0 -91 15t-70 43t-45.5 68.5t-16.5 91.5v285h49v-284q0 -85 47.5 -128.5t128.5 -42.5q38 0 70 14t55 38t35.5 57t12.5 71v275h49v-495h-48zM163 588q3 22 14 37.5t26.5 23t34.5 7t37 -9.5l41 -22q18 -8 36.5 -4t24.5 30
l34 -11q-2 -23 -13 -38.5t-27 -23t-35 -6.5t-37 10l-41 22q-18 8 -36.5 3.5t-24.5 -29.5z" />
    <glyph glyph-name="Ydieresis" unicode="&#x178;" horiz-adv-x="639" 
d="M277 280l-273 419v1h63l237 -368l238 368h63v-1l-274 -419v-280h-54v280zM157 806q0 19 12.5 29t27 10t27 -10t12.5 -29q0 -20 -12.5 -29.5t-27 -9.5t-27 9.5t-12.5 29.5zM371 806q0 19 12.5 29t27 10t27 -10t12.5 -29q0 -20 -12.5 -29.5t-27 -9.5t-27 9.5t-12.5 29.5z
" />
    <glyph glyph-name="Zcaron" unicode="&#x17d;" horiz-adv-x="578" 
d="M37 700h507v-19l-451 -628h451v-53h-531v23l445 627h-421v50zM319 775h-40l-142 132v7h53l109 -96l109 96h53v-7z" />
    <glyph glyph-name="zcaron" unicode="&#x17e;" horiz-adv-x="473" 
d="M40 494h372v-19l-312 -429h312v-46h-388v17l315 433h-299v44zM256 569h-37l-134 124v7h50l102 -91l103 91h50v-7z" />
    <glyph glyph-name="florin" unicode="&#x192;" horiz-adv-x="386" 
d="M122 447h-101v43h101v44q0 37 8 68t25.5 53.5t45.5 35t69 12.5q28 0 52.5 -9t45.5 -25l-24 -36q-20 12 -36.5 18.5t-39.5 6.5q-47 0 -72.5 -29.5t-25.5 -94.5v-44h163v-43h-163v-448q0 -37 -6 -68t-21 -53.5t-41 -35.5t-67 -13q-28 0 -50.5 9.5t-43.5 25.5l23 34
q19 -15 34.5 -20t38.5 -5q47 0 66 30.5t19 95.5v448z" />
    <glyph glyph-name="Ohorn" unicode="&#x1a0;" horiz-adv-x="804" 
d="M387 711q95 0 163.5 -34t112.5 -90q4 1 7.5 1t8.5 1q16 1 23 9.5t8 16.5v85h50v-88q0 -19 -7 -31.5t-17.5 -20t-22.5 -11.5t-21 -5q24 -43 36 -92.5t12 -102.5q0 -69 -22.5 -134t-66.5 -115.5t-110 -81t-154 -30.5t-154 30.5t-110.5 81.5t-66.5 116.5t-22 134.5
q0 70 22 135.5t66 115t110 79.5t155 30zM387 661q-75 0 -131.5 -25.5t-94 -68t-56 -99t-18.5 -118.5q0 -59 19 -115.5t56.5 -100t93.5 -70t131 -26.5t131.5 26.5t94 70t56.5 100t19 115.5q0 61 -19 117t-56.5 99t-94 69t-131.5 26z" />
    <glyph glyph-name="ohorn" unicode="&#x1a1;" 
d="M283 -7q-52 0 -98 17.5t-80 50t-53.5 79.5t-19.5 106t19.5 106.5t53.5 81t80 51.5t98 18q65 0 118.5 -27t87.5 -77h3q16 0 22.5 9t8.5 17v70h50v-73q0 -17 -6 -29t-15 -20t-19.5 -12t-19.5 -6q10 -24 15.5 -51.5t5.5 -57.5q0 -59 -19.5 -106t-53.5 -79.5t-80 -50
t-98 -17.5zM283 41q42 0 79 14t64.5 40.5t43.5 64.5t16 86t-16 87t-43.5 66.5t-64.5 42.5t-79 15t-79 -15t-64.5 -42.5t-43.5 -66.5t-16 -87t16 -86t43.5 -64.5t64.5 -40.5t79 -14z" />
    <glyph glyph-name="Uhorn" unicode="&#x1af;" horiz-adv-x="683" 
d="M600 700v-112q1 0 1.5 0.5t2.5 0.5q16 0 22.5 9t8.5 17v85h50v-88q0 -27 -13.5 -41t-29.5 -20q-18 -7 -42 -8v-278q0 -91 -39.5 -152.5t-99.5 -92t-129 -30.5t-129 30.5t-99.5 91.5t-39.5 153v435h53v-435q0 -75 32 -125t79.5 -75t103.5 -25t103.5 25t79.5 75t32 125v435
h53z" />
    <glyph glyph-name="uhorn" unicode="&#x1b0;" 
d="M453 0v89q-29 -51 -76.5 -73.5t-99.5 -23.5q-50 0 -91 15t-70 43t-45.5 68.5t-16.5 91.5v285h49v-284q0 -85 47.5 -128.5t128.5 -42.5q38 0 70 14t55 38t35.5 57t12.5 71v275h49v-96h2q16 0 22.5 9t8.5 17v70h50v-73q0 -26 -12 -39.5t-27 -20.5t-28 -8t-16 -1v-353h-48z
" />
    <glyph glyph-name="circumflex" unicode="&#x2c6;" horiz-adv-x="421" 
d="M178 701h40l142 -132v-7h-53l-109 96l-109 -96h-53v7z" />
    <glyph glyph-name="caron" unicode="&#x2c7;" horiz-adv-x="404" 
d="M218 562h-40l-142 132v7h53l109 -96l109 96h53v-7z" />
    <glyph glyph-name="breve" unicode="&#x2d8;" horiz-adv-x="333" 
d="M283 700q0 -58 -33.5 -90.5t-92.5 -32.5q-61 0 -93.5 32.5t-32.5 90.5h40q0 -14 3.5 -28.5t12.5 -26.5t26 -20t44 -8q26 0 42.5 8t25.5 20t12.5 26.5t3.5 28.5h42z" />
    <glyph glyph-name="dotaccent" unicode="&#x2d9;" horiz-adv-x="206" 
d="M56 667q0 19 12.5 29t27 10t27 -10t12.5 -29q0 -20 -12.5 -29.5t-27 -9.5t-27 9.5t-12.5 29.5z" />
    <glyph glyph-name="ring" unicode="&#x2da;" horiz-adv-x="397" 
d="M74 622q0 24 9 42t23.5 30t33.5 18t39 6t39 -6t34 -18t24.5 -30t9.5 -42q0 -48 -31 -73.5t-77 -25.5q-48 0 -76 26t-28 73zM178 680q-30 0 -44.5 -18t-14.5 -40t14.5 -40t44.5 -18q31 0 46.5 18t15.5 40t-15.5 40t-46.5 18z" />
    <glyph glyph-name="ogonek" unicode="&#x2db;" horiz-adv-x="407" 
d="M235 -41q-39 7 -64.5 1t-39.5 -19t-17 -30t4 -32t23.5 -25t41.5 -9q22 1 46.5 13t39.5 37l32 -18q-16 -33 -48 -50.5t-67 -19.5q-40 -2 -66 13t-37.5 37t-9 48t19.5 46.5t48.5 32.5t78.5 6z" />
    <glyph glyph-name="tilde" unicode="&#x2dc;" horiz-adv-x="325" 
d="M31 639q3 22 14 37.5t26.5 23t34.5 7t37 -9.5l41 -22q18 -8 36.5 -4t24.5 30l34 -11q-2 -23 -13 -38.5t-27 -23t-35 -6.5t-37 10l-41 22q-18 8 -36.5 3.5t-24.5 -29.5z" />
    <glyph glyph-name="hungarumlaut" unicode="&#x2dd;" horiz-adv-x="352" 
d="M31 588v4l72 109h65v-1l-89 -112h-48zM163 588v4l72 109h65v-1l-89 -112h-48z" />
    <glyph glyph-name="hookabovecomb" unicode="&#x309;" horiz-adv-x="340" 
d="M80 674q2 41 16 69q6 12 15.5 22.5t23.5 17t33 8t45 -5.5q34 -11 47 -36.5t11.5 -54.5t-15 -57t-32.5 -44q-16 -14 -23 -24.5t-8 -20.5h-49q2 17 12 33.5t30 32.5q20 15 30.5 36.5t12 41.5t-7 36.5t-27.5 21.5q-15 4 -28.5 -1t-23.5 -16t-15.5 -26.5t-3.5 -32.5h-43z" />
    <glyph glyph-name="dotbelowcomb" unicode="&#x323;" horiz-adv-x="206" 
d="M56 -88q0 19 12.5 29t27 10t27 -10t12.5 -29q0 -20 -12.5 -29.5t-27 -9.5t-27 9.5t-12.5 29.5z" />
    <glyph glyph-name="uni1EA0" unicode="&#x1ea0;" horiz-adv-x="694" 
d="M621 0l-77 172h-418l-76 -172h-58l314 700h59l314 -700h-58zM523 222l-188 426l-188 -426h376zM307 -88q0 19 12.5 29t27 10t27 -10t12.5 -29q0 -20 -12.5 -29.5t-27 -9.5t-27 9.5t-12.5 29.5z" />
    <glyph glyph-name="uni1EA1" unicode="&#x1ea1;" horiz-adv-x="608" 
d="M530 494v-494h-49v105q-36 -58 -89 -85.5t-113 -27.5q-52 0 -97.5 18.5t-79.5 52.5t-54 80.5t-20 103.5t20 103.5t54 79.5t79.5 51.5t97.5 18.5q60 0 115.5 -28t86.5 -86v108h49zM279 453q-42 0 -79 -15t-64 -42t-43 -65t-16 -84q0 -47 16 -85t43 -65t64 -42t79 -15
q69 0 114.5 30.5t68.5 76.5t23 99.5t-23 99.5t-68.5 76.5t-114.5 30.5zM264 -88q0 19 12.5 29t27 10t27 -10t12.5 -29q0 -20 -12.5 -29.5t-27 -9.5t-27 9.5t-12.5 29.5z" />
    <glyph glyph-name="uni1EA2" unicode="&#x1ea2;" horiz-adv-x="694" 
d="M621 0l-77 172h-418l-76 -172h-58l314 700h59l314 -700h-58zM523 222l-188 426l-188 -426h376zM243 880q2 41 16 69q6 12 15.5 22.5t23.5 17t33 8t45 -5.5q34 -11 47 -36.5t11.5 -54.5t-15 -57t-32.5 -44q-16 -14 -23 -24.5t-8 -20.5h-49q2 17 12 33.5t30 32.5
q20 15 30.5 36.5t12 41.5t-7 36.5t-27.5 21.5q-15 4 -28.5 -1t-23.5 -16t-15.5 -26.5t-3.5 -32.5h-43z" />
    <glyph glyph-name="uni1EA3" unicode="&#x1ea3;" horiz-adv-x="608" 
d="M530 494v-494h-49v105q-36 -58 -89 -85.5t-113 -27.5q-52 0 -97.5 18.5t-79.5 52.5t-54 80.5t-20 103.5t20 103.5t54 79.5t79.5 51.5t97.5 18.5q60 0 115.5 -28t86.5 -86v108h49zM279 453q-42 0 -79 -15t-64 -42t-43 -65t-16 -84q0 -47 16 -85t43 -65t64 -42t79 -15
q69 0 114.5 30.5t68.5 76.5t23 99.5t-23 99.5t-68.5 76.5t-114.5 30.5zM186 674q2 41 16 69q6 12 15.5 22.5t23.5 17t33 8t45 -5.5q34 -11 47 -36.5t11.5 -54.5t-15 -57t-32.5 -44q-16 -14 -23 -24.5t-8 -20.5h-49q2 17 12 33.5t30 32.5q20 15 30.5 36.5t12 41.5t-7 36.5
t-27.5 21.5q-15 4 -28.5 -1t-23.5 -16t-15.5 -26.5t-3.5 -32.5h-43z" />
    <glyph glyph-name="uni1EA4" unicode="&#x1ea4;" horiz-adv-x="694" 
d="M621 0l-77 172h-418l-76 -172h-58l314 700h59l314 -700h-58zM523 222l-188 426l-188 -426h376zM315 898h40l142 -132v-7h-53l-109 96l-109 -96h-53v7zM416 880v4l75 120h65v-1l-92 -123h-48z" />
    <glyph glyph-name="uni1EA5" unicode="&#x1ea5;" horiz-adv-x="608" 
d="M361 730v4l75 120h65v-1l-92 -123h-48zM530 494v-494h-49v105q-36 -58 -89 -85.5t-113 -27.5q-52 0 -97.5 18.5t-79.5 52.5t-54 80.5t-20 103.5t20 103.5t54 79.5t79.5 51.5t97.5 18.5q60 0 115.5 -28t86.5 -86v108h49zM279 453q-42 0 -79 -15t-64 -42t-43 -65t-16 -84
q0 -47 16 -85t43 -65t64 -42t79 -15q69 0 114.5 30.5t68.5 76.5t23 99.5t-23 99.5t-68.5 76.5t-114.5 30.5zM284 701h40l142 -132v-7h-53l-109 96l-109 -96h-53v7z" />
    <glyph glyph-name="uni1EA6" unicode="&#x1ea6;" horiz-adv-x="694" 
d="M621 0l-77 172h-418l-76 -172h-58l314 700h59l314 -700h-58zM523 222l-188 426l-188 -426h376zM315 898h40l142 -132v-7h-53l-109 96l-109 -96h-53v7zM444 880l-92 123v1h65l75 -120v-4h-48z" />
    <glyph glyph-name="uni1EA7" unicode="&#x1ea7;" horiz-adv-x="608" 
d="M350 730l-92 123v1h65l75 -120v-4h-48zM530 494v-494h-49v105q-36 -58 -89 -85.5t-113 -27.5q-52 0 -97.5 18.5t-79.5 52.5t-54 80.5t-20 103.5t20 103.5t54 79.5t79.5 51.5t97.5 18.5q60 0 115.5 -28t86.5 -86v108h49zM279 453q-42 0 -79 -15t-64 -42t-43 -65t-16 -84
q0 -47 16 -85t43 -65t64 -42t79 -15q69 0 114.5 30.5t68.5 76.5t23 99.5t-23 99.5t-68.5 76.5t-114.5 30.5zM284 701h40l142 -132v-7h-53l-109 96l-109 -96h-53v7z" />
    <glyph glyph-name="uni1EA8" unicode="&#x1ea8;" horiz-adv-x="694" 
d="M621 0l-77 172h-418l-76 -172h-58l314 700h59l314 -700h-58zM523 222l-188 426l-188 -426h376zM315 898h40l142 -132v-7h-53l-109 96l-109 -96h-53v7zM374 1006q2 41 16 69q6 12 15.5 22.5t23.5 17t33 8t45 -5.5q34 -11 47 -36.5t11.5 -54.5t-15 -57t-32.5 -44
q-16 -14 -23 -24.5t-8 -20.5h-49q2 17 12 33.5t30 32.5q20 15 30.5 36.5t12 41.5t-7 36.5t-27.5 21.5q-15 4 -28.5 -1t-23.5 -16t-15.5 -26.5t-3.5 -32.5h-43z" />
    <glyph glyph-name="uni1EA9" unicode="&#x1ea9;" horiz-adv-x="608" 
d="M309 844q2 41 16 69q6 12 15.5 22.5t23.5 17t33 8t45 -5.5q34 -11 47 -36.5t11.5 -54.5t-15 -57t-32.5 -44q-16 -14 -23 -24.5t-8 -20.5h-49q2 17 12 33.5t30 32.5q20 15 30.5 36.5t12 41.5t-7 36.5t-27.5 21.5q-15 4 -28.5 -1t-23.5 -16t-15.5 -26.5t-3.5 -32.5h-43z
M530 494v-494h-49v105q-36 -58 -89 -85.5t-113 -27.5q-52 0 -97.5 18.5t-79.5 52.5t-54 80.5t-20 103.5t20 103.5t54 79.5t79.5 51.5t97.5 18.5q60 0 115.5 -28t86.5 -86v108h49zM279 453q-42 0 -79 -15t-64 -42t-43 -65t-16 -84q0 -47 16 -85t43 -65t64 -42t79 -15
q69 0 114.5 30.5t68.5 76.5t23 99.5t-23 99.5t-68.5 76.5t-114.5 30.5zM284 701h40l142 -132v-7h-53l-109 96l-109 -96h-53v7z" />
    <glyph glyph-name="uni1EAA" unicode="&#x1eaa;" horiz-adv-x="694" 
d="M621 0l-77 172h-418l-76 -172h-58l314 700h59l314 -700h-58zM523 222l-188 426l-188 -426h376zM315 898h40l142 -132v-7h-53l-109 96l-109 -96h-53v7zM211 943q3 22 14 37.5t26.5 23t34.5 7t37 -9.5l41 -22q18 -8 36.5 -4t24.5 30l34 -11q-2 -23 -13 -38.5t-27 -23
t-35 -6.5t-37 10l-41 22q-18 8 -36.5 3.5t-24.5 -29.5z" />
    <glyph glyph-name="uni1EAB" unicode="&#x1eab;" horiz-adv-x="608" 
d="M181 767q3 22 14 37.5t26.5 23t34.5 7t37 -9.5l41 -22q18 -8 36.5 -4t24.5 30l34 -11q-2 -23 -13 -38.5t-27 -23t-35 -6.5t-37 10l-41 22q-18 8 -36.5 3.5t-24.5 -29.5zM530 494v-494h-49v105q-36 -58 -89 -85.5t-113 -27.5q-52 0 -97.5 18.5t-79.5 52.5t-54 80.5
t-20 103.5t20 103.5t54 79.5t79.5 51.5t97.5 18.5q60 0 115.5 -28t86.5 -86v108h49zM279 453q-42 0 -79 -15t-64 -42t-43 -65t-16 -84q0 -47 16 -85t43 -65t64 -42t79 -15q69 0 114.5 30.5t68.5 76.5t23 99.5t-23 99.5t-68.5 76.5t-114.5 30.5zM284 701h40l142 -132v-7h-53
l-109 96l-109 -96h-53v7z" />
    <glyph glyph-name="uni1EAC" unicode="&#x1eac;" horiz-adv-x="694" 
d="M621 0l-77 172h-418l-76 -172h-58l314 700h59l314 -700h-58zM523 222l-188 426l-188 -426h376zM307 -88q0 19 12.5 29t27 10t27 -10t12.5 -29q0 -20 -12.5 -29.5t-27 -9.5t-27 9.5t-12.5 29.5zM327 907h40l142 -132v-7h-53l-109 96l-109 -96h-53v7z" />
    <glyph glyph-name="uni1EAD" unicode="&#x1ead;" horiz-adv-x="608" 
d="M530 494v-494h-49v105q-36 -58 -89 -85.5t-113 -27.5q-52 0 -97.5 18.5t-79.5 52.5t-54 80.5t-20 103.5t20 103.5t54 79.5t79.5 51.5t97.5 18.5q60 0 115.5 -28t86.5 -86v108h49zM279 453q-42 0 -79 -15t-64 -42t-43 -65t-16 -84q0 -47 16 -85t43 -65t64 -42t79 -15
q69 0 114.5 30.5t68.5 76.5t23 99.5t-23 99.5t-68.5 76.5t-114.5 30.5zM264 -88q0 19 12.5 29t27 10t27 -10t12.5 -29q0 -20 -12.5 -29.5t-27 -9.5t-27 9.5t-12.5 29.5zM284 701h40l142 -132v-7h-53l-109 96l-109 -96h-53v7z" />
    <glyph glyph-name="uni1EAE" unicode="&#x1eae;" horiz-adv-x="694" 
d="M621 0l-77 172h-418l-76 -172h-58l314 700h59l314 -700h-58zM523 222l-188 426l-188 -426h376zM459 906q0 -58 -33.5 -90.5t-92.5 -32.5q-61 0 -93.5 32.5t-32.5 90.5h40q0 -14 3.5 -28.5t12.5 -26.5t26 -20t44 -8q26 0 42.5 8t25.5 20t12.5 26.5t3.5 28.5h42zM310 906v4
l75 120h65v-1l-92 -123h-48z" />
    <glyph glyph-name="uni1EAF" unicode="&#x1eaf;" horiz-adv-x="608" 
d="M530 494v-494h-49v105q-36 -58 -89 -85.5t-113 -27.5q-52 0 -97.5 18.5t-79.5 52.5t-54 80.5t-20 103.5t20 103.5t54 79.5t79.5 51.5t97.5 18.5q60 0 115.5 -28t86.5 -86v108h49zM279 453q-42 0 -79 -15t-64 -42t-43 -65t-16 -84q0 -47 16 -85t43 -65t64 -42t79 -15
q69 0 114.5 30.5t68.5 76.5t23 99.5t-23 99.5t-68.5 76.5t-114.5 30.5zM430 700q0 -58 -33.5 -90.5t-92.5 -32.5q-61 0 -93.5 32.5t-32.5 90.5h40q0 -14 3.5 -28.5t12.5 -26.5t26 -20t44 -8q26 0 42.5 8t25.5 20t12.5 26.5t3.5 28.5h42zM286 714v4l75 120h65v-1l-92 -123
h-48z" />
    <glyph glyph-name="uni1EB0" unicode="&#x1eb0;" horiz-adv-x="694" 
d="M621 0l-77 172h-418l-76 -172h-58l314 700h59l314 -700h-58zM523 222l-188 426l-188 -426h376zM460 906q0 -58 -33.5 -90.5t-92.5 -32.5q-61 0 -93.5 32.5t-32.5 90.5h40q0 -14 3.5 -28.5t12.5 -26.5t26 -20t44 -8q26 0 42.5 8t25.5 20t12.5 26.5t3.5 28.5h42zM335 930
l-92 123v1h65l75 -120v-4h-48z" />
    <glyph glyph-name="uni1EB1" unicode="&#x1eb1;" horiz-adv-x="608" 
d="M530 494v-494h-49v105q-36 -58 -89 -85.5t-113 -27.5q-52 0 -97.5 18.5t-79.5 52.5t-54 80.5t-20 103.5t20 103.5t54 79.5t79.5 51.5t97.5 18.5q60 0 115.5 -28t86.5 -86v108h49zM279 453q-42 0 -79 -15t-64 -42t-43 -65t-16 -84q0 -47 16 -85t43 -65t64 -42t79 -15
q69 0 114.5 30.5t68.5 76.5t23 99.5t-23 99.5t-68.5 76.5t-114.5 30.5zM430 700q0 -58 -33.5 -90.5t-92.5 -32.5q-61 0 -93.5 32.5t-32.5 90.5h40q0 -14 3.5 -28.5t12.5 -26.5t26 -20t44 -8q26 0 42.5 8t25.5 20t12.5 26.5t3.5 28.5h42zM306 719l-92 123v1h65l75 -120v-4
h-48z" />
    <glyph glyph-name="uni1EB2" unicode="&#x1eb2;" horiz-adv-x="694" 
d="M621 0l-77 172h-418l-76 -172h-58l314 700h59l314 -700h-58zM523 222l-188 426l-188 -426h376zM459 906q0 -58 -33.5 -90.5t-92.5 -32.5q-61 0 -93.5 32.5t-32.5 90.5h40q0 -14 3.5 -28.5t12.5 -26.5t26 -20t44 -8q26 0 42.5 8t25.5 20t12.5 26.5t3.5 28.5h42zM261 1083
q2 41 16 69q6 12 15.5 22.5t23.5 17t33 8t45 -5.5q34 -11 47 -36.5t11.5 -54.5t-15 -57t-32.5 -44q-16 -14 -23 -24.5t-8 -20.5h-49q2 17 12 33.5t30 32.5q20 15 30.5 36.5t12 41.5t-7 36.5t-27.5 21.5q-15 4 -28.5 -1t-23.5 -16t-15.5 -26.5t-3.5 -32.5h-43z" />
    <glyph glyph-name="uni1EB3" unicode="&#x1eb3;" horiz-adv-x="608" 
d="M530 494v-494h-49v105q-36 -58 -89 -85.5t-113 -27.5q-52 0 -97.5 18.5t-79.5 52.5t-54 80.5t-20 103.5t20 103.5t54 79.5t79.5 51.5t97.5 18.5q60 0 115.5 -28t86.5 -86v108h49zM279 453q-42 0 -79 -15t-64 -42t-43 -65t-16 -84q0 -47 16 -85t43 -65t64 -42t79 -15
q69 0 114.5 30.5t68.5 76.5t23 99.5t-23 99.5t-68.5 76.5t-114.5 30.5zM430 700q0 -58 -33.5 -90.5t-92.5 -32.5q-61 0 -93.5 32.5t-32.5 90.5h40q0 -14 3.5 -28.5t12.5 -26.5t26 -20t44 -8q26 0 42.5 8t25.5 20t12.5 26.5t3.5 28.5h42zM213 846q2 41 16 69q6 12 15.5 22.5
t23.5 17t33 8t45 -5.5q34 -11 47 -36.5t11.5 -54.5t-15 -57t-32.5 -44q-16 -14 -23 -24.5t-8 -20.5h-49q2 17 12 33.5t30 32.5q20 15 30.5 36.5t12 41.5t-7 36.5t-27.5 21.5q-15 4 -28.5 -1t-23.5 -16t-15.5 -26.5t-3.5 -32.5h-43z" />
    <glyph glyph-name="uni1EB4" unicode="&#x1eb4;" horiz-adv-x="694" 
d="M621 0l-77 172h-418l-76 -172h-58l314 700h59l314 -700h-58zM523 222l-188 426l-188 -426h376zM461 891q0 -58 -33.5 -90.5t-92.5 -32.5q-61 0 -93.5 32.5t-32.5 90.5h40q0 -14 3.5 -28.5t12.5 -26.5t26 -20t44 -8q26 0 42.5 8t25.5 20t12.5 26.5t3.5 28.5h42zM212 943
q3 22 14 37.5t26.5 23t34.5 7t37 -9.5l41 -22q18 -8 36.5 -4t24.5 30l34 -11q-2 -23 -13 -38.5t-27 -23t-35 -6.5t-37 10l-41 22q-18 8 -36.5 3.5t-24.5 -29.5z" />
    <glyph glyph-name="uni1EB5" unicode="&#x1eb5;" horiz-adv-x="608" 
d="M530 494v-494h-49v105q-36 -58 -89 -85.5t-113 -27.5q-52 0 -97.5 18.5t-79.5 52.5t-54 80.5t-20 103.5t20 103.5t54 79.5t79.5 51.5t97.5 18.5q60 0 115.5 -28t86.5 -86v108h49zM279 453q-42 0 -79 -15t-64 -42t-43 -65t-16 -84q0 -47 16 -85t43 -65t64 -42t79 -15
q69 0 114.5 30.5t68.5 76.5t23 99.5t-23 99.5t-68.5 76.5t-114.5 30.5zM430 700q0 -58 -33.5 -90.5t-92.5 -32.5q-61 0 -93.5 32.5t-32.5 90.5h40q0 -14 3.5 -28.5t12.5 -26.5t26 -20t44 -8q26 0 42.5 8t25.5 20t12.5 26.5t3.5 28.5h42zM180 745q3 22 14 37.5t26.5 23
t34.5 7t37 -9.5l41 -22q18 -8 36.5 -4t24.5 30l34 -11q-2 -23 -13 -38.5t-27 -23t-35 -6.5t-37 10l-41 22q-18 8 -36.5 3.5t-24.5 -29.5z" />
    <glyph glyph-name="uni1EB6" unicode="&#x1eb6;" horiz-adv-x="694" 
d="M621 0l-77 172h-418l-76 -172h-58l314 700h59l314 -700h-58zM523 222l-188 426l-188 -426h376zM307 -88q0 19 12.5 29t27 10t27 -10t12.5 -29q0 -20 -12.5 -29.5t-27 -9.5t-27 9.5t-12.5 29.5zM459 906q0 -58 -33.5 -90.5t-92.5 -32.5q-61 0 -93.5 32.5t-32.5 90.5h40
q0 -14 3.5 -28.5t12.5 -26.5t26 -20t44 -8q26 0 42.5 8t25.5 20t12.5 26.5t3.5 28.5h42z" />
    <glyph glyph-name="uni1EB7" unicode="&#x1eb7;" horiz-adv-x="608" 
d="M264 -88q0 19 12.5 29t27 10t27 -10t12.5 -29q0 -20 -12.5 -29.5t-27 -9.5t-27 9.5t-12.5 29.5zM530 494v-494h-49v105q-36 -58 -89 -85.5t-113 -27.5q-52 0 -97.5 18.5t-79.5 52.5t-54 80.5t-20 103.5t20 103.5t54 79.5t79.5 51.5t97.5 18.5q60 0 115.5 -28t86.5 -86
v108h49zM279 453q-42 0 -79 -15t-64 -42t-43 -65t-16 -84q0 -47 16 -85t43 -65t64 -42t79 -15q69 0 114.5 30.5t68.5 76.5t23 99.5t-23 99.5t-68.5 76.5t-114.5 30.5zM430 700q0 -58 -33.5 -90.5t-92.5 -32.5q-61 0 -93.5 32.5t-32.5 90.5h40q0 -14 3.5 -28.5t12.5 -26.5
t26 -20t44 -8q26 0 42.5 8t25.5 20t12.5 26.5t3.5 28.5h42z" />
    <glyph glyph-name="uni1EB8" unicode="&#x1eb8;" horiz-adv-x="614" 
d="M117 377h410v-49h-410v-276h442v-52h-495v700h483v-51h-430v-272zM267 -88q0 19 12.5 29t27 10t27 -10t12.5 -29q0 -20 -12.5 -29.5t-27 -9.5t-27 9.5t-12.5 29.5z" />
    <glyph glyph-name="uni1EB9" unicode="&#x1eb9;" horiz-adv-x="594" 
d="M278 -7q-52 0 -98 17.5t-80 50.5t-53.5 80t-19.5 106q0 55 19.5 102t53.5 81t80 53t98 19t99.5 -16.5t82 -50.5t52 -86.5t10.5 -124.5h-445q4 -44 21.5 -78t44.5 -57t62 -35.5t73 -12.5q24 0 50 5t49.5 14.5t44 23.5t34.5 32l35 -28q-18 -24 -42.5 -41.5t-52.5 -29.5
t-58 -18t-60 -6zM478 267q-1 92 -55.5 141t-144.5 49q-38 0 -73 -12.5t-62 -37t-44.5 -60t-21.5 -80.5h401zM257 -88q0 19 12.5 29t27 10t27 -10t12.5 -29q0 -20 -12.5 -29.5t-27 -9.5t-27 9.5t-12.5 29.5z" />
    <glyph glyph-name="uni1EBA" unicode="&#x1eba;" horiz-adv-x="614" 
d="M117 377h410v-49h-410v-276h442v-52h-495v700h483v-51h-430v-272zM199 880q2 41 16 69q6 12 15.5 22.5t23.5 17t33 8t45 -5.5q34 -11 47 -36.5t11.5 -54.5t-15 -57t-32.5 -44q-16 -14 -23 -24.5t-8 -20.5h-49q2 17 12 33.5t30 32.5q20 15 30.5 36.5t12 41.5t-7 36.5
t-27.5 21.5q-15 4 -28.5 -1t-23.5 -16t-15.5 -26.5t-3.5 -32.5h-43z" />
    <glyph glyph-name="uni1EBB" unicode="&#x1ebb;" horiz-adv-x="594" 
d="M278 -7q-52 0 -98 17.5t-80 50.5t-53.5 80t-19.5 106q0 55 19.5 102t53.5 81t80 53t98 19t99.5 -16.5t82 -50.5t52 -86.5t10.5 -124.5h-445q4 -44 21.5 -78t44.5 -57t62 -35.5t73 -12.5q24 0 50 5t49.5 14.5t44 23.5t34.5 32l35 -28q-18 -24 -42.5 -41.5t-52.5 -29.5
t-58 -18t-60 -6zM478 267q-1 92 -55.5 141t-144.5 49q-38 0 -73 -12.5t-62 -37t-44.5 -60t-21.5 -80.5h401zM189 674q2 41 16 69q6 12 15.5 22.5t23.5 17t33 8t45 -5.5q34 -11 47 -36.5t11.5 -54.5t-15 -57t-32.5 -44q-16 -14 -23 -24.5t-8 -20.5h-49q2 17 12 33.5t30 32.5
q20 15 30.5 36.5t12 41.5t-7 36.5t-27.5 21.5q-15 4 -28.5 -1t-23.5 -16t-15.5 -26.5t-3.5 -32.5h-43z" />
    <glyph glyph-name="uni1EBC" unicode="&#x1ebc;" horiz-adv-x="614" 
d="M117 377h410v-49h-410v-276h442v-52h-495v700h483v-51h-430v-272zM183 773q3 22 14 37.5t26.5 23t34.5 7t37 -9.5l41 -22q18 -8 36.5 -4t24.5 30l34 -11q-2 -23 -13 -38.5t-27 -23t-35 -6.5t-37 10l-41 22q-18 8 -36.5 3.5t-24.5 -29.5z" />
    <glyph glyph-name="uni1EBD" unicode="&#x1ebd;" horiz-adv-x="594" 
d="M278 -7q-52 0 -98 17.5t-80 50.5t-53.5 80t-19.5 106q0 55 19.5 102t53.5 81t80 53t98 19t99.5 -16.5t82 -50.5t52 -86.5t10.5 -124.5h-445q4 -44 21.5 -78t44.5 -57t62 -35.5t73 -12.5q24 0 50 5t49.5 14.5t44 23.5t34.5 32l35 -28q-18 -24 -42.5 -41.5t-52.5 -29.5
t-58 -18t-60 -6zM478 267q-1 92 -55.5 141t-144.5 49q-38 0 -73 -12.5t-62 -37t-44.5 -60t-21.5 -80.5h401zM155 572q3 22 14 37.5t26.5 23t34.5 7t37 -9.5l41 -22q18 -8 36.5 -4t24.5 30l34 -11q-2 -23 -13 -38.5t-27 -23t-35 -6.5t-37 10l-41 22q-18 8 -36.5 3.5
t-24.5 -29.5z" />
    <glyph glyph-name="uni1EBE" unicode="&#x1ebe;" horiz-adv-x="614" 
d="M117 377h410v-49h-410v-276h442v-52h-495v700h483v-51h-430v-272zM295 912h40l142 -132v-7h-53l-109 96l-109 -96h-53v7zM400 880v4l75 120h65v-1l-92 -123h-48z" />
    <glyph glyph-name="uni1EBF" unicode="&#x1ebf;" horiz-adv-x="594" 
d="M278 -7q-52 0 -98 17.5t-80 50.5t-53.5 80t-19.5 106q0 55 19.5 102t53.5 81t80 53t98 19t99.5 -16.5t82 -50.5t52 -86.5t10.5 -124.5h-445q4 -44 21.5 -78t44.5 -57t62 -35.5t73 -12.5q24 0 50 5t49.5 14.5t44 23.5t34.5 32l35 -28q-18 -24 -42.5 -41.5t-52.5 -29.5
t-58 -18t-60 -6zM77 267h401q-1 92 -55.5 141t-144.5 49q-38 0 -73 -12.5t-62 -37t-44.5 -60t-21.5 -80.5zM266 701h40l142 -132v-7h-53l-109 96l-109 -96h-53v7zM370 730v4l75 120h65v-1l-92 -123h-48z" />
    <glyph glyph-name="uni1EC0" unicode="&#x1ec0;" horiz-adv-x="614" 
d="M117 377h410v-49h-410v-276h442v-52h-495v700h483v-51h-430v-272zM295 912h40l142 -132v-7h-53l-109 96l-109 -96h-53v7zM417 880l-92 123v1h65l75 -120v-4h-48z" />
    <glyph glyph-name="uni1EC1" unicode="&#x1ec1;" horiz-adv-x="594" 
d="M278 -7q-52 0 -98 17.5t-80 50.5t-53.5 80t-19.5 106q0 55 19.5 102t53.5 81t80 53t98 19t99.5 -16.5t82 -50.5t52 -86.5t10.5 -124.5h-445q4 -44 21.5 -78t44.5 -57t62 -35.5t73 -12.5q24 0 50 5t49.5 14.5t44 23.5t34.5 32l35 -28q-18 -24 -42.5 -41.5t-52.5 -29.5
t-58 -18t-60 -6zM77 267h401q-1 92 -55.5 141t-144.5 49q-38 0 -73 -12.5t-62 -37t-44.5 -60t-21.5 -80.5zM266 701h40l142 -132v-7h-53l-109 96l-109 -96h-53v7zM356 730l-92 123v1h65l75 -120v-4h-48z" />
    <glyph glyph-name="uni1EC2" unicode="&#x1ec2;" horiz-adv-x="614" 
d="M117 377h410v-49h-410v-276h442v-52h-495v700h483v-51h-430v-272zM295 912h40l142 -132v-7h-53l-109 96l-109 -96h-53v7zM337 1024q2 41 16 69q6 12 15.5 22.5t23.5 17t33 8t45 -5.5q34 -11 47 -36.5t11.5 -54.5t-15 -57t-32.5 -44q-16 -14 -23 -24.5t-8 -20.5h-49
q2 17 12 33.5t30 32.5q20 15 30.5 36.5t12 41.5t-7 36.5t-27.5 21.5q-15 4 -28.5 -1t-23.5 -16t-15.5 -26.5t-3.5 -32.5h-43z" />
    <glyph glyph-name="uni1EC3" unicode="&#x1ec3;" horiz-adv-x="594" 
d="M278 -7q-52 0 -98 17.5t-80 50.5t-53.5 80t-19.5 106q0 55 19.5 102t53.5 81t80 53t98 19t99.5 -16.5t82 -50.5t52 -86.5t10.5 -124.5h-445q4 -44 21.5 -78t44.5 -57t62 -35.5t73 -12.5q24 0 50 5t49.5 14.5t44 23.5t34.5 32l35 -28q-18 -24 -42.5 -41.5t-52.5 -29.5
t-58 -18t-60 -6zM77 267h401q-1 92 -55.5 141t-144.5 49q-38 0 -73 -12.5t-62 -37t-44.5 -60t-21.5 -80.5zM266 701h40l142 -132v-7h-53l-109 96l-109 -96h-53v7zM320 874q2 41 16 69q6 12 15.5 22.5t23.5 17t33 8t45 -5.5q34 -11 47 -36.5t11.5 -54.5t-15 -57t-32.5 -44
q-16 -14 -23 -24.5t-8 -20.5h-49q2 17 12 33.5t30 32.5q20 15 30.5 36.5t12 41.5t-7 36.5t-27.5 21.5q-15 4 -28.5 -1t-23.5 -16t-15.5 -26.5t-3.5 -32.5h-43z" />
    <glyph glyph-name="uni1EC4" unicode="&#x1ec4;" horiz-adv-x="614" 
d="M117 377h410v-49h-410v-276h442v-52h-495v700h483v-51h-430v-272zM295 912h40l142 -132v-7h-53l-109 96l-109 -96h-53v7zM192 967q3 22 14 37.5t26.5 23t34.5 7t37 -9.5l41 -22q18 -8 36.5 -4t24.5 30l34 -11q-2 -23 -13 -38.5t-27 -23t-35 -6.5t-37 10l-41 22
q-18 8 -36.5 3.5t-24.5 -29.5z" />
    <glyph glyph-name="uni1EC5" unicode="&#x1ec5;" horiz-adv-x="594" 
d="M278 -7q-52 0 -98 17.5t-80 50.5t-53.5 80t-19.5 106q0 55 19.5 102t53.5 81t80 53t98 19t99.5 -16.5t82 -50.5t52 -86.5t10.5 -124.5h-445q4 -44 21.5 -78t44.5 -57t62 -35.5t73 -12.5q24 0 50 5t49.5 14.5t44 23.5t34.5 32l35 -28q-18 -24 -42.5 -41.5t-52.5 -29.5
t-58 -18t-60 -6zM77 267h401q-1 92 -55.5 141t-144.5 49q-38 0 -73 -12.5t-62 -37t-44.5 -60t-21.5 -80.5zM266 701h40l142 -132v-7h-53l-109 96l-109 -96h-53v7zM162 757q3 22 14 37.5t26.5 23t34.5 7t37 -9.5l41 -22q18 -8 36.5 -4t24.5 30l34 -11q-2 -23 -13 -38.5
t-27 -23t-35 -6.5t-37 10l-41 22q-18 8 -36.5 3.5t-24.5 -29.5z" />
    <glyph glyph-name="uni1EC6" unicode="&#x1ec6;" horiz-adv-x="614" 
d="M117 377h410v-49h-410v-276h442v-52h-495v700h483v-51h-430v-272zM267 -88q0 19 12.5 29t27 10t27 -10t12.5 -29q0 -20 -12.5 -29.5t-27 -9.5t-27 9.5t-12.5 29.5zM287 907h40l142 -132v-7h-53l-109 96l-109 -96h-53v7z" />
    <glyph glyph-name="uni1EC7" unicode="&#x1ec7;" horiz-adv-x="594" 
d="M278 -7q-52 0 -98 17.5t-80 50.5t-53.5 80t-19.5 106q0 55 19.5 102t53.5 81t80 53t98 19t99.5 -16.5t82 -50.5t52 -86.5t10.5 -124.5h-445q4 -44 21.5 -78t44.5 -57t62 -35.5t73 -12.5q24 0 50 5t49.5 14.5t44 23.5t34.5 32l35 -28q-18 -24 -42.5 -41.5t-52.5 -29.5
t-58 -18t-60 -6zM478 267q-1 92 -55.5 141t-144.5 49q-38 0 -73 -12.5t-62 -37t-44.5 -60t-21.5 -80.5h401zM257 -88q0 19 12.5 29t27 10t27 -10t12.5 -29q0 -20 -12.5 -29.5t-27 -9.5t-27 9.5t-12.5 29.5zM277 701h40l142 -132v-7h-53l-109 96l-109 -96h-53v7z" />
    <glyph glyph-name="uni1EC8" unicode="&#x1ec8;" horiz-adv-x="208" 
d="M65 0v700h53v-700h-53zM-2 880q2 41 16 69q6 12 15.5 22.5t23.5 17t33 8t45 -5.5q34 -11 47 -36.5t11.5 -54.5t-15 -57t-32.5 -44q-16 -14 -23 -24.5t-8 -20.5h-49q2 17 12 33.5t30 32.5q20 15 30.5 36.5t12 41.5t-7 36.5t-27.5 21.5q-15 4 -28.5 -1t-23.5 -16
t-15.5 -26.5t-3.5 -32.5h-43z" />
    <glyph glyph-name="uni1EC9" unicode="&#x1ec9;" horiz-adv-x="189" 
d="M104 496v-496h-49v496h49zM-13 674q2 41 16 69q6 12 15.5 22.5t23.5 17t33 8t45 -5.5q34 -11 47 -36.5t11.5 -54.5t-15 -57t-32.5 -44q-16 -14 -23 -24.5t-8 -20.5h-49q2 17 12 33.5t30 32.5q20 15 30.5 36.5t12 41.5t-7 36.5t-27.5 21.5q-15 4 -28.5 -1t-23.5 -16
t-15.5 -26.5t-3.5 -32.5h-43z" />
    <glyph glyph-name="uni1ECA" unicode="&#x1eca;" horiz-adv-x="208" 
d="M65 0v700h53v-700h-53zM53 -88q0 19 12.5 29t27 10t27 -10t12.5 -29q0 -20 -12.5 -29.5t-27 -9.5t-27 9.5t-12.5 29.5z" />
    <glyph glyph-name="uni1ECB" unicode="&#x1ecb;" horiz-adv-x="189" 
d="M104 496v-496h-49v496h49zM41 655q0 19 12.5 29t27 10t27 -10t12.5 -29q0 -20 -12.5 -29.5t-27 -9.5t-27 9.5t-12.5 29.5zM39 -88q0 19 12.5 29t27 10t27 -10t12.5 -29q0 -20 -12.5 -29.5t-27 -9.5t-27 9.5t-12.5 29.5z" />
    <glyph glyph-name="uni1ECC" unicode="&#x1ecc;" horiz-adv-x="804" 
d="M387 711q88 0 154.5 -30t111 -80t66 -115.5t21.5 -136.5q0 -69 -22.5 -134t-66.5 -115.5t-110 -81t-154 -30.5t-154 30.5t-110.5 81.5t-66.5 116.5t-22 134.5q0 70 22 135.5t66 115t110 79.5t155 30zM387 661q-75 0 -131.5 -25.5t-94 -68t-56 -99t-18.5 -118.5
q0 -59 19 -115.5t56.5 -100t93.5 -70t131 -26.5t131.5 26.5t94 70t56.5 100t19 115.5q0 61 -19 117t-56.5 99t-94 69t-131.5 26zM362 -88q0 19 12.5 29t27 10t27 -10t12.5 -29q0 -20 -12.5 -29.5t-27 -9.5t-27 9.5t-12.5 29.5z" />
    <glyph glyph-name="uni1ECD" unicode="&#x1ecd;" 
d="M283 -7q-52 0 -98 17.5t-80 50t-53.5 79.5t-19.5 106t19.5 106.5t53.5 81t80 51.5t98 18t98 -18t80 -51.5t53.5 -81t19.5 -106.5t-19.5 -106t-53.5 -79.5t-80 -50t-98 -17.5zM283 41q42 0 79 14t64.5 40.5t43.5 64.5t16 86t-16 87t-43.5 66.5t-64.5 42.5t-79 15t-79 -15
t-64.5 -42.5t-43.5 -66.5t-16 -87t16 -86t43.5 -64.5t64.5 -40.5t79 -14zM245 -88q0 19 12.5 29t27 10t27 -10t12.5 -29q0 -20 -12.5 -29.5t-27 -9.5t-27 9.5t-12.5 29.5z" />
    <glyph glyph-name="uni1ECE" unicode="&#x1ece;" horiz-adv-x="804" 
d="M387 711q88 0 154.5 -30t111 -80t66 -115.5t21.5 -136.5q0 -69 -22.5 -134t-66.5 -115.5t-110 -81t-154 -30.5t-154 30.5t-110.5 81.5t-66.5 116.5t-22 134.5q0 70 22 135.5t66 115t110 79.5t155 30zM387 661q-75 0 -131.5 -25.5t-94 -68t-56 -99t-18.5 -118.5
q0 -59 19 -115.5t56.5 -100t93.5 -70t131 -26.5t131.5 26.5t94 70t56.5 100t19 115.5q0 61 -19 117t-56.5 99t-94 69t-131.5 26zM294 880q2 41 16 69q6 12 15.5 22.5t23.5 17t33 8t45 -5.5q34 -11 47 -36.5t11.5 -54.5t-15 -57t-32.5 -44q-16 -14 -23 -24.5t-8 -20.5h-49
q2 17 12 33.5t30 32.5q20 15 30.5 36.5t12 41.5t-7 36.5t-27.5 21.5q-15 4 -28.5 -1t-23.5 -16t-15.5 -26.5t-3.5 -32.5h-43z" />
    <glyph glyph-name="uni1ECF" unicode="&#x1ecf;" 
d="M283 -7q-52 0 -98 17.5t-80 50t-53.5 79.5t-19.5 106t19.5 106.5t53.5 81t80 51.5t98 18t98 -18t80 -51.5t53.5 -81t19.5 -106.5t-19.5 -106t-53.5 -79.5t-80 -50t-98 -17.5zM283 41q42 0 79 14t64.5 40.5t43.5 64.5t16 86t-16 87t-43.5 66.5t-64.5 42.5t-79 15t-79 -15
t-64.5 -42.5t-43.5 -66.5t-16 -87t16 -86t43.5 -64.5t64.5 -40.5t79 -14zM188 674q2 41 16 69q6 12 15.5 22.5t23.5 17t33 8t45 -5.5q34 -11 47 -36.5t11.5 -54.5t-15 -57t-32.5 -44q-16 -14 -23 -24.5t-8 -20.5h-49q2 17 12 33.5t30 32.5q20 15 30.5 36.5t12 41.5t-7 36.5
t-27.5 21.5q-15 4 -28.5 -1t-23.5 -16t-15.5 -26.5t-3.5 -32.5h-43z" />
    <glyph glyph-name="uni1ED0" unicode="&#x1ed0;" horiz-adv-x="804" 
d="M387 711q88 0 154.5 -30t111 -80t66 -115.5t21.5 -136.5q0 -69 -22.5 -134t-66.5 -115.5t-110 -81t-154 -30.5t-154 30.5t-110.5 81.5t-66.5 116.5t-22 134.5q0 70 22 135.5t66 115t110 79.5t155 30zM387 661q-75 0 -131.5 -25.5t-94 -68t-56 -99t-18.5 -118.5
q0 -59 19 -115.5t56.5 -100t93.5 -70t131 -26.5t131.5 26.5t94 70t56.5 100t19 115.5q0 61 -19 117t-56.5 99t-94 69t-131.5 26zM374 918h40l142 -132v-7h-53l-109 96l-109 -96h-53v7zM487 880v4l75 120h65v-1l-92 -123h-48z" />
    <glyph glyph-name="uni1ED1" unicode="&#x1ed1;" 
d="M283 -7q-52 0 -98 17.5t-80 50t-53.5 79.5t-19.5 106t19.5 106.5t53.5 81t80 51.5t98 18t98 -18t80 -51.5t53.5 -81t19.5 -106.5t-19.5 -106t-53.5 -79.5t-80 -50t-98 -17.5zM283 41q42 0 79 14t64.5 40.5t43.5 64.5t16 86t-16 87t-43.5 66.5t-64.5 42.5t-79 15t-79 -15
t-64.5 -42.5t-43.5 -66.5t-16 -87t16 -86t43.5 -64.5t64.5 -40.5t79 -14zM270 711h40l142 -132v-7h-53l-109 96l-109 -96h-53v7zM350 730v4l75 120h65v-1l-92 -123h-48z" />
    <glyph glyph-name="uni1ED2" unicode="&#x1ed2;" horiz-adv-x="804" 
d="M387 711q88 0 154.5 -30t111 -80t66 -115.5t21.5 -136.5q0 -69 -22.5 -134t-66.5 -115.5t-110 -81t-154 -30.5t-154 30.5t-110.5 81.5t-66.5 116.5t-22 134.5q0 70 22 135.5t66 115t110 79.5t155 30zM387 661q-75 0 -131.5 -25.5t-94 -68t-56 -99t-18.5 -118.5
q0 -59 19 -115.5t56.5 -100t93.5 -70t131 -26.5t131.5 26.5t94 70t56.5 100t19 115.5q0 61 -19 117t-56.5 99t-94 69t-131.5 26zM374 918h40l142 -132v-7h-53l-109 96l-109 -96h-53v7zM513 880l-92 123v1h65l75 -120v-4h-48z" />
    <glyph glyph-name="uni1ED3" unicode="&#x1ed3;" 
d="M283 -7q-52 0 -98 17.5t-80 50t-53.5 79.5t-19.5 106t19.5 106.5t53.5 81t80 51.5t98 18t98 -18t80 -51.5t53.5 -81t19.5 -106.5t-19.5 -106t-53.5 -79.5t-80 -50t-98 -17.5zM283 41q42 0 79 14t64.5 40.5t43.5 64.5t16 86t-16 87t-43.5 66.5t-64.5 42.5t-79 15t-79 -15
t-64.5 -42.5t-43.5 -66.5t-16 -87t16 -86t43.5 -64.5t64.5 -40.5t79 -14zM270 711h40l142 -132v-7h-53l-109 96l-109 -96h-53v7zM365 730l-92 123v1h65l75 -120v-4h-48z" />
    <glyph glyph-name="uni1ED4" unicode="&#x1ed4;" horiz-adv-x="804" 
d="M387 711q88 0 154.5 -30t111 -80t66 -115.5t21.5 -136.5q0 -69 -22.5 -134t-66.5 -115.5t-110 -81t-154 -30.5t-154 30.5t-110.5 81.5t-66.5 116.5t-22 134.5q0 70 22 135.5t66 115t110 79.5t155 30zM387 661q-75 0 -131.5 -25.5t-94 -68t-56 -99t-18.5 -118.5
q0 -59 19 -115.5t56.5 -100t93.5 -70t131 -26.5t131.5 26.5t94 70t56.5 100t19 115.5q0 61 -19 117t-56.5 99t-94 69t-131.5 26zM374 918h40l142 -132v-7h-53l-109 96l-109 -96h-53v7zM420 1061q2 41 16 69q6 12 15.5 22.5t23.5 17t33 8t45 -5.5q34 -11 47 -36.5t11.5 -54.5
t-15 -57t-32.5 -44q-16 -14 -23 -24.5t-8 -20.5h-49q2 17 12 33.5t30 32.5q20 15 30.5 36.5t12 41.5t-7 36.5t-27.5 21.5q-15 4 -28.5 -1t-23.5 -16t-15.5 -26.5t-3.5 -32.5h-43z" />
    <glyph glyph-name="uni1ED5" unicode="&#x1ed5;" 
d="M283 -7q-52 0 -98 17.5t-80 50t-53.5 79.5t-19.5 106t19.5 106.5t53.5 81t80 51.5t98 18t98 -18t80 -51.5t53.5 -81t19.5 -106.5t-19.5 -106t-53.5 -79.5t-80 -50t-98 -17.5zM283 41q42 0 79 14t64.5 40.5t43.5 64.5t16 86t-16 87t-43.5 66.5t-64.5 42.5t-79 15t-79 -15
t-64.5 -42.5t-43.5 -66.5t-16 -87t16 -86t43.5 -64.5t64.5 -40.5t79 -14zM270 711h40l142 -132v-7h-53l-109 96l-109 -96h-53v7zM308 844q2 41 16 69q6 12 15.5 22.5t23.5 17t33 8t45 -5.5q34 -11 47 -36.5t11.5 -54.5t-15 -57t-32.5 -44q-16 -14 -23 -24.5t-8 -20.5h-49
q2 17 12 33.5t30 32.5q20 15 30.5 36.5t12 41.5t-7 36.5t-27.5 21.5q-15 4 -28.5 -1t-23.5 -16t-15.5 -26.5t-3.5 -32.5h-43z" />
    <glyph glyph-name="uni1ED6" unicode="&#x1ed6;" horiz-adv-x="804" 
d="M387 711q88 0 154.5 -30t111 -80t66 -115.5t21.5 -136.5q0 -69 -22.5 -134t-66.5 -115.5t-110 -81t-154 -30.5t-154 30.5t-110.5 81.5t-66.5 116.5t-22 134.5q0 70 22 135.5t66 115t110 79.5t155 30zM387 661q-75 0 -131.5 -25.5t-94 -68t-56 -99t-18.5 -118.5
q0 -59 19 -115.5t56.5 -100t93.5 -70t131 -26.5t131.5 26.5t94 70t56.5 100t19 115.5q0 61 -19 117t-56.5 99t-94 69t-131.5 26zM374 890h40l142 -132v-7h-53l-109 96l-109 -96h-53v7zM270 943q3 22 14 37.5t26.5 23t34.5 7t37 -9.5l41 -22q18 -8 36.5 -4t24.5 30l34 -11
q-2 -23 -13 -38.5t-27 -23t-35 -6.5t-37 10l-41 22q-18 8 -36.5 3.5t-24.5 -29.5z" />
    <glyph glyph-name="uni1ED7" unicode="&#x1ed7;" 
d="M283 -7q-52 0 -98 17.5t-80 50t-53.5 79.5t-19.5 106t19.5 106.5t53.5 81t80 51.5t98 18t98 -18t80 -51.5t53.5 -81t19.5 -106.5t-19.5 -106t-53.5 -79.5t-80 -50t-98 -17.5zM283 41q42 0 79 14t64.5 40.5t43.5 64.5t16 86t-16 87t-43.5 66.5t-64.5 42.5t-79 15t-79 -15
t-64.5 -42.5t-43.5 -66.5t-16 -87t16 -86t43.5 -64.5t64.5 -40.5t79 -14zM270 711h40l142 -132v-7h-53l-109 96l-109 -96h-53v7zM166 759q3 22 14 37.5t26.5 23t34.5 7t37 -9.5l41 -22q18 -8 36.5 -4t24.5 30l34 -11q-2 -23 -13 -38.5t-27 -23t-35 -6.5t-37 10l-41 22
q-18 8 -36.5 3.5t-24.5 -29.5z" />
    <glyph glyph-name="uni1ED8" unicode="&#x1ed8;" horiz-adv-x="804" 
d="M362 -88q0 19 12.5 29t27 10t27 -10t12.5 -29q0 -20 -12.5 -29.5t-27 -9.5t-27 9.5t-12.5 29.5zM387 711q88 0 154.5 -30t111 -80t66 -115.5t21.5 -136.5q0 -69 -22.5 -134t-66.5 -115.5t-110 -81t-154 -30.5t-154 30.5t-110.5 81.5t-66.5 116.5t-22 134.5q0 70 22 135.5
t66 115t110 79.5t155 30zM387 661q-75 0 -131.5 -25.5t-94 -68t-56 -99t-18.5 -118.5q0 -59 19 -115.5t56.5 -100t93.5 -70t131 -26.5t131.5 26.5t94 70t56.5 100t19 115.5q0 61 -19 117t-56.5 99t-94 69t-131.5 26zM374 918h40l142 -132v-7h-53l-109 96l-109 -96h-53v7z
" />
    <glyph glyph-name="uni1ED9" unicode="&#x1ed9;" 
d="M245 -88q0 19 12.5 29t27 10t27 -10t12.5 -29q0 -20 -12.5 -29.5t-27 -9.5t-27 9.5t-12.5 29.5zM283 -7q-52 0 -98 17.5t-80 50t-53.5 79.5t-19.5 106t19.5 106.5t53.5 81t80 51.5t98 18t98 -18t80 -51.5t53.5 -81t19.5 -106.5t-19.5 -106t-53.5 -79.5t-80 -50t-98 -17.5
zM283 41q42 0 79 14t64.5 40.5t43.5 64.5t16 86t-16 87t-43.5 66.5t-64.5 42.5t-79 15t-79 -15t-64.5 -42.5t-43.5 -66.5t-16 -87t16 -86t43.5 -64.5t64.5 -40.5t79 -14zM270 711h40l142 -132v-7h-53l-109 96l-109 -96h-53v7z" />
    <glyph glyph-name="uni1EDA" unicode="&#x1eda;" horiz-adv-x="804" 
d="M387 711q95 0 163.5 -34t112.5 -90q4 1 7.5 1t8.5 1q16 1 23 9.5t8 16.5v85h50v-88q0 -19 -7 -31.5t-17.5 -20t-22.5 -11.5t-21 -5q24 -43 36 -92.5t12 -102.5q0 -69 -22.5 -134t-66.5 -115.5t-110 -81t-154 -30.5t-154 30.5t-110.5 81.5t-66.5 116.5t-22 134.5
q0 70 22 135.5t66 115t110 79.5t155 30zM387 661q-75 0 -131.5 -25.5t-94 -68t-56 -99t-18.5 -118.5q0 -59 19 -115.5t56.5 -100t93.5 -70t131 -26.5t131.5 26.5t94 70t56.5 100t19 115.5q0 61 -19 117t-56.5 99t-94 69t-131.5 26zM359 783v4l75 120h65v-1l-92 -123h-48z
" />
    <glyph glyph-name="uni1EDB" unicode="&#x1edb;" 
d="M283 -7q-52 0 -98 17.5t-80 50t-53.5 79.5t-19.5 106t19.5 106.5t53.5 81t80 51.5t98 18q65 0 118.5 -27t87.5 -77h3q16 0 22.5 9t8.5 17v70h50v-73q0 -17 -6 -29t-15 -20t-19.5 -12t-19.5 -6q10 -24 15.5 -51.5t5.5 -57.5q0 -59 -19.5 -106t-53.5 -79.5t-80 -50
t-98 -17.5zM283 41q42 0 79 14t64.5 40.5t43.5 64.5t16 86t-16 87t-43.5 66.5t-64.5 42.5t-79 15t-79 -15t-64.5 -42.5t-43.5 -66.5t-16 -87t16 -86t43.5 -64.5t64.5 -40.5t79 -14zM251 580v4l75 120h65v-1l-92 -123h-48z" />
    <glyph glyph-name="uni1EDC" unicode="&#x1edc;" horiz-adv-x="804" 
d="M387 711q95 0 163.5 -34t112.5 -90q4 1 7.5 1t8.5 1q16 1 23 9.5t8 16.5v85h50v-88q0 -19 -7 -31.5t-17.5 -20t-22.5 -11.5t-21 -5q24 -43 36 -92.5t12 -102.5q0 -69 -22.5 -134t-66.5 -115.5t-110 -81t-154 -30.5t-154 30.5t-110.5 81.5t-66.5 116.5t-22 134.5
q0 70 22 135.5t66 115t110 79.5t155 30zM387 661q-75 0 -131.5 -25.5t-94 -68t-56 -99t-18.5 -118.5q0 -59 19 -115.5t56.5 -100t93.5 -70t131 -26.5t131.5 26.5t94 70t56.5 100t19 115.5q0 61 -19 117t-56.5 99t-94 69t-131.5 26zM373 783l-92 123v1h65l75 -120v-4h-48z
" />
    <glyph glyph-name="uni1EDD" unicode="&#x1edd;" 
d="M283 -7q-52 0 -98 17.5t-80 50t-53.5 79.5t-19.5 106t19.5 106.5t53.5 81t80 51.5t98 18q65 0 118.5 -27t87.5 -77h3q16 0 22.5 9t8.5 17v70h50v-73q0 -17 -6 -29t-15 -20t-19.5 -12t-19.5 -6q10 -24 15.5 -51.5t5.5 -57.5q0 -59 -19.5 -106t-53.5 -79.5t-80 -50
t-98 -17.5zM283 41q42 0 79 14t64.5 40.5t43.5 64.5t16 86t-16 87t-43.5 66.5t-64.5 42.5t-79 15t-79 -15t-64.5 -42.5t-43.5 -66.5t-16 -87t16 -86t43.5 -64.5t64.5 -40.5t79 -14zM276 586l-92 123v1h65l75 -120v-4h-48z" />
    <glyph glyph-name="uni1EDE" unicode="&#x1ede;" horiz-adv-x="804" 
d="M387 711q95 0 163.5 -34t112.5 -90q4 1 7.5 1t8.5 1q16 1 23 9.5t8 16.5v85h50v-88q0 -19 -7 -31.5t-17.5 -20t-22.5 -11.5t-21 -5q24 -43 36 -92.5t12 -102.5q0 -69 -22.5 -134t-66.5 -115.5t-110 -81t-154 -30.5t-154 30.5t-110.5 81.5t-66.5 116.5t-22 134.5
q0 70 22 135.5t66 115t110 79.5t155 30zM387 661q-75 0 -131.5 -25.5t-94 -68t-56 -99t-18.5 -118.5q0 -59 19 -115.5t56.5 -100t93.5 -70t131 -26.5t131.5 26.5t94 70t56.5 100t19 115.5q0 61 -19 117t-56.5 99t-94 69t-131.5 26zM294 880q2 41 16 69q6 12 15.5 22.5
t23.5 17t33 8t45 -5.5q34 -11 47 -36.5t11.5 -54.5t-15 -57t-32.5 -44q-16 -14 -23 -24.5t-8 -20.5h-49q2 17 12 33.5t30 32.5q20 15 30.5 36.5t12 41.5t-7 36.5t-27.5 21.5q-15 4 -28.5 -1t-23.5 -16t-15.5 -26.5t-3.5 -32.5h-43z" />
    <glyph glyph-name="uni1EDF" unicode="&#x1edf;" 
d="M283 -7q-52 0 -98 17.5t-80 50t-53.5 79.5t-19.5 106t19.5 106.5t53.5 81t80 51.5t98 18q65 0 118.5 -27t87.5 -77h3q16 0 22.5 9t8.5 17v70h50v-73q0 -17 -6 -29t-15 -20t-19.5 -12t-19.5 -6q10 -24 15.5 -51.5t5.5 -57.5q0 -59 -19.5 -106t-53.5 -79.5t-80 -50
t-98 -17.5zM283 41q42 0 79 14t64.5 40.5t43.5 64.5t16 86t-16 87t-43.5 66.5t-64.5 42.5t-79 15t-79 -15t-64.5 -42.5t-43.5 -66.5t-16 -87t16 -86t43.5 -64.5t64.5 -40.5t79 -14zM188 674q2 41 16 69q6 12 15.5 22.5t23.5 17t33 8t45 -5.5q34 -11 47 -36.5t11.5 -54.5
t-15 -57t-32.5 -44q-16 -14 -23 -24.5t-8 -20.5h-49q2 17 12 33.5t30 32.5q20 15 30.5 36.5t12 41.5t-7 36.5t-27.5 21.5q-15 4 -28.5 -1t-23.5 -16t-15.5 -26.5t-3.5 -32.5h-43z" />
    <glyph glyph-name="uni1EE0" unicode="&#x1ee0;" horiz-adv-x="804" 
d="M387 711q95 0 163.5 -34t112.5 -90q4 1 7.5 1t8.5 1q16 1 23 9.5t8 16.5v85h50v-88q0 -19 -7 -31.5t-17.5 -20t-22.5 -11.5t-21 -5q24 -43 36 -92.5t12 -102.5q0 -69 -22.5 -134t-66.5 -115.5t-110 -81t-154 -30.5t-154 30.5t-110.5 81.5t-66.5 116.5t-22 134.5
q0 70 22 135.5t66 115t110 79.5t155 30zM387 661q-75 0 -131.5 -25.5t-94 -68t-56 -99t-18.5 -118.5q0 -59 19 -115.5t56.5 -100t93.5 -70t131 -26.5t131.5 26.5t94 70t56.5 100t19 115.5q0 61 -19 117t-56.5 99t-94 69t-131.5 26zM262 797q3 22 14 37.5t26.5 23t34.5 7
t37 -9.5l41 -22q18 -8 36.5 -4t24.5 30l34 -11q-2 -23 -13 -38.5t-27 -23t-35 -6.5t-37 10l-41 22q-18 8 -36.5 3.5t-24.5 -29.5z" />
    <glyph glyph-name="uni1EE1" unicode="&#x1ee1;" 
d="M283 -7q-52 0 -98 17.5t-80 50t-53.5 79.5t-19.5 106t19.5 106.5t53.5 81t80 51.5t98 18q65 0 118.5 -27t87.5 -77h3q16 0 22.5 9t8.5 17v70h50v-73q0 -17 -6 -29t-15 -20t-19.5 -12t-19.5 -6q10 -24 15.5 -51.5t5.5 -57.5q0 -59 -19.5 -106t-53.5 -79.5t-80 -50
t-98 -17.5zM283 41q42 0 79 14t64.5 40.5t43.5 64.5t16 86t-16 87t-43.5 66.5t-64.5 42.5t-79 15t-79 -15t-64.5 -42.5t-43.5 -66.5t-16 -87t16 -86t43.5 -64.5t64.5 -40.5t79 -14zM164 588q3 22 14 37.5t26.5 23t34.5 7t37 -9.5l41 -22q18 -8 36.5 -4t24.5 30l34 -11
q-2 -23 -13 -38.5t-27 -23t-35 -6.5t-37 10l-41 22q-18 8 -36.5 3.5t-24.5 -29.5z" />
    <glyph glyph-name="uni1EE2" unicode="&#x1ee2;" horiz-adv-x="804" 
d="M387 711q95 0 163.5 -34t112.5 -90q4 1 7.5 1t8.5 1q16 1 23 9.5t8 16.5v85h50v-88q0 -19 -7 -31.5t-17.5 -20t-22.5 -11.5t-21 -5q24 -43 36 -92.5t12 -102.5q0 -69 -22.5 -134t-66.5 -115.5t-110 -81t-154 -30.5t-154 30.5t-110.5 81.5t-66.5 116.5t-22 134.5
q0 70 22 135.5t66 115t110 79.5t155 30zM387 661q-75 0 -131.5 -25.5t-94 -68t-56 -99t-18.5 -118.5q0 -59 19 -115.5t56.5 -100t93.5 -70t131 -26.5t131.5 26.5t94 70t56.5 100t19 115.5q0 61 -19 117t-56.5 99t-94 69t-131.5 26zM362 -88q0 19 12.5 29t27 10t27 -10
t12.5 -29q0 -20 -12.5 -29.5t-27 -9.5t-27 9.5t-12.5 29.5z" />
    <glyph glyph-name="uni1EE3" unicode="&#x1ee3;" 
d="M283 -7q-52 0 -98 17.5t-80 50t-53.5 79.5t-19.5 106t19.5 106.5t53.5 81t80 51.5t98 18q65 0 118.5 -27t87.5 -77h3q16 0 22.5 9t8.5 17v70h50v-73q0 -17 -6 -29t-15 -20t-19.5 -12t-19.5 -6q10 -24 15.5 -51.5t5.5 -57.5q0 -59 -19.5 -106t-53.5 -79.5t-80 -50
t-98 -17.5zM283 41q42 0 79 14t64.5 40.5t43.5 64.5t16 86t-16 87t-43.5 66.5t-64.5 42.5t-79 15t-79 -15t-64.5 -42.5t-43.5 -66.5t-16 -87t16 -86t43.5 -64.5t64.5 -40.5t79 -14zM256 -88q0 19 12.5 29t27 10t27 -10t12.5 -29q0 -20 -12.5 -29.5t-27 -9.5t-27 9.5
t-12.5 29.5z" />
    <glyph glyph-name="uni1EE4" unicode="&#x1ee4;" horiz-adv-x="683" 
d="M600 700v-435q0 -91 -39.5 -152.5t-99.5 -92t-129 -30.5t-129 30.5t-99.5 91.5t-39.5 153v435h53v-435q0 -75 32 -125t79.5 -75t103.5 -25t103.5 25t79.5 75t32 125v435h53zM302 -88q0 19 12.5 29t27 10t27 -10t12.5 -29q0 -20 -12.5 -29.5t-27 -9.5t-27 9.5t-12.5 29.5z
" />
    <glyph glyph-name="uni1EE5" unicode="&#x1ee5;" horiz-adv-x="575" 
d="M453 0v89q-29 -51 -76.5 -73.5t-99.5 -23.5q-50 0 -91 15t-70 43t-45.5 68.5t-16.5 91.5v285h49v-284q0 -85 47.5 -128.5t128.5 -42.5q38 0 70 14t55 38t35.5 57t12.5 71v275h49v-495h-48zM248 -88q0 19 12.5 29t27 10t27 -10t12.5 -29q0 -20 -12.5 -29.5t-27 -9.5
t-27 9.5t-12.5 29.5z" />
    <glyph glyph-name="uni1EE6" unicode="&#x1ee6;" horiz-adv-x="683" 
d="M600 700v-435q0 -91 -39.5 -152.5t-99.5 -92t-129 -30.5t-129 30.5t-99.5 91.5t-39.5 153v435h53v-435q0 -75 32 -125t79.5 -75t103.5 -25t103.5 25t79.5 75t32 125v435h53zM234 880q2 41 16 69q6 12 15.5 22.5t23.5 17t33 8t45 -5.5q34 -11 47 -36.5t11.5 -54.5t-15 -57
t-32.5 -44q-16 -14 -23 -24.5t-8 -20.5h-49q2 17 12 33.5t30 32.5q20 15 30.5 36.5t12 41.5t-7 36.5t-27.5 21.5q-15 4 -28.5 -1t-23.5 -16t-15.5 -26.5t-3.5 -32.5h-43z" />
    <glyph glyph-name="uni1EE7" unicode="&#x1ee7;" horiz-adv-x="575" 
d="M453 0v89q-29 -51 -76.5 -73.5t-99.5 -23.5q-50 0 -91 15t-70 43t-45.5 68.5t-16.5 91.5v285h49v-284q0 -85 47.5 -128.5t128.5 -42.5q38 0 70 14t55 38t35.5 57t12.5 71v275h49v-495h-48zM180 674q2 41 16 69q6 12 15.5 22.5t23.5 17t33 8t45 -5.5q34 -11 47 -36.5
t11.5 -54.5t-15 -57t-32.5 -44q-16 -14 -23 -24.5t-8 -20.5h-49q2 17 12 33.5t30 32.5q20 15 30.5 36.5t12 41.5t-7 36.5t-27.5 21.5q-15 4 -28.5 -1t-23.5 -16t-15.5 -26.5t-3.5 -32.5h-43z" />
    <glyph glyph-name="uni1EE8" unicode="&#x1ee8;" horiz-adv-x="683" 
d="M600 700v-112q1 0 1.5 0.5t2.5 0.5q16 0 22.5 9t8.5 17v85h50v-88q0 -27 -13.5 -41t-29.5 -20q-18 -7 -42 -8v-278q0 -91 -39.5 -152.5t-99.5 -92t-129 -30.5t-129 30.5t-99.5 91.5t-39.5 153v435h53v-435q0 -75 32 -125t79.5 -75t103.5 -25t103.5 25t79.5 75t32 125v435
h53zM291 775v4l75 120h65v-1l-92 -123h-48z" />
    <glyph glyph-name="uni1EE9" unicode="&#x1ee9;" 
d="M453 0v89q-29 -51 -76.5 -73.5t-99.5 -23.5q-50 0 -91 15t-70 43t-45.5 68.5t-16.5 91.5v285h49v-284q0 -85 47.5 -128.5t128.5 -42.5q38 0 70 14t55 38t35.5 57t12.5 71v275h49v-96h2q16 0 22.5 9t8.5 17v70h50v-73q0 -26 -12 -39.5t-27 -20.5t-28 -8t-16 -1v-353h-48z
M247 577v4l75 120h65v-1l-92 -123h-48z" />
    <glyph glyph-name="uni1EEA" unicode="&#x1eea;" horiz-adv-x="683" 
d="M600 700v-112q1 0 1.5 0.5t2.5 0.5q16 0 22.5 9t8.5 17v85h50v-88q0 -27 -13.5 -41t-29.5 -20q-18 -7 -42 -8v-278q0 -91 -39.5 -152.5t-99.5 -92t-129 -30.5t-129 30.5t-99.5 91.5t-39.5 153v435h53v-435q0 -75 32 -125t79.5 -75t103.5 -25t103.5 25t79.5 75t32 125v435
h53zM327 774l-92 123v1h65l75 -120v-4h-48z" />
    <glyph glyph-name="uni1EEB" unicode="&#x1eeb;" 
d="M453 0v89q-29 -51 -76.5 -73.5t-99.5 -23.5q-50 0 -91 15t-70 43t-45.5 68.5t-16.5 91.5v285h49v-284q0 -85 47.5 -128.5t128.5 -42.5q38 0 70 14t55 38t35.5 57t12.5 71v275h49v-96h2q16 0 22.5 9t8.5 17v70h50v-73q0 -26 -12 -39.5t-27 -20.5t-28 -8t-16 -1v-353h-48z
M277 577l-92 123v1h65l75 -120v-4h-48z" />
    <glyph glyph-name="uni1EEC" unicode="&#x1eec;" horiz-adv-x="683" 
d="M600 700v-112q1 0 1.5 0.5t2.5 0.5q16 0 22.5 9t8.5 17v85h50v-88q0 -27 -13.5 -41t-29.5 -20q-18 -7 -42 -8v-278q0 -91 -39.5 -152.5t-99.5 -92t-129 -30.5t-129 30.5t-99.5 91.5t-39.5 153v435h53v-435q0 -75 32 -125t79.5 -75t103.5 -25t103.5 25t79.5 75t32 125v435
h53zM256 880q2 41 16 69q6 12 15.5 22.5t23.5 17t33 8t45 -5.5q34 -11 47 -36.5t11.5 -54.5t-15 -57t-32.5 -44q-16 -14 -23 -24.5t-8 -20.5h-49q2 17 12 33.5t30 32.5q20 15 30.5 36.5t12 41.5t-7 36.5t-27.5 21.5q-15 4 -28.5 -1t-23.5 -16t-15.5 -26.5t-3.5 -32.5h-43z
" />
    <glyph glyph-name="uni1EED" unicode="&#x1eed;" 
d="M453 0v89q-29 -51 -76.5 -73.5t-99.5 -23.5q-50 0 -91 15t-70 43t-45.5 68.5t-16.5 91.5v285h49v-284q0 -85 47.5 -128.5t128.5 -42.5q38 0 70 14t55 38t35.5 57t12.5 71v275h49v-96h2q16 0 22.5 9t8.5 17v70h50v-73q0 -26 -12 -39.5t-27 -20.5t-28 -8t-16 -1v-353h-48z
M188 674q2 41 16 69q6 12 15.5 22.5t23.5 17t33 8t45 -5.5q34 -11 47 -36.5t11.5 -54.5t-15 -57t-32.5 -44q-16 -14 -23 -24.5t-8 -20.5h-49q2 17 12 33.5t30 32.5q20 15 30.5 36.5t12 41.5t-7 36.5t-27.5 21.5q-15 4 -28.5 -1t-23.5 -16t-15.5 -26.5t-3.5 -32.5h-43z" />
    <glyph glyph-name="uni1EEE" unicode="&#x1eee;" horiz-adv-x="683" 
d="M600 700v-112q1 0 1.5 0.5t2.5 0.5q16 0 22.5 9t8.5 17v85h50v-88q0 -27 -13.5 -41t-29.5 -20q-18 -7 -42 -8v-278q0 -91 -39.5 -152.5t-99.5 -92t-129 -30.5t-129 30.5t-99.5 91.5t-39.5 153v435h53v-435q0 -75 32 -125t79.5 -75t103.5 -25t103.5 25t79.5 75t32 125v435
h53zM217 797q3 22 14 37.5t26.5 23t34.5 7t37 -9.5l41 -22q18 -8 36.5 -4t24.5 30l34 -11q-2 -23 -13 -38.5t-27 -23t-35 -6.5t-37 10l-41 22q-18 8 -36.5 3.5t-24.5 -29.5z" />
    <glyph glyph-name="uni1EEF" unicode="&#x1eef;" 
d="M453 0v89q-29 -51 -76.5 -73.5t-99.5 -23.5q-50 0 -91 15t-70 43t-45.5 68.5t-16.5 91.5v285h49v-284q0 -85 47.5 -128.5t128.5 -42.5q38 0 70 14t55 38t35.5 57t12.5 71v275h49v-96h2q16 0 22.5 9t8.5 17v70h50v-73q0 -26 -12 -39.5t-27 -20.5t-28 -8t-16 -1v-353h-48z
M163 588q3 22 14 37.5t26.5 23t34.5 7t37 -9.5l41 -22q18 -8 36.5 -4t24.5 30l34 -11q-2 -23 -13 -38.5t-27 -23t-35 -6.5t-37 10l-41 22q-18 8 -36.5 3.5t-24.5 -29.5z" />
    <glyph glyph-name="uni1EF0" unicode="&#x1ef0;" horiz-adv-x="683" 
d="M600 700v-112q1 0 1.5 0.5t2.5 0.5q16 0 22.5 9t8.5 17v85h50v-88q0 -27 -13.5 -41t-29.5 -20q-18 -7 -42 -8v-278q0 -91 -39.5 -152.5t-99.5 -92t-129 -30.5t-129 30.5t-99.5 91.5t-39.5 153v435h53v-435q0 -75 32 -125t79.5 -75t103.5 -25t103.5 25t79.5 75t32 125v435
h53zM302 -88q0 19 12.5 29t27 10t27 -10t12.5 -29q0 -20 -12.5 -29.5t-27 -9.5t-27 9.5t-12.5 29.5z" />
    <glyph glyph-name="uni1EF1" unicode="&#x1ef1;" 
d="M453 0v89q-29 -51 -76.5 -73.5t-99.5 -23.5q-50 0 -91 15t-70 43t-45.5 68.5t-16.5 91.5v285h49v-284q0 -85 47.5 -128.5t128.5 -42.5q38 0 70 14t55 38t35.5 57t12.5 71v275h49v-96h2q16 0 22.5 9t8.5 17v70h50v-73q0 -26 -12 -39.5t-27 -20.5t-28 -8t-16 -1v-353h-48z
M256 -88q0 19 12.5 29t27 10t27 -10t12.5 -29q0 -20 -12.5 -29.5t-27 -9.5t-27 9.5t-12.5 29.5z" />
    <glyph glyph-name="Ygrave" unicode="&#x1ef2;" horiz-adv-x="639" 
d="M277 280l-273 419v1h63l237 -368l238 368h63v-1l-274 -419v-280h-54v280zM323 750l-92 123v1h65l75 -120v-4h-48z" />
    <glyph glyph-name="ygrave" unicode="&#x1ef3;" horiz-adv-x="517" 
d="M477 494l-301 -700h-52l91 212l-198 488h53l115 -292l58 -143l57 144l124 291h53zM247 533l-92 123v1h65l75 -120v-4h-48z" />
    <glyph glyph-name="uni1EF4" unicode="&#x1ef4;" horiz-adv-x="639" 
d="M277 280l-273 419v1h63l237 -368l238 368h63v-1l-274 -419v-280h-54v280zM263 -88q0 19 12.5 29t27 10t27 -10t12.5 -29q0 -20 -12.5 -29.5t-27 -9.5t-27 9.5t-12.5 29.5z" />
    <glyph glyph-name="uni1EF5" unicode="&#x1ef5;" horiz-adv-x="517" 
d="M477 494l-301 -700h-52l91 212l-198 488h53l115 -292l58 -143l57 144l124 291h53zM233 -160q0 19 12.5 29t27 10t27 -10t12.5 -29q0 -20 -12.5 -29.5t-27 -9.5t-27 9.5t-12.5 29.5z" />
    <glyph glyph-name="uni1EF6" unicode="&#x1ef6;" horiz-adv-x="639" 
d="M277 280l-273 419v1h63l237 -368l238 368h63v-1l-274 -419v-280h-54v280zM212 880q2 41 16 69q6 12 15.5 22.5t23.5 17t33 8t45 -5.5q34 -11 47 -36.5t11.5 -54.5t-15 -57t-32.5 -44q-16 -14 -23 -24.5t-8 -20.5h-49q2 17 12 33.5t30 32.5q20 15 30.5 36.5t12 41.5
t-7 36.5t-27.5 21.5q-15 4 -28.5 -1t-23.5 -16t-15.5 -26.5t-3.5 -32.5h-43z" />
    <glyph glyph-name="uni1EF7" unicode="&#x1ef7;" horiz-adv-x="517" 
d="M477 494l-301 -700h-52l91 212l-198 488h53l115 -292l58 -143l57 144l124 291h53zM151 674q2 41 16 69q6 12 15.5 22.5t23.5 17t33 8t45 -5.5q34 -11 47 -36.5t11.5 -54.5t-15 -57t-32.5 -44q-16 -14 -23 -24.5t-8 -20.5h-49q2 17 12 33.5t30 32.5q20 15 30.5 36.5
t12 41.5t-7 36.5t-27.5 21.5q-15 4 -28.5 -1t-23.5 -16t-15.5 -26.5t-3.5 -32.5h-43z" />
    <glyph glyph-name="uni1EF8" unicode="&#x1ef8;" horiz-adv-x="639" 
d="M277 280l-273 419v1h63l237 -368l238 368h63v-1l-274 -419v-280h-54v280zM195 768q3 22 14 37.5t26.5 23t34.5 7t37 -9.5l41 -22q18 -8 36.5 -4t24.5 30l34 -11q-2 -23 -13 -38.5t-27 -23t-35 -6.5t-37 10l-41 22q-18 8 -36.5 3.5t-24.5 -29.5z" />
    <glyph glyph-name="uni1EF9" unicode="&#x1ef9;" horiz-adv-x="517" 
d="M477 494l-301 -700h-52l91 212l-198 488h53l115 -292l58 -143l57 144l124 291h53zM134 576q3 22 14 37.5t26.5 23t34.5 7t37 -9.5l41 -22q18 -8 36.5 -4t24.5 30l34 -11q-2 -23 -13 -38.5t-27 -23t-35 -6.5t-37 10l-41 22q-18 8 -36.5 3.5t-24.5 -29.5z" />
    <glyph glyph-name="endash" unicode="&#x2013;" horiz-adv-x="549" 
d="M32 331h446v-51h-446v51z" />
    <glyph glyph-name="emdash" unicode="&#x2014;" horiz-adv-x="654" 
d="M39 331h553v-51h-553v51z" />
    <glyph glyph-name="quoteleft" unicode="&#x2018;" horiz-adv-x="205" 
d="M151 703l-52 -188h-57l65 188h44z" />
    <glyph glyph-name="quoteright" unicode="&#x2019;" horiz-adv-x="200" 
d="M41 513l52 188h57l-65 -188h-44z" />
    <glyph glyph-name="quotesinglbase" unicode="&#x201a;" horiz-adv-x="198" 
d="M45 30q0 19 12.5 29t27 10t27 -10t12.5 -29q0 -8 -3 -17l-40 -102h-43l31 83q-10 4 -17 13t-7 23z" />
    <glyph glyph-name="quotedblleft" unicode="&#x201c;" horiz-adv-x="344" 
d="M275 701l-52 -188h-57l65 188h44zM149 701l-52 -188h-57l65 188h44z" />
    <glyph glyph-name="quotedblright" unicode="&#x201d;" horiz-adv-x="335" 
d="M41 513l52 188h57l-65 -188h-44zM167 513l52 188h57l-65 -188h-44z" />
    <glyph glyph-name="quotedblbase" unicode="&#x201e;" horiz-adv-x="318" 
d="M45 30q0 19 12.5 29t27 10t27 -10t12.5 -29q0 -8 -3 -17l-40 -102h-43l31 83q-10 4 -17 13t-7 23zM186 30q0 19 12.5 29t27 10t27 -10t12.5 -29q0 -8 -3 -17l-40 -102h-43l31 83q-10 4 -17 13t-7 23z" />
    <glyph glyph-name="dagger" unicode="&#x2020;" horiz-adv-x="554" 
d="M503 456h-216v-588h-49v588h-216v47h216v197h49v-197h216v-47z" />
    <glyph glyph-name="daggerdbl" unicode="&#x2021;" horiz-adv-x="596" 
d="M525 456h-216v-278h216v-47h-216v-263h-49v263h-216v47h216v278h-216v47h216v197h49v-197h216v-47z" />
    <glyph glyph-name="bullet" unicode="&#x2022;" horiz-adv-x="330" 
d="M147 253q-42 0 -70 26t-28 70t28 70t70 26q41 0 68.5 -26t27.5 -70t-27.5 -70t-68.5 -26z" />
    <glyph glyph-name="ellipsis" unicode="&#x2026;" horiz-adv-x="530" 
d="M36 30q0 19 12.5 29t27 10t27 -10t12.5 -29q0 -20 -12.5 -29.5t-27 -9.5t-27 9.5t-12.5 29.5zM209 30q0 19 12.5 29t27 10t27 -10t12.5 -29q0 -20 -12.5 -29.5t-27 -9.5t-27 9.5t-12.5 29.5zM380 30q0 19 12.5 29t27 10t27 -10t12.5 -29q0 -20 -12.5 -29.5t-27 -9.5
t-27 9.5t-12.5 29.5z" />
    <glyph glyph-name="perthousand" unicode="&#x2030;" horiz-adv-x="1090" 
d="M593 703l-445 -703h-56l446 702zM173 705q51 0 85 -22t51 -54.5t17 -71t-17 -71t-51 -54.5t-85 -22t-84.5 22t-50.5 54.5t-17 71t17 71t50.5 54.5t84.5 22zM514 289q51 0 85 -22t51 -54.5t17 -71t-17 -71t-51 -54.5t-85 -22t-84.5 22t-50.5 54.5t-17 71t17 71t50.5 54.5
t84.5 22zM514 248q-36 0 -59.5 -15.5t-35 -39.5t-11.5 -51t12 -51t35.5 -39.5t59.5 -15.5q35 0 59 15.5t35.5 39.5t11.5 51t-12 51t-36 39.5t-59 15.5zM173 662q-36 0 -59.5 -15.5t-35.5 -38.5t-12 -50t12 -50t36 -38.5t60 -15.5q35 0 58.5 15.5t35 38.5t11 50t-12 50
t-35 38.5t-58.5 15.5zM877 289q51 0 85 -22t51 -54.5t17 -71t-17 -71t-51 -54.5t-85 -22t-84.5 22t-50.5 54.5t-17 71t17 71t50.5 54.5t84.5 22zM877 248q-36 0 -59.5 -15.5t-35 -39.5t-11.5 -51t12 -51t35.5 -39.5t59.5 -15.5q35 0 59 15.5t35.5 39.5t11.5 51t-12 51
t-36 39.5t-59 15.5z" />
    <glyph glyph-name="guilsinglleft" unicode="&#x2039;" horiz-adv-x="297" 
d="M30 317l138 219h52v-5l-135 -214l135 -214v-6h-52l-138 220v0z" />
    <glyph glyph-name="guilsinglright" unicode="&#x203a;" horiz-adv-x="297" 
d="M102 97h-52v6l135 214l-135 214v5h52l138 -219z" />
    <glyph glyph-name="fraction" unicode="&#x2044;" horiz-adv-x="208" 
d="M290 735l-303 -789h-49l304 789h48z" />
    <glyph glyph-name="Euro" unicode="&#x20ac;" horiz-adv-x="586" 
d="M541 14q-30 -11 -61 -16.5t-63 -5.5q-77 0 -135.5 19.5t-100.5 56t-67.5 88.5t-37.5 116h-64v46h58q-1 5 -1 14v14v15.5t1 15.5h-58v46h64q8 60 33.5 112.5t68 90.5t102.5 60t137 22q25 0 50 -4t49 -11l-11 -43q-44 12 -88 12q-128 0 -198 -62t-89 -177h273l-13 -46h-267
q-1 -7 -1 -14.5v-14.5v-15t1 -15h253l-10 -46h-236q17 -111 88 -170.5t199 -59.5q56 0 110 20z" />
    <glyph glyph-name="trademark" unicode="&#x2122;" horiz-adv-x="758" 
d="M142 660h-112v40h273v-40h-114v-240h-47v240zM357 700h44l115 -147l116 147h42v-280h-47v202l-108 -132h-9l-106 136v-206h-47v280z" />
    <glyph glyph-name="minus" unicode="&#x2212;" horiz-adv-x="498" 
d="M41 364h375v-51h-375v51z" />
    <glyph glyph-name="fi" unicode="&#xfb01;" horiz-adv-x="480" 
d="M403 494v-494h-49v451h-200v-451h-48v451h-101v43h101v40q0 65 30 106t75 57.5t96.5 8t94.5 -42.5l-22 -37q-27 21 -66 31t-74.5 2t-60.5 -37.5t-25 -87.5v-40h249z" />
    <glyph glyph-name="fl" unicode="&#xfb02;" horiz-adv-x="465" 
d="M375 0h-49v637q-15 11 -34.5 16t-39.5 5q-47 0 -72.5 -26.5t-25.5 -97.5v-44h127v-42h-127v-448h-48v448h-101v42h101v44q0 81 33 125t115 44q10 0 24 -1.5t30 -6.5t33.5 -14.5t33.5 -24.5v-656z" />
    <glyph glyph-name="glyph161" horiz-adv-x="0" 
 />
    </font>
</defs>
</svg>
