<?xml version="1.0" standalone="no"?>
<!DOCTYPE svg PUBLIC "-//W3C//DTD SVG 1.1//EN" "http://www.w3.org/Graphics/SVG/1.1/DTD/svg11.dtd" >
<svg xmlns="http://www.w3.org/2000/svg" xmlns:xlink="http://www.w3.org/1999/xlink" version="1.1">
<metadata>
Created by FontForge 20170731 at Fri Jan 25 00:35:37 2013
 By Aleksey,,,
Copyright (c) 2010 by Svetoslav Simov. All rights reserved.
</metadata>
<defs>
<font id="UVFNexaBold" horiz-adv-x="749" >
  <font-face 
    font-family="UVF Nexa Bold"
    font-weight="700"
    font-stretch="normal"
    units-per-em="1000"
    panose-1="2 0 0 0 0 0 0 0 0 0"
    ascent="750"
    descent="-250"
    x-height="493"
    cap-height="700"
    bbox="-167 -308 1106 1208.33"
    underline-thickness="50"
    underline-position="-150"
    unicode-range="U+0020-FB02"
  />
<missing-glyph horiz-adv-x="202" 
 />
    <glyph glyph-name="fi" unicode="fi" horiz-adv-x="568" 
d="M469 493v-493h-122v389h-137v-389h-122v389h-92v104h92v26q0 70 37 116t94 66t126 12.5t134 -45.5l-45 -91q-41 25 -81 32.5t-71.5 -1t-51.5 -31t-20 -58.5v-26h259z" />
    <glyph glyph-name="fl" unicode="fl" horiz-adv-x="570" 
d="M80 0v379h-86v107h86v33q0 49 15.5 85.5t41.5 60.5t60 35.5t71 11.5h24.5t44 -5t60 -17t73.5 -35v-655h-121v597q-23 12 -39 15t-34 3q-32 0 -53 -25.5t-21 -70.5v-33h105v-107h-105v-379h-122z" />
    <glyph glyph-name=".notdef" horiz-adv-x="202" 
 />
    <glyph glyph-name=".null" horiz-adv-x="0" 
 />
    <glyph glyph-name="nonmarkingreturn" horiz-adv-x="202" 
 />
    <glyph glyph-name="space" unicode=" " horiz-adv-x="202" 
 />
    <glyph glyph-name="space" unicode="&#xa0;" horiz-adv-x="202" 
 />
    <glyph glyph-name="exclam" unicode="!" horiz-adv-x="297" 
d="M205 699v-516h-131v516h131zM60 72q0 40 25 59.5t55 19.5t55 -19.5t25 -59.5q0 -39 -25 -59t-55 -20t-55 20t-25 59z" />
    <glyph glyph-name="quotedbl" unicode="&#x22;" horiz-adv-x="434" 
d="M175 698v-268h-111v268h111zM354 698v-268h-112v268h112z" />
    <glyph glyph-name="numbersign" unicode="#" horiz-adv-x="721" 
d="M364 700l-37 -150h109l38 150h133l-37 -150h72v-116h-101l-47 -182h79v-117h-106l-33 -135h-134l33 135h-110l-33 -135h-133l33 135h-76v117h106l46 183h-83v115h110l37 150h134zM292 443l-50 -198h126l50 198h-126z" />
    <glyph glyph-name="dollar" unicode="$" horiz-adv-x="777" 
d="M526 532q-10 16 -28 30t-40.5 24t-48.5 16t-52 6q-31 0 -60 -5t-51 -16t-35 -29t-13 -44q0 -25 13.5 -40.5t36.5 -24.5t52 -14t61 -9q55 -7 109 -17.5t97 -33.5t69.5 -63t26.5 -106q0 -51 -19.5 -90.5t-52.5 -67t-76 -43.5t-89 -19v-100h-127v95q-42 4 -81.5 15.5
t-74 32.5t-62 51.5t-45.5 71.5l118 50q10 -24 30.5 -43.5t47.5 -33t58.5 -21t62.5 -7.5q34 0 65 6t55 19t38.5 34t14.5 50q0 25 -14.5 42t-38.5 29t-56 19t-67 11q-54 6 -104.5 15.5t-90.5 31.5t-64 60t-24 100q0 49 20 85.5t52.5 61t74 39t85.5 19.5v87h127v-87
q32 -5 62 -14t57 -25t49.5 -40t39.5 -58z" />
    <glyph glyph-name="percent" unicode="%" horiz-adv-x="774" 
d="M191 713q54 0 90.5 -23.5t54.5 -58t18 -75.5t-18 -75.5t-54.5 -58t-90.5 -23.5t-90.5 23.5t-54.5 58t-18 75.5t18 75.5t54.5 58t90.5 23.5zM679 701l-460 -702h-142l461 702h141zM571 307q54 0 90.5 -23.5t54.5 -58t18 -75.5t-18 -75.5t-54.5 -58t-90.5 -23.5t-90.5 23.5
t-54.5 58t-18 75.5t18 75.5t54.5 58t90.5 23.5zM571 215q-32 0 -48.5 -20.5t-16.5 -45t16.5 -45t48.5 -20.5t48 20.5t16 45t-16 45t-48 20.5zM191 622q-32 0 -48.5 -20.5t-16.5 -45t16.5 -45t48.5 -20.5t48 20.5t16 45t-16 45t-48 20.5z" />
    <glyph glyph-name="ampersand" unicode="&#x26;" horiz-adv-x="725" 
d="M326 306q-36 0 -62.5 -9t-44 -22.5t-25.5 -30t-8 -32.5q0 -28 12.5 -47.5t33 -32t47 -18t53.5 -5.5q18 0 43 5t48 16.5t39 29.5t16 45v101h-152zM603 204q0 -31 14.5 -53.5t48.5 -22.5v-131q-20 0 -39.5 3t-37.5 13t-32.5 28t-22.5 48q-17 -28 -40 -47t-49.5 -30
t-54.5 -16t-56 -5q-57 0 -107.5 10.5t-88.5 36t-60 68t-22 107.5q0 22 7.5 44.5t22 42.5t34.5 35.5t44 23.5q-24 7 -41.5 22.5t-29 35t-17.5 41.5t-6 43q0 56 24.5 95.5t62.5 65t85.5 37.5t94.5 12q46 0 91.5 -9.5t82 -32.5t59.5 -61t23 -95h-125q0 24 -11 40.5t-29.5 26.5
t-42.5 14.5t-51 4.5q-39 0 -65 -9.5t-42 -24t-22.5 -32t-6.5 -32.5q0 -27 14.5 -44.5t35.5 -28t44 -14.5t41 -4h328v-104h-58v-102z" />
    <glyph glyph-name="quotesingle" unicode="'" horiz-adv-x="214" 
d="M156 699v-268h-111v268h111z" />
    <glyph glyph-name="parenleft" unicode="(" horiz-adv-x="346" 
d="M325 693q-85 -68 -127.5 -162.5t-42.5 -201.5q0 -227 170 -361l-66 -89q-59 39 -102 90t-71.5 110t-42.5 123t-14 127t15 125.5t44 120.5t73 109.5t103 90.5z" />
    <glyph glyph-name="parenright" unicode=")" horiz-adv-x="355" 
d="M73 775q58 -39 102.5 -90.5t73.5 -109.5t44 -120.5t15 -125.5t-14 -127t-42.5 -123t-72 -110t-101.5 -90l-64 91q168 132 168 359q0 107 -42.5 201.5t-127.5 162.5z" />
    <glyph glyph-name="asterisk" unicode="*" horiz-adv-x="343" 
d="M218 411l-60 87l-59 -87l-76 56l66 78l-94 19l28 93l92 -35l-5 94h95l-10 -96l98 37l26 -93l-96 -19l70 -78z" />
    <glyph glyph-name="plus" unicode="+" horiz-adv-x="468" 
d="M162 403v149h121v-149h149v-111h-149v-150h-121v150h-147v111h147z" />
    <glyph glyph-name="comma" unicode="," horiz-adv-x="249" 
d="M185 52q0 -5 -0.5 -9t-4.5 -17.5t-13.5 -42t-26.5 -81.5h-69l19 99q-21 4 -34 17.5t-13 36.5q0 34 22 51t49 16t49 -18.5t22 -51.5z" />
    <glyph glyph-name="hyphen" unicode="-" horiz-adv-x="458" 
d="M35 382h369v-112h-369v112z" />
    <glyph glyph-name="period" unicode="." horiz-adv-x="242" 
d="M37 63q0 36 22.5 53.5t49.5 17.5t49.5 -17.5t22.5 -53.5t-22.5 -53.5t-49.5 -17.5t-49.5 17.5t-22.5 53.5z" />
    <glyph glyph-name="slash" unicode="/" horiz-adv-x="455" 
d="M449 766l-334 -848h-127l333 848h128z" />
    <glyph glyph-name="zero" unicode="0" horiz-adv-x="696" 
d="M161 300q0 -64 26 -106t65 -63.5t85 -21.5t85 21.5t65 63.5t26 106v101q0 62 -26 104t-65 63t-85 21.5t-85 -20.5t-65 -63t-26 -105v-101zM30 401q0 78 26.5 137t69.5 98t98 58.5t113 19.5t113 -19.5t98 -58.5t69.5 -98t26.5 -137v-101q0 -78 -26.5 -137t-69.5 -98
t-98 -58.5t-113 -19.5t-113 19.5t-98 58.5t-69.5 98t-26.5 137v101z" />
    <glyph glyph-name="one" unicode="1" horiz-adv-x="369" 
d="M9 112h105v468h-109v120h240v-588h97v-112h-333v112z" />
    <glyph glyph-name="two" unicode="2" horiz-adv-x="655" 
d="M40 497q0 55 24.5 95.5t62.5 66t86.5 38t96.5 12.5q52 0 104.5 -11.5t94 -38t67.5 -69t26 -104.5q0 -67 -23 -108.5t-62 -64.5t-90 -31t-106 -8q-22 0 -48.5 -3.5t-49.5 -13.5t-38.5 -28t-15.5 -46v-60h435v-123h-567v184q0 60 25 100.5t65.5 64.5t91 34t102.5 10
q20 0 46 2.5t49 12t39 27.5t16 48q0 28 -12 49.5t-33.5 35t-50.5 20.5t-63 7q-26 0 -51 -6.5t-45 -19t-32.5 -30.5t-12.5 -42h-131z" />
    <glyph glyph-name="three" unicode="3" horiz-adv-x="654" 
d="M196 305v108h101q27 0 53 4t47 13.5t34 26t13 40.5q0 15 -7 31.5t-23.5 30t-44 22.5t-69.5 9q-23 0 -49 -4.5t-47.5 -14.5t-35.5 -26.5t-14 -40.5h-132q0 57 25.5 96t65.5 63.5t90 35.5t98 11q49 0 98.5 -12.5t88.5 -38.5t63.5 -66t24.5 -96q0 -21 -6.5 -42.5t-19 -40
t-30.5 -33.5t-41 -22q25 -8 46 -24t36 -36t23.5 -42.5t8.5 -44.5q0 -64 -27.5 -107t-70 -68.5t-95 -36t-103.5 -10.5q-50 0 -100.5 11t-92 36.5t-67.5 66.5t-26 101h133q0 -27 16 -45.5t39.5 -30t50.5 -16.5t48 -5q25 0 52.5 5.5t50.5 18t38 32t15 47.5q0 16 -5.5 32.5
t-21.5 30t-45.5 22.5t-76.5 9h-109z" />
    <glyph glyph-name="four" unicode="4" horiz-adv-x="679" 
d="M547 699v-438h82v-128h-82v-133h-130v133h-374l-12 134l315 432h201zM417 261v324l-237 -324h237z" />
    <glyph glyph-name="five" unicode="5" horiz-adv-x="629" 
d="M558 575h-378v-123h136q56 0 107 -12t90 -39t61.5 -70t22.5 -104q0 -60 -23 -104t-61 -73t-87.5 -43.5t-102.5 -14.5q-58 0 -110 11t-91 37t-62.5 67.5t-23.5 103.5h131q0 -29 15 -47.5t37.5 -29.5t49.5 -15.5t52 -4.5q24 0 49.5 6t47 19.5t35 35t13.5 52.5
q0 30 -13 49.5t-34.5 31t-48.5 16.5t-54 5h-265v370h507v-124z" />
    <glyph glyph-name="six" unicode="6" horiz-adv-x="662" 
d="M160 485v-105q12 18 31 32t41 23t45.5 14t44.5 5q53 0 104.5 -12t92.5 -39.5t66.5 -72t25.5 -109.5q0 -58 -25.5 -101.5t-66.5 -72.5t-93 -43.5t-105 -14.5q-54 0 -106 14.5t-93.5 43.5t-67 73t-25.5 103v261q0 58 24.5 101.5t65 71.5t92.5 42t106 14q57 0 109 -11.5
t91.5 -36.5t63 -64.5t23.5 -94.5h-132q0 23 -13.5 40.5t-35 29t-49 17.5t-55.5 6q-30 0 -58.5 -7.5t-51 -22.5t-36 -37.5t-13.5 -50.5v4zM321 107q31 0 60 7t51 21t35 35.5t13 50.5t-12.5 51t-33.5 37t-50 22.5t-62 7.5t-62.5 -7.5t-52 -22.5t-35 -37t-12.5 -51t13.5 -50.5
t35.5 -35.5t51 -21t61 -7z" />
    <glyph glyph-name="seven" unicode="7" horiz-adv-x="570" 
d="M75 0l286 574h-341v126h514l7 -70l-314 -630h-152z" />
    <glyph glyph-name="eight" unicode="8" horiz-adv-x="679" 
d="M322 309q-31 0 -60 -6t-52 -18t-37.5 -31t-14.5 -45q0 -20 10.5 -39t31 -33.5t51.5 -23.5t71 -9t71 8.5t51.5 23t31 33.5t10.5 40q0 26 -13.5 45t-36 31t-52 18t-62.5 6zM20 211q0 20 7 42t20 42.5t33 37.5t47 28q-45 24 -66.5 60.5t-21.5 77.5q0 53 22.5 93t61.5 66.5
t90 40t108 13.5t108.5 -13.5t91.5 -40.5t63.5 -67t23.5 -92q0 -18 -5 -37t-16 -37t-28 -33t-41 -25q27 -11 47 -29t33 -39.5t19.5 -44.5t6.5 -43q1 -61 -24 -104.5t-67.5 -70.5t-98 -39.5t-113.5 -12.5q-57 0 -111.5 12.5t-97 39.5t-68 70t-24.5 105zM174 503
q1 -23 13.5 -41t32.5 -31t46.5 -19.5t55.5 -6.5q30 0 57 6.5t47 19.5t31.5 31t12.5 41q1 44 -40.5 71.5t-108.5 27.5q-37 0 -65 -8.5t-46.5 -23t-27.5 -32t-8 -35.5z" />
    <glyph glyph-name="nine" unicode="9" horiz-adv-x="675" 
d="M480 217v105q-12 -18 -31 -32t-41 -23t-45.5 -14t-44.5 -5q-53 0 -104.5 12t-92.5 39.5t-66.5 72t-25.5 109.5q0 58 25.5 101.5t66.5 72.5t93 43.5t105 14.5q54 0 106 -14.5t93.5 -43.5t67 -73t25.5 -103v-261q0 -59 -25 -102t-65.5 -71t-92 -42t-105.5 -14
q-57 0 -109.5 11.5t-93 36.5t-64.5 64.5t-24 94.5h132q0 -23 14 -40.5t36.5 -29t50.5 -17.5t56 -6q30 0 58.5 7.5t51 22.5t36 37t13.5 51v-4zM319 595q-31 0 -60 -7t-51 -21t-35 -35.5t-13 -50.5t12.5 -51t33.5 -37t50 -22.5t62 -7.5t62.5 7.5t52 22.5t35 37t12.5 51
t-13.5 50.5t-35.5 35.5t-51 21t-61 7z" />
    <glyph glyph-name="colon" unicode=":" horiz-adv-x="237" 
d="M45 63q0 35 22 52.5t49 17.5t49 -17.5t22 -52.5t-22 -52.5t-49 -17.5t-49 17.5t-22 52.5zM45 353q0 35 22 52.5t49 17.5t49 -17.5t22 -52.5t-22 -52.5t-49 -17.5t-49 17.5t-22 52.5z" />
    <glyph glyph-name="semicolon" unicode=";" horiz-adv-x="260" 
d="M45 353q0 35 22 52.5t49 17.5t49 -17.5t22 -52.5t-22 -52.5t-49 -17.5t-49 17.5t-22 52.5zM185 52q0 -5 -0.5 -9t-4.5 -17.5t-13.5 -42t-26.5 -81.5h-69l19 99q-21 4 -34 17.5t-13 36.5q0 34 22 51t49 16t49 -18.5t22 -51.5z" />
    <glyph glyph-name="less" unicode="&#x3c;" horiz-adv-x="387" 
d="M328 163v-6l-79 -78l-230 228v15l230 228l79 -78v-6l-158 -152z" />
    <glyph glyph-name="equal" unicode="=" horiz-adv-x="427" 
d="M20 275h365v-110h-365v110zM20 450h365v-111h-365v111z" />
    <glyph glyph-name="greater" unicode="&#x3e;" horiz-adv-x="397" 
d="M197 314l-158 152v6l79 78l230 -228v-15l-230 -228l-79 78v6z" />
    <glyph glyph-name="question" unicode="?" horiz-adv-x="620" 
d="M185 75q0 40 25 59.5t55 19.5t55 -19.5t25 -59.5q0 -39 -25 -59t-55 -20t-55 20t-25 59zM26 490q0 55 22 95.5t59 67t85 39t101 12.5t102 -12t86 -37.5t59 -65.5t21 -96q0 -54 -21.5 -86.5t-52 -52.5t-63 -32.5t-54.5 -27.5q-20 -14 -29 -36t-9 -57v-5h-132v6
q0 51 10 84.5t25.5 54.5t35 33.5t39.5 23.5q20 10 40 18t36.5 18t27 23.5t10.5 36.5q0 29 -12 47.5t-31 29t-43 14.5t-47 4q-24 0 -47.5 -6.5t-42 -19.5t-30 -31t-11.5 -42h-134z" />
    <glyph glyph-name="at" unicode="@" horiz-adv-x="955" 
d="M463 546q-57 0 -112 -19.5t-98.5 -58t-70 -95t-26.5 -130.5q0 -81 26.5 -137t69.5 -90t97 -49t109 -15q30 0 67 6t75 29l46 -87q-51 -30 -99 -40t-92 -10q-77 0 -150.5 22.5t-132 70.5t-94 122t-35.5 178q0 99 35 174t93.5 126t134.5 77t157 26q90 0 167 -24.5t134 -73.5
t89.5 -123.5t32.5 -173.5q0 -60 -12 -108t-35.5 -82t-57.5 -52.5t-78 -18.5q-15 0 -32.5 4t-32.5 15t-25.5 29t-10.5 47q-8 -23 -25.5 -39.5t-38.5 -27.5t-42.5 -16t-37.5 -5q-54 0 -101 18t-81.5 50.5t-54 78t-19.5 99.5t20 99.5t54.5 79t81 52t99.5 18.5q21 0 42 -6
t40 -16.5t34 -24.5t23 -30l8 51l94 -13v-343q0 -12 6 -17t14 -3q13 3 23.5 18t17.5 37.5t11 50t4 55.5q0 82 -22.5 138.5t-64 91t-98.5 50t-126 15.5zM460 386q-35 0 -61.5 -12t-44 -32t-26.5 -45.5t-9 -52.5t8.5 -52t26 -44.5t44 -31.5t61.5 -12q34 0 60 11.5t43 31.5
t26 46t9 56q0 28 -8.5 53t-25.5 43.5t-42.5 29.5t-60.5 11z" />
    <glyph glyph-name="A" unicode="A" 
d="M546 132h-366l-60 -132h-143l314 700h144l314 -700h-144zM363 553l-130 -298h260z" />
    <glyph glyph-name="B" unicode="B" horiz-adv-x="683" 
d="M175 123h202q20 0 43 4t42.5 13.5t32.5 25.5t13 41q0 24 -13 42t-32.5 30t-42.5 18t-43 6h-202v-180zM175 419h202q62 0 86 22.5t24 52.5q0 12 -5.5 27t-18 28t-34 22t-52.5 9h-202v-161zM377 700q52 0 96 -12t76 -36.5t50.5 -63t18.5 -91.5q0 -41 -21 -77t-70 -58
q31 -9 52 -28.5t34.5 -42.5t19.5 -46t6 -39q0 -59 -20.5 -98.5t-56 -63.5t-83.5 -34t-102 -10h-332v700h332z" />
    <glyph glyph-name="C" unicode="C" horiz-adv-x="660" 
d="M666 88q-54 -54 -122 -79t-144 -25q-98 0 -168 31t-115 81.5t-66.5 115.5t-21.5 133q0 69 22 135t68 118t116 84t165 32q72 0 137.5 -26.5t119.5 -80.5l-88 -85q-35 34 -79 50t-90 16q-63 0 -109 -21.5t-75.5 -56t-43 -78t-13.5 -87.5t13.5 -86t42.5 -76t74.5 -54.5
t110.5 -20.5q46 0 93.5 18t82.5 53z" />
    <glyph glyph-name="D" unicode="D" horiz-adv-x="703" 
d="M315 700q90 0 155.5 -29.5t108.5 -77.5t64 -110t22 -127q1 -66 -19 -130t-63 -114.5t-109.5 -81t-158.5 -30.5h-275v700h275zM171 127h144q60 0 102 20t68.5 52.5t38 73.5t10.5 84q-1 41 -14 80t-39.5 70t-67.5 49.5t-98 18.5h-144v-448z" />
    <glyph glyph-name="E" unicode="E" horiz-adv-x="624" 
d="M571 0h-524v700h524v-128h-393v-161h379v-123h-379v-158h393v-130z" />
    <glyph glyph-name="F" unicode="F" horiz-adv-x="594" 
d="M49 0v699h503v-127h-371v-191h351v-122h-351v-259h-132z" />
    <glyph glyph-name="G" unicode="G" horiz-adv-x="729" 
d="M569 529q-35 34 -83.5 52t-94.5 18q-56 0 -101 -20t-76 -55t-47.5 -82t-16.5 -101q0 -43 13 -85t42 -75t75 -53.5t111 -20.5q42 0 79 11.5t79 44.5v124h-179v118h300v-295q-52 -60 -119 -93t-160 -33q-99 0 -169 30t-114.5 79.5t-65.5 114t-21 133.5q0 74 23 142.5
t69.5 121t115.5 84t162 31.5q71 0 138.5 -26.5t121.5 -80.5z" />
    <glyph glyph-name="H" unicode="H" horiz-adv-x="732" 
d="M526 -1v283h-344v-283h-132v700h132v-295h344v295h131v-700h-131z" />
    <glyph glyph-name="I" unicode="I" horiz-adv-x="256" 
d="M50 0v700h131v-700h-131z" />
    <glyph glyph-name="J" unicode="J" horiz-adv-x="711" 
d="M636 299q0 -68 -21 -125.5t-60.5 -99t-97 -65t-129.5 -23.5q-67 0 -123.5 20t-97 58.5t-63.5 95.5t-23 131h130q0 -181 177 -181q45 0 78 14.5t55 40t32.5 60t10.5 74.5v278h-211v123h343v-401z" />
    <glyph glyph-name="K" unicode="K" horiz-adv-x="655" 
d="M611 696l-311 -335l337 -353v-8h-163l-293 310v-310h-132v700h132v-296l266 296h164v-4z" />
    <glyph glyph-name="L" unicode="L" horiz-adv-x="585" 
d="M181 700v-578h360v-122h-492v700h132z" />
    <glyph glyph-name="M" unicode="M" horiz-adv-x="866" 
d="M659 507l-228 -304h-26l-223 305v-509h-132v700h152l219 -301l219 301h151v-700h-132v508z" />
    <glyph glyph-name="N" unicode="N" horiz-adv-x="713" 
d="M509 701h132v-701h-82v-1l-368 473v-472h-132v700h107l343 -434v435z" />
    <glyph glyph-name="O" unicode="O" horiz-adv-x="785" 
d="M378 714q90 0 158 -32t113 -83.5t67 -117.5t21 -135q-1 -68 -22.5 -133t-65.5 -116t-111.5 -82t-159.5 -31t-160 30.5t-112.5 81t-66 115.5t-21.5 134t22 135.5t67 118t112.5 83.5t158.5 32zM378 594q-62 0 -106 -22.5t-72 -58.5t-40.5 -81t-11.5 -89q1 -43 14 -85.5
t40.5 -76.5t70.5 -55t105 -21t105 21t70.5 55t40 77t13.5 86q1 44 -11.5 88.5t-40.5 80.5t-71.5 58.5t-105.5 22.5z" />
    <glyph glyph-name="P" unicode="P" horiz-adv-x="676" 
d="M181 327h198q42 0 70 18.5t42 46t14 59.5t-14 59.5t-42 46t-70 18.5h-198v-248zM379 701q85 0 142.5 -36.5t86 -91.5t28.5 -119.5t-28.5 -119.5t-85.5 -91.5t-143 -36.5h-198v-206h-132v700q83 0 165 0.5t165 0.5z" />
    <glyph glyph-name="Q" unicode="Q" horiz-adv-x="782" 
d="M376 717q92 0 159.5 -30.5t111.5 -81t65.5 -115t22.5 -131.5q1 -60 -15 -119.5t-50 -108.5l83 -82l-93 -93l-85 84q-81 -52 -199 -52q-93 0 -161 31t-112 82t-65.5 116.5t-21.5 133.5q0 69 21.5 134.5t66 117t112.5 83t160 31.5zM376 598q-62 0 -106 -22.5t-71.5 -58.5
t-40.5 -80.5t-12 -88.5q1 -43 15.5 -85.5t43 -76.5t71.5 -55t100 -21q59 0 103 22.5t72.5 59t42 81.5t11.5 90q-2 42 -15 84t-40 75.5t-69.5 54.5t-104.5 21z" />
    <glyph glyph-name="R" unicode="R" horiz-adv-x="675" 
d="M670 0h-157l-204 234h-127v-234h-132v701q84 0 166.5 -0.5t166.5 -0.5q62 0 109 -19.5t79 -51.5t48 -74t16 -87q0 -36 -9 -71t-29.5 -65t-54.5 -52t-84 -32l212 -239v-9zM182 577v-224h201q31 0 54 9.5t37.5 25.5t21.5 36t7 41t-7 41t-22 36t-37.5 25.5t-53.5 9.5h-201z
" />
    <glyph glyph-name="S" unicode="S" horiz-adv-x="661" 
d="M481 531q-9 15 -25.5 29t-38 25t-48 17.5t-54.5 6.5q-74 0 -109.5 -27t-35.5 -66q0 -23 12.5 -38t34 -25t49.5 -15.5t60 -9.5q55 -7 106 -19t90 -36.5t62.5 -64.5t23.5 -103q0 -59 -24 -101t-64.5 -69t-94 -40t-111.5 -13q-54 0 -101 9t-86 29t-69 53t-49 81l110 57
q12 -29 32 -50t46 -34.5t56.5 -20t62.5 -6.5q31 0 60 5.5t51.5 18.5t36 32.5t13.5 48.5q0 25 -12 42.5t-34 30t-51.5 19.5t-64.5 11q-54 6 -103.5 18t-87.5 35.5t-61 61.5t-23 97q0 54 24 92.5t63 63t87.5 36.5t96.5 12q41 0 81.5 -6.5t77 -22.5t66.5 -43t50 -67z" />
    <glyph glyph-name="T" unicode="T" horiz-adv-x="615" 
d="M230 580h-222v120h576v-120h-222v-580h-132v580z" />
    <glyph glyph-name="U" unicode="U" horiz-adv-x="743" 
d="M663 699v-401q0 -78 -22.5 -136.5t-63 -97.5t-96 -59t-121.5 -20q-63 0 -119.5 19t-99 58t-67.5 98t-25 138v401h131v-401q0 -95 49.5 -144t131.5 -49t126.5 51t44.5 142v401h131z" />
    <glyph glyph-name="V" unicode="V" horiz-adv-x="752" 
d="M429 -3h-137l-291 703h148l211 -545l212 545h148z" />
    <glyph glyph-name="W" unicode="W" horiz-adv-x="1089" 
d="M805 0h-112l-87 220l-74 221l-73 -223l-85 -218h-112l-257 700h148l165 -505l170 505h86l175 -505l160 505h148z" />
    <glyph glyph-name="X" unicode="X" horiz-adv-x="705" 
d="M524 700h145v-6l-237 -340l244 -350v-4h-148l-179 263l-179 -263h-148v4l243 350l-236 340v6h145l175 -261z" />
    <glyph glyph-name="Y" unicode="Y" horiz-adv-x="698" 
d="M344 411l186 289h159v-6l-279 -405v-289h-132v289l-269 405v6h157z" />
    <glyph glyph-name="Z" unicode="Z" horiz-adv-x="586" 
d="M17 700h538v-62l-363 -513h363v-125h-547v76l355 500h-346v124z" />
    <glyph glyph-name="bracketleft" unicode="[" horiz-adv-x="312" 
d="M49 -107v888h241v-108h-118v-670h118v-110h-241z" />
    <glyph glyph-name="backslash" unicode="\" horiz-adv-x="457" 
d="M123 766l333 -848h-127l-334 848h128z" />
    <glyph glyph-name="bracketright" unicode="]" horiz-adv-x="323" 
d="M8 -107v110h118v670h-118v108h241v-888h-241z" />
    <glyph glyph-name="asciicircum" unicode="^" horiz-adv-x="591" 
d="M1 339l238 363h77l246 -362v-7h-134l-150 230l-151 -230h-126v6z" />
    <glyph glyph-name="underscore" unicode="_" horiz-adv-x="481" 
d="M-11 -3h472v-107h-472v107z" />
    <glyph glyph-name="grave" unicode="`" horiz-adv-x="237" 
d="M-7 699h144l74 -136v-6h-108l-110 137v5z" />
    <glyph glyph-name="a" unicode="a" horiz-adv-x="611" 
d="M431 493h117v-493h-115l-6 72q-11 -22 -29.5 -38t-40.5 -27t-45.5 -16.5t-44.5 -5.5q-55 0 -101.5 16.5t-80.5 49.5t-53 82t-19 114q0 64 20 112.5t54.5 81t81.5 48.5t101 16q50 0 93 -21.5t64 -58.5zM281 396q-30 0 -57 -10t-46.5 -29t-31 -47t-11.5 -63t11.5 -63
t31 -47.5t46.5 -29.5t57 -10q48 0 80 22t48 55.5t16 72t-16 72t-48 55.5t-80 22z" />
    <glyph glyph-name="b" unicode="b" horiz-adv-x="625" 
d="M313 391q-29 0 -55 -10.5t-45.5 -29.5t-31 -45.5t-11.5 -58.5q0 -33 11.5 -60t31 -46t45.5 -29t55 -10t54.5 10.5t44.5 29.5t30 46t11 59q0 33 -11 60t-30 45.5t-44.5 28.5t-54.5 10zM162 699v-273q11 19 30.5 34t42 25t46 15t43.5 5q54 0 100 -16.5t79.5 -49t52.5 -80.5
t19 -112q0 -61 -19.5 -109t-53.5 -81t-80.5 -50.5t-100.5 -17.5q-45 0 -87.5 17t-71.5 62l-8 -68h-114v699h122z" />
    <glyph glyph-name="c" unicode="c" horiz-adv-x="477" 
d="M463 63q-43 -42 -89 -60t-101 -18q-54 0 -101.5 16t-83 48.5t-56.5 81.5t-21 115t21 115t56.5 81.5t83 48.5t101.5 16q53 0 95 -16.5t83 -56.5l-77 -81q-22 20 -47.5 29.5t-51.5 9.5q-31 0 -57 -10.5t-45 -30t-29.5 -46.5t-10.5 -59q0 -35 11 -62t30.5 -45t44.5 -27.5
t54 -9.5t57 9t51 32z" />
    <glyph glyph-name="d" unicode="d" horiz-adv-x="618" 
d="M279 391q-29 0 -54.5 -10t-44.5 -28.5t-30 -45.5t-11 -60q0 -32 11 -59t30 -46t44.5 -29.5t54.5 -10.5t55 10t45.5 29t31 46t11.5 60q0 32 -11.5 58.5t-31 45.5t-45.5 29.5t-55 10.5zM552 699v-699h-114l-8 68q-29 -45 -71.5 -62t-87.5 -17q-54 0 -100.5 17.5t-80.5 50.5
t-53.5 81t-19.5 109q0 64 19 112t52.5 80.5t79.5 49t100 16.5q19 0 43 -5t46.5 -15t42 -25t30.5 -34v273h122z" />
    <glyph glyph-name="e" unicode="e" horiz-adv-x="583" 
d="M144 203q6 -46 44 -75.5t103 -29.5q17 0 35.5 3t36.5 9t33.5 14.5t26.5 19.5l78 -77q-20 -20 -45 -35t-52.5 -25t-57 -15t-57.5 -5q-64 0 -114 19t-85 53.5t-53.5 83t-18.5 107.5q0 56 18.5 103.5t52.5 82t82.5 53.5t108.5 19q62 0 111 -19t82 -57.5t48 -95.5t8 -133
h-385zM412 304q-6 48 -40.5 72t-87.5 24q-50 0 -87 -24t-51 -72h266z" />
    <glyph glyph-name="f" unicode="f" horiz-adv-x="403" 
d="M80 0v379h-92v107h92v33q0 49 15.5 85.5t41.5 60.5t60 35.5t71 11.5q66 0 128 -40l-45 -91q-40 26 -75 26q-32 0 -53 -21.5t-21 -66.5v-33h145v-107h-145v-379h-122z" />
    <glyph glyph-name="g" unicode="g" horiz-adv-x="552" 
d="M427 543l90 -68l-55 -70q29 -32 40.5 -68.5t11.5 -77.5q0 -23 -5 -49.5t-17 -51.5t-32 -47t-50 -36q31 -15 50.5 -33.5t31 -39.5t16 -43.5t4.5 -46.5q0 -51 -18.5 -92t-51.5 -69.5t-78 -43.5t-99 -15t-99.5 15.5t-79 44.5t-52.5 69.5t-19 90.5h121q0 -24 10.5 -43.5
t28 -33.5t41 -21.5t49.5 -7.5q53 0 89 27.5t36 78.5q0 25 -11 44t-28.5 31t-40 18t-45.5 6q-58 0 -104 17t-78.5 49t-50 78t-17.5 104t19.5 104t53.5 78.5t79.5 50t97.5 17.5q29 0 58 -5.5t55 -22.5zM265 398q-27 0 -50.5 -9.5t-41 -27.5t-27.5 -44t-10 -58t10 -57.5
t27.5 -43t41 -27t50.5 -9.5q26 0 49.5 9.5t41 27t27.5 43t10 57.5t-10 57.5t-27.5 43.5t-41 28t-49.5 10z" />
    <glyph glyph-name="h" unicode="h" horiz-adv-x="581" 
d="M162 700v-274q33 43 72.5 58.5t81.5 15.5q52 0 90.5 -17t63 -48.5t36.5 -76t12 -98.5v-260h-122v259q0 68 -31.5 98t-80.5 30q-27 0 -49.5 -10.5t-38.5 -29t-25 -43t-9 -52.5v-252h-122v700h122z" />
    <glyph glyph-name="i" unicode="i" horiz-adv-x="232" 
d="M162 495v-495h-122v495h122zM29 632q0 36 22.5 53.5t49.5 17.5t49.5 -17.5t22.5 -53.5t-22.5 -53.5t-49.5 -17.5t-49.5 17.5t-22.5 53.5z" />
    <glyph glyph-name="j" unicode="j" horiz-adv-x="224" 
d="M160 495v-600q0 -92 -40.5 -146.5t-123.5 -54.5q-27 0 -55 8t-54 25l44 95q32 -15 59 -14q30 2 39.5 24t9.5 63v600h121zM28 633q0 36 22.5 53.5t49.5 17.5t49.5 -17.5t22.5 -53.5t-22.5 -53.5t-49.5 -17.5t-49.5 17.5t-22.5 53.5z" />
    <glyph glyph-name="k" unicode="k" horiz-adv-x="515" 
d="M159 699v-404l166 198h146v-7l-201 -225l229 -252v-9h-147l-193 223v-223h-122v699h122z" />
    <glyph glyph-name="l" unicode="l" horiz-adv-x="228" 
d="M161 699v-699h-121v699h121z" />
    <glyph glyph-name="m" unicode="m" horiz-adv-x="896" 
d="M368 0v264q0 24 -6.5 46.5t-19 40t-31.5 27.5t-44 10t-44.5 -10t-33 -27.5t-20.5 -40t-7 -46.5v-264h-122v494h113l9 -60q10 19 25 32t32.5 21t36 11.5t36.5 3.5q45 0 85 -20.5t61 -71.5q33 53 75 71.5t90 18.5q106 0 157.5 -61t51.5 -173v-266h-122v266q0 24 -5.5 46
t-16.5 38.5t-28.5 26t-42.5 9.5t-44.5 -10t-33.5 -26.5t-21.5 -39t-7.5 -46.5v-264h-122z" />
    <glyph glyph-name="n" unicode="n" horiz-adv-x="590" 
d="M403 0v258q0 56 -30.5 94t-88.5 38q-28 0 -51.5 -11t-40 -30t-25.5 -44t-9 -53v-252h-121v494h109l8 -67q38 37 76.5 55.5t85.5 18.5q43 0 81.5 -16t66.5 -47t44.5 -76t16.5 -103v-259h-122z" />
    <glyph glyph-name="o" unicode="o" horiz-adv-x="574" 
d="M272 503q59 0 106.5 -20.5t81.5 -55.5t52 -81.5t18 -99.5t-17.5 -100t-51 -82t-81 -55t-107.5 -20t-107.5 20t-80.5 55t-50.5 82t-17.5 100t18 99.5t51 81.5t80 55.5t106 20.5zM273 392q-33 0 -58 -12.5t-42 -33t-25.5 -46.5t-8.5 -54t8.5 -54t25 -46.5t42 -32.5
t58.5 -12t58.5 12t42 32.5t25 46.5t8.5 54t-9.5 54t-27 46.5t-42 33t-55.5 12.5z" />
    <glyph glyph-name="p" unicode="p" horiz-adv-x="625" 
d="M313 106q31 0 57 11t44.5 30t28.5 44.5t10 54.5t-9.5 54.5t-27.5 44.5t-44 30t-59 11t-59 -11t-44 -30t-27.5 -44.5t-9.5 -54.5t10 -54.5t28.5 -44.5t44.5 -30t57 -11zM40 -206v699h114l8 -68q29 42 73.5 60.5t86.5 18.5q57 0 103.5 -20t80 -54.5t51.5 -82t18 -101.5
t-16.5 -101t-48.5 -82t-78.5 -55t-105.5 -20q-20 0 -43 3.5t-45.5 11.5t-42.5 21.5t-33 33.5v-264h-122z" />
    <glyph glyph-name="q" unicode="q" horiz-adv-x="618" 
d="M278 106q31 0 57 11t44.5 30t28.5 44.5t10 54.5t-9.5 54.5t-27.5 44.5t-44 30t-59 11t-59 -11t-44 -30t-27.5 -44.5t-9.5 -54.5t10 -54.5t28.5 -44.5t44.5 -30t57 -11zM429 -206v264q-13 -20 -33 -33.5t-42.5 -21.5t-46 -11.5t-42.5 -3.5q-59 0 -105.5 20t-78.5 55
t-48.5 82t-16.5 101t18 101.5t51.5 82t80 54.5t103.5 20q42 0 86.5 -18.5t73.5 -60.5l8 68h114v-699h-122z" />
    <glyph glyph-name="r" unicode="r" horiz-adv-x="434" 
d="M153 493l9 -57q14 23 30.5 36.5t34.5 21t36.5 10t37.5 2.5q38 0 72.5 -13.5t54.5 -33.5l-55 -106q-19 16 -38.5 24t-49.5 8q-24 0 -46 -6.5t-39.5 -21.5t-27.5 -39t-10 -58v-260h-122v493h113z" />
    <glyph glyph-name="s" unicode="s" horiz-adv-x="491" 
d="M362 362q-26 25 -56.5 34.5t-65.5 9.5q-44 0 -67 -13t-23 -36q0 -48 92 -54q35 -2 72.5 -8.5t68 -23.5t50.5 -47t20 -79q0 -33 -13.5 -62t-40 -51.5t-66 -35.5t-92.5 -13q-29 0 -58.5 3t-58 12.5t-56.5 27t-55 45.5l60 87q13 -15 33.5 -27.5t44 -21.5t47.5 -14.5t45 -5.5
q17 0 33 4t28.5 11.5t20 18.5t7.5 25q0 26 -22.5 37.5t-75.5 14.5q-35 3 -71 11.5t-65.5 26t-48.5 45.5t-19 70q0 43 20 72.5t50.5 47.5t67 26t70.5 8q58 0 103.5 -13.5t88.5 -51.5z" />
    <glyph glyph-name="t" unicode="t" horiz-adv-x="399" 
d="M212 632v-140h136v-105h-137v-213q0 -35 17.5 -52.5t46.5 -17.5q14 0 29.5 4t29.5 11l34 -104q-26 -11 -49.5 -15.5t-51.5 -5.5q-81 -3 -129 42t-48 138v213h-92v105h92v127z" />
    <glyph glyph-name="u" unicode="u" horiz-adv-x="599" 
d="M165 493v-258q0 -28 7.5 -52t22.5 -42t37.5 -28t51.5 -10q28 0 51.5 11t40 30t25.5 44t9 53v252h121v-494h-109l-8 67q-38 -38 -76.5 -56t-90.5 -18q-44 0 -81.5 16.5t-64.5 47.5t-42.5 76t-15.5 102v259h122z" />
    <glyph glyph-name="v" unicode="v" horiz-adv-x="570" 
d="M551 494l-210 -496h-132l-211 496h133l68 -163l76 -208l75 206l68 165h133z" />
    <glyph glyph-name="w" unicode="w" horiz-adv-x="912" 
d="M493 494l108 -371l113 371h135l-172 -496h-142l-51 146l-44 165l-44 -165l-51 -146h-142l-173 496h136l113 -371l107 371h107z" />
    <glyph glyph-name="x" unicode="x" horiz-adv-x="532" 
d="M354 493h146v-4l-162 -239l172 -247v-3h-146l-107 165l-107 -165h-146v3l172 247l-162 239v4h146l97 -167z" />
    <glyph glyph-name="y" unicode="y" horiz-adv-x="561" 
d="M537 493l-301 -699h-134l92 214l-197 485h142l75 -213l47 -139l51 136l90 216h135z" />
    <glyph glyph-name="z" unicode="z" horiz-adv-x="457" 
d="M422 493v-58l-227 -315h229v-120h-415v51l236 331h-218v111h395z" />
    <glyph glyph-name="braceleft" unicode="{" horiz-adv-x="338" 
d="M310 -102q-111 -20 -164 25t-53 140v140q0 14 -2 29t-9.5 27t-21 20t-37.5 8v91q24 0 37.5 8t21 20t9.5 27t2 29v140q0 95 53 140t164 25v-95q-49 13 -69 -5t-20 -71v-134q0 -23 -0.5 -43t-6.5 -36.5t-20.5 -29.5t-42.5 -21q28 -8 42.5 -21t20.5 -29.5t6.5 -36.5t0.5 -42
v-134q0 -26 3.5 -42.5t13 -25t27 -10t45.5 1.5v-95z" />
    <glyph glyph-name="bar" unicode="|" horiz-adv-x="306" 
d="M192 -84h-118v836h118v-836z" />
    <glyph glyph-name="braceright" unicode="}" horiz-adv-x="340" 
d="M-2 -7q28 -3 45 -1.5t27 10t13.5 25t3.5 42.5v134q0 22 0.5 42t6.5 36.5t20.5 29.5t42.5 21q-28 8 -42.5 21t-20.5 29.5t-6.5 36.5t-0.5 43v134q0 53 -20 71t-69 5v95q111 20 164 -25t53 -140v-140q0 -14 2 -29t9.5 -27t21 -20t37.5 -8v-91q-24 0 -37.5 -8t-21 -20
t-9.5 -27t-2 -29v-140q0 -95 -53 -140t-164 -25v95z" />
    <glyph glyph-name="asciitilde" unicode="~" horiz-adv-x="518" 
d="M492 343q-11 -33 -28.5 -61.5t-42 -47t-56 -23.5t-68.5 8q-19 6 -38 18t-37.5 23.5t-37 20t-36.5 8.5q-19 0 -37.5 -12.5t-32.5 -44.5l-82 31q10 36 27 60t37.5 39t44 21.5t47.5 6.5q28 0 51 -9t43.5 -21.5t40 -25t40.5 -19.5q27 -8 44.5 8t31.5 50z" />
    <glyph glyph-name="exclamdown" unicode="&#xa1;" horiz-adv-x="319" 
d="M75 -232v516h131v-516h-131zM220 395q0 -40 -25 -60t-55 -20t-55 20t-25 60q0 39 25 59t55 20t55 -20t25 -59z" />
    <glyph glyph-name="cent" unicode="&#xa2;" horiz-adv-x="547" 
d="M483 50q-29 -27 -62 -45t-72 -26v-70h-113v72q-44 10 -81 33.5t-63.5 56.5t-41 74.5t-14.5 88.5q0 45 14 86t39.5 74.5t62.5 57.5t84 35v73h113v-72q77 -15 133 -70l-71 -79q-20 20 -53 32t-60 12q-29 0 -54.5 -11.5t-45 -31.5t-30.5 -47.5t-11 -58.5q0 -32 11 -59
t30.5 -46.5t45 -31t54.5 -11.5q27 0 58.5 15.5t51.5 36.5z" />
    <glyph glyph-name="sterling" unicode="&#xa3;" horiz-adv-x="629" 
d="M230 480q0 -26 5 -51.5t11 -51.5h207v-111h-184q1 -17 -1 -37.5t-9.5 -40.5t-20.5 -36.5t-34 -26.5h392v-125h-552v125q50 12 72 50.5t20 90.5h-92v111h71q-6 23 -12 50t-6 51q0 111 68 172t187 61q52 0 95.5 -12t75 -37.5t49.5 -65.5t21 -96h-121q-9 95 -119 95
q-35 0 -58.5 -9.5t-37.5 -25t-20.5 -36.5t-6.5 -44z" />
    <glyph glyph-name="currency" unicode="&#xa4;" horiz-adv-x="541" 
d="M105 69l-92 91l58 57q-25 50 -23 99.5t27 96.5l-62 59l92 92l58 -59q46 20 97.5 19.5t96.5 -20.5l60 60l91 -92l-58 -58q23 -48 23.5 -99.5t-22.5 -97.5l57 -57l-90 -90l-59 58q-48 -20 -99 -19t-97 19zM260 208q25 0 45 9t33 24t20 34.5t7 40.5t-7 40.5t-20 34.5t-33 24
t-45 9q-24 0 -44 -9t-33.5 -24t-21 -34.5t-7.5 -40.5t7.5 -40.5t21 -34.5t33.5 -24t44 -9z" />
    <glyph glyph-name="yen" unicode="&#xa5;" horiz-adv-x="719" 
d="M123 212h155v51h-155v97h108l-222 334v6h157l178 -289l186 289h159v-6l-230 -334h105v-97h-154v-51h154v-95h-154v-117h-132v117h-155v95z" />
    <glyph glyph-name="brokenbar" unicode="&#xa6;" horiz-adv-x="305" 
d="M80 341v369h125v-369h-125zM205 278v-369h-125v369h125z" />
    <glyph glyph-name="section" unicode="&#xa7;" horiz-adv-x="602" 
d="M118 161q37 -40 80 -52t94 -11q24 0 47 3t40.5 9t28.5 15t12 21q1 21 -34 33t-90 11q-45 -1 -91 7t-82.5 26t-58.5 48t-20 73q1 13 6.5 28t17 28.5t27.5 25t38 18.5q-24 5 -40 17t-25.5 27t-13.5 31.5t-3 31.5q3 48 30 78.5t66.5 48t84.5 24t83 6.5q27 0 57.5 -3.5
t60.5 -11.5t56.5 -23t46.5 -37l-87 -74q-28 26 -62 33.5t-77 7.5q-24 0 -47 -2t-41 -7.5t-29 -14.5t-12 -22q-1 -14 10.5 -23.5t29.5 -15.5t39.5 -8.5t40.5 -2.5q42 0 88 -5.5t83.5 -22t60 -47t18.5 -79.5q-2 -15 -8.5 -30t-18 -28.5t-26.5 -24t-33 -15.5q23 -7 39.5 -19.5
t27 -27.5t15 -31t3.5 -29q-2 -47 -30.5 -77.5t-68.5 -48t-84.5 -24t-78.5 -6.5q-74 0 -140.5 19.5t-108.5 69.5zM424 347q1 21 -17 34.5t-45.5 20.5t-60.5 7t-61.5 -6.5t-48 -20.5t-20.5 -34t17 -32.5t45.5 -18.5t60.5 -6t61.5 6.5t48 19t20.5 30.5z" />
    <glyph glyph-name="dieresis" unicode="&#xa8;" horiz-adv-x="511" 
d="M49 655q0 35 22 52.5t48 17.5t48 -17.5t22 -52.5t-22 -52t-48 -17t-48 17t-22 52zM298 655q0 35 22 52.5t48 17.5t48 -17.5t22 -52.5t-22 -52t-48 -17t-48 17t-22 52z" />
    <glyph glyph-name="copyright" unicode="&#xa9;" horiz-adv-x="925" 
d="M456 719q87 0 154.5 -29t113 -79t69.5 -116.5t24 -140.5t-24 -140.5t-69.5 -116.5t-113 -79t-154.5 -29t-155 29t-115.5 79t-72.5 116.5t-25 140.5t25 140.5t72.5 116.5t115.5 79t155 29zM472 161q-42 0 -79 12.5t-64.5 36.5t-43.5 59.5t-16 82.5q0 46 16 82.5t43.5 61.5
t64.5 38t79 13q43 0 78 -16t65 -46l-64 -59q-17 17 -36 25t-43 8q-22 0 -42 -7t-35 -20.5t-24 -33.5t-9 -46q0 -24 9 -43t24 -32t35 -20t42 -7q26 0 44.5 9t35.5 26l65 -61q-31 -30 -65.5 -46.5t-79.5 -16.5zM194 354q0 -57 18 -106t52 -85.5t82.5 -57.5t109.5 -21t108.5 21
t80 57.5t49.5 85.5t17 106t-17 106t-49.5 85.5t-80 57.5t-108.5 21t-109.5 -21t-82.5 -57.5t-52 -85.5t-18 -106z" />
    <glyph glyph-name="ordfeminine" unicode="&#xaa;" horiz-adv-x="415" 
d="M277 700h91v-323h-90l-3 47q-7 -14 -19.5 -24.5t-27 -17.5t-30 -11t-28.5 -4q-36 0 -66.5 11t-53 32.5t-35 54t-12.5 74.5t13 74t36 53t53.5 31.5t66.5 10.5q32 0 60.5 -14t42.5 -38zM181 623q-34 0 -58 -22t-24 -62t24 -62t58 -22q27 0 45 12.5t27 31t9 40.5t-9 40.5
t-27 31t-45 12.5zM15 320h355v-87h-355v87z" />
    <glyph glyph-name="guillemotleft" unicode="&#xab;" horiz-adv-x="493" 
d="M151 539h130l-138 -221l138 -222h-130l-139 222zM327 539h130l-138 -221l138 -222h-130l-139 222z" />
    <glyph glyph-name="logicalnot" unicode="&#xac;" horiz-adv-x="468" 
d="M410 151h-105v127h-290v104h395v-231z" />
    <glyph glyph-name="registered" unicode="&#xae;" horiz-adv-x="925" 
d="M457 716q87 0 154.5 -29t113.5 -79t70 -116.5t24 -140.5t-24 -140.5t-70 -116.5t-113.5 -79t-154.5 -29t-154 29t-113 79t-70 116.5t-24 140.5t24 140.5t70 116.5t113 79t154 29zM202 351q0 -57 17.5 -106t50 -85.5t79.5 -57.5t108 -21t108.5 21t80 57.5t49.5 85.5
t17 106t-17 106t-49.5 85.5t-80 57.5t-108.5 21t-108 -21t-79.5 -57.5t-50 -85.5t-17.5 -106zM635 189v-21h-104l-87 114h-34v-114h-97v367h175q40 0 69.5 -15.5t46.5 -38.5t22.5 -51.5t-2 -54.5t-27.5 -46.5t-53 -27.5zM410 448v-84h78q21 0 32 13t11 29t-11 29t-32 13h-78
z" />
    <glyph glyph-name="degree" unicode="&#xb0;" horiz-adv-x="304" 
d="M7 595q0 31 11.5 55t30.5 40t43.5 24t49.5 8t49 -8t43 -24t30.5 -40t11.5 -55q0 -32 -11.5 -56t-30.5 -39.5t-43.5 -23.5t-49.5 -8t-49 8t-43 23.5t-30.5 39.5t-11.5 56zM142 650q-29 0 -44 -17.5t-15 -38t14.5 -38t43.5 -17.5t43.5 17.5t14.5 38t-14.5 38t-42.5 17.5z
" />
    <glyph glyph-name="plusminus" unicode="&#xb1;" horiz-adv-x="469" 
d="M20 434h143v148h122v-148h144v-114h-144v-148h-122v148h-143v114zM20 130h409v-111h-409v111z" />
    <glyph glyph-name="twosuperior" unicode="&#xb2;" horiz-adv-x="367" 
d="M33 657q0 29 13 50.5t33 35.5t45 21t51 7q67 0 110 -28t43 -91q0 -38 -15 -59t-38 -32.5t-49.5 -16.5t-49.5 -10t-38 -14t-15 -28v-13h198v-83h-290v96q0 37 15.5 57.5t38.5 32t50 16.5t50 10.5t38.5 14.5t15.5 29q0 23 -17.5 32.5t-44.5 9.5q-22 0 -38.5 -9t-17.5 -28
h-88z" />
    <glyph glyph-name="threesuperior" unicode="&#xb3;" horiz-adv-x="391" 
d="M118 551v67h53q29 0 45 6.5t17 32.5q0 4 -2.5 10.5t-9 13t-18.5 11t-31 4.5q-24 0 -42.5 -6.5t-24.5 -29.5h-78q0 30 13 51t34 34.5t47 19.5t52 6t52.5 -7t48 -21t35 -35.5t13.5 -50.5q0 -22 -12 -43.5t-36 -29.5q27 -8 42 -30.5t15 -45.5q0 -34 -15 -57t-38.5 -37
t-51.5 -20t-55 -6q-26 0 -53 6.5t-48.5 20t-35.5 35.5t-14 53h92q6 -20 23 -27.5t39 -7.5q23 0 43.5 9t20.5 29q0 17 -13 31t-50 14h-57z" />
    <glyph glyph-name="acute" unicode="&#xb4;" horiz-adv-x="239" 
d="M214 694l-110 -137h-108v6l74 136h144v-5z" />
    <glyph glyph-name="mu" unicode="&#xb5;" horiz-adv-x="587" 
d="M407 0l-12 51q-9 -19 -23 -32.5t-30.5 -22.5t-33.5 -13.5t-31 -4.5q-15 0 -31 2t-32 9t-30 21.5t-24 38.5v-265h-126v692h129v-261q0 -30 10 -53t26.5 -39t38 -24t43.5 -8t42.5 8t36.5 24.5t25.5 42.5t9.5 61v249h131v-476h-119z" />
    <glyph glyph-name="mu" unicode="&#x3bc;" horiz-adv-x="587" 
d="M407 0l-12 51q-9 -19 -23 -32.5t-30.5 -22.5t-33.5 -13.5t-31 -4.5q-15 0 -31 2t-32 9t-30 21.5t-24 38.5v-265h-126v692h129v-261q0 -30 10 -53t26.5 -39t38 -24t43.5 -8t42.5 8t36.5 24.5t25.5 42.5t9.5 61v249h131v-476h-119z" />
    <glyph glyph-name="paragraph" unicode="&#xb6;" horiz-adv-x="836" 
d="M381 -213h-132v387q-59 6 -103.5 30.5t-74.5 60.5t-45 80.5t-15 90.5q0 49 17 96.5t51.5 85t85.5 60t119 22.5h507v-124h-93v-789h-132v789h-185v-789z" />
    <glyph glyph-name="periodcentered" unicode="&#xb7;" horiz-adv-x="226" 
d="M17 331q0 25 11.5 41.5t28 25t36.5 8.5t36.5 -8.5t28 -25t11.5 -41.5t-11.5 -41.5t-28 -25t-36.5 -8.5t-36.5 8.5t-28 25t-11.5 41.5z" />
    <glyph glyph-name="cedilla" unicode="&#xb8;" horiz-adv-x="382" 
d="M86 -124q11 -15 29 -23t36.5 -8.5t33.5 6t20 21.5q4 14 -3.5 25t-21 16.5t-30 4.5t-30.5 -11l-29 23l32 94h88l-16 -51q34 -1 56 -12t33.5 -27.5t14 -36.5t-0.5 -39q-6 -29 -24 -49t-42.5 -31.5t-52.5 -13.5t-55.5 4.5t-51.5 22t-39 40.5z" />
    <glyph glyph-name="onesuperior" unicode="&#xb9;" horiz-adv-x="284" 
d="M53 474h50v215h-46v75h134v-290h43v-78h-181v78z" />
    <glyph glyph-name="ordmasculine" unicode="&#xba;" horiz-adv-x="374" 
d="M101 551q0 -40 24 -60t52.5 -20t52.5 20t24 60v55q0 39 -24 59t-52.5 20t-52.5 -19.5t-24 -59.5v-55zM15 607q0 55 24 91.5t60.5 54.5t79 18t79 -18t60.5 -54.5t24 -91.5v-54q0 -55 -24 -91.5t-60.5 -54.5t-79 -18t-79 18t-60.5 54.5t-24 91.5v54z" />
    <glyph glyph-name="guillemotright" unicode="&#xbb;" horiz-adv-x="460" 
d="M442 318l-139 -222h-130l138 222l-138 221h130zM266 318l-139 -222h-130l138 222l-138 221h130z" />
    <glyph glyph-name="onequarter" unicode="&#xbc;" horiz-adv-x="765" 
d="M683 367v-225h34v-77h-34v-65h-88v65h-192l-4 75l169 227h115zM595 282l-105 -140h105v140zM596 707l-402 -736h-96l401 736h97zM36 411h50v217h-46v75h134v-292h49v-76h-187v76z" />
    <glyph glyph-name="onehalf" unicode="&#xbd;" horiz-adv-x="810" 
d="M596 707l-402 -736h-96l401 736h97zM36 411h50v217h-46v75h134v-292h49v-76h-187v76zM463 257q0 29 13 50.5t33 35.5t45 21t51 7q67 0 110 -28t43 -91q0 -38 -15 -59t-38 -32.5t-49.5 -16.5t-49.5 -10t-38 -14t-15 -28v-13h198v-83h-290v96q0 37 15.5 57.5t38.5 32
t50 16.5t50 10.5t38.5 14.5t15.5 29q0 23 -17.5 32.5t-44.5 9.5q-22 0 -38.5 -9t-17.5 -28h-88z" />
    <glyph glyph-name="threequarters" unicode="&#xbe;" horiz-adv-x="845" 
d="M743 367v-225h34v-77h-34v-65h-88v65h-192l-4 75l169 227h115zM655 282l-105 -140h105v140zM665 707l-402 -736h-96l401 736h97zM132 501v65h51q28 0 43.5 6t16.5 31q0 4 -2.5 10.5t-9 12.5t-18 10.5t-29.5 4.5q-23 0 -41 -6t-23 -29h-76q0 28 13 48.5t33 33.5t45.5 19
t49.5 6q25 0 51 -6.5t46.5 -20t33.5 -34.5t13 -49q0 -21 -12 -42t-35 -28q26 -8 40.5 -29.5t14.5 -43.5q0 -33 -14.5 -55t-37 -35.5t-49.5 -19.5t-53 -6q-25 0 -50.5 6t-46.5 19.5t-34.5 34.5t-13.5 51h88q6 -19 22.5 -26.5t37.5 -7.5q23 0 42.5 8.5t19.5 28.5q0 17 -13 30
t-48 13h-55z" />
    <glyph glyph-name="questiondown" unicode="&#xbf;" horiz-adv-x="599" 
d="M393 438q0 -26 -11.5 -43.5t-29.5 -26.5t-38.5 -9t-38.5 9t-29.5 26.5t-11.5 44.5q0 39 25 59t55 20t54.5 -20t24.5 -60zM552 23q0 -55 -22 -95.5t-59 -66.5t-85 -38.5t-101 -12.5t-102 12t-86.5 37.5t-59 65.5t-20.5 97q0 52 21.5 84t52 52.5t63 33.5t54.5 28
q21 14 29.5 36t9.5 57l-1 5l132 -1v-5q0 -51 -10 -84.5t-25.5 -54.5t-35 -34t-39.5 -23q-20 -11 -40 -18.5t-36.5 -17.5t-27 -24t-10.5 -36q0 -29 12 -47t31 -29t42.5 -15t46.5 -4q24 0 47.5 6.5t42 19.5t30 31t12.5 42z" />
    <glyph glyph-name="Agrave" unicode="&#xc0;" 
d="M546 132h-366l-60 -132h-143l314 700h144l314 -700h-144zM363 553l-130 -298h260zM194 914h144l74 -136v-6h-108l-110 137v5z" />
    <glyph glyph-name="Aacute" unicode="&#xc1;" 
d="M546 132h-366l-60 -132h-143l314 700h144l314 -700h-144zM493 255l-130 298l-130 -298h260v0zM526 909l-110 -137h-108v6l74 136h144v-5z" />
    <glyph glyph-name="Acircumflex" unicode="&#xc2;" 
d="M546 132h-366l-60 -132h-143l314 700h144l314 -700h-144zM363 553l-130 -298h260zM333 897h67l148 -138v-6h-124l-58 59l-57 -59h-124v6z" />
    <glyph glyph-name="Atilde" unicode="&#xc3;" 
d="M546 132h-366l-60 -132h-143l314 700h144l314 -700h-144zM363 553l-130 -298h260zM182 805q18 45 49.5 72t82.5 16q18 -4 35.5 -13.5t34 -15t31 -1t26.5 28.5l82 -39q-23 -60 -58 -80t-71 -10q-19 5 -37 16.5t-34.5 17t-32.5 0t-31 -33.5z" />
    <glyph glyph-name="Adieresis" unicode="&#xc4;" 
d="M546 132h-366l-60 -132h-143l314 700h144l314 -700h-144zM493 255l-130 298l-130 -298h260zM167 824q0 35 22 52.5t48 17.5t48 -17.5t22 -52.5t-22 -52t-48 -17t-48 17t-22 52zM416 824q0 35 22 52.5t48 17.5t48 -17.5t22 -52.5t-22 -52t-48 -17t-48 17t-22 52z" />
    <glyph glyph-name="Aring" unicode="&#xc5;" 
d="M230 798q0 30 11.5 52.5t30 38t42.5 23t49 7.5q24 0 48 -7.5t42.5 -23t30 -38t11.5 -52.5q0 -37 -16.5 -62.5t-42.5 -39.5l313 -696h-144l-59 132h-366l-60 -132h-143l312 696q-26 14 -42.5 39.5t-16.5 62.5zM493 255l-130 298l-130 -298h260zM361 850q-29 0 -43 -16
t-14 -35t14 -35t43 -16q30 0 44 16t13.5 35t-15 35t-42.5 16z" />
    <glyph glyph-name="AE" unicode="&#xc6;" horiz-adv-x="912" 
d="M858 0h-419v141h-220l-89 -141h-151l444 700h432v-124h-292v-166h281v-122h-281v-161h295v-127zM439 258v125l10 154l-156 -279h146z" />
    <glyph glyph-name="Ccedilla" unicode="&#xc7;" horiz-adv-x="660" 
d="M295 -158q11 -15 29 -23t36.5 -8.5t33.5 6t20 21.5q4 14 -3.5 25t-21 16.5t-30 4.5t-30.5 -11l-29 23l31 93q-79 10 -136 44t-94 82.5t-54.5 108t-17.5 121.5q0 69 22 135t68 118t116 84t165 32q72 0 137.5 -26.5t119.5 -80.5l-88 -85q-35 34 -79 50t-90 16
q-63 0 -109 -21.5t-75.5 -56t-43 -78t-13.5 -87.5t13.5 -86t42.5 -76t74.5 -54.5t110.5 -20.5q46 0 93.5 18t82.5 53l90 -91q-51 -51 -114 -76t-134 -28l-14 -45q34 -1 56 -12t33.5 -27.5t14 -36.5t-0.5 -39q-6 -29 -24 -49t-42.5 -31.5t-52.5 -13.5t-55.5 4.5t-51.5 22
t-39 40.5z" />
    <glyph glyph-name="Egrave" unicode="&#xc8;" horiz-adv-x="619" 
d="M571 0h-524v700h524v-128h-393v-161h379v-123h-379v-158h393v-130zM168 919h144l74 -136v-6h-108l-110 137v5z" />
    <glyph glyph-name="Eacute" unicode="&#xc9;" horiz-adv-x="619" 
d="M571 0h-524v700h524v-128h-393v-161h379v-123h-379v-158h393v-130zM474 908l-110 -137h-108v6l74 136h144v-5z" />
    <glyph glyph-name="Ecircumflex" unicode="&#xca;" horiz-adv-x="619" 
d="M571 0h-524v700h524v-128h-393v-161h379v-123h-379v-158h393v-130zM300 915h67l148 -138v-6h-124l-58 59l-57 -59h-124v6z" />
    <glyph glyph-name="Edieresis" unicode="&#xcb;" horiz-adv-x="624" 
d="M571 0h-524v700h524v-128h-393v-161h379v-123h-379v-158h393v-130zM126 840q0 35 22 52.5t48 17.5t48 -17.5t22 -52.5t-22 -52t-48 -17t-48 17t-22 52zM375 840q0 35 22 52.5t48 17.5t48 -17.5t22 -52.5t-22 -52t-48 -17t-48 17t-22 52z" />
    <glyph glyph-name="Igrave" unicode="&#xcc;" horiz-adv-x="256" 
d="M50 0v700h131v-700h-131zM-45 906h144l74 -136v-6h-108l-110 137v5z" />
    <glyph glyph-name="Iacute" unicode="&#xcd;" horiz-adv-x="256" 
d="M50 0v700h131v-700h-131zM275 901l-110 -137h-108v6l74 136h144v-5z" />
    <glyph glyph-name="Icircumflex" unicode="&#xce;" horiz-adv-x="256" 
d="M50 0v700h131v-700h-131zM84 902h67l148 -138v-6h-124l-58 59l-57 -59h-124v6z" />
    <glyph glyph-name="Idieresis" unicode="&#xcf;" horiz-adv-x="256" 
d="M-65 828q0 35 22 52.5t48 17.5t48 -17.5t22 -52.5t-22 -52t-48 -17t-48 17t-22 52zM149 828q0 35 22 52.5t48 17.5t48 -17.5t22 -52.5t-22 -52t-48 -17t-48 17t-22 52zM50 0v700h131v-700h-131z" />
    <glyph glyph-name="Eth" unicode="&#xd0;" horiz-adv-x="731" 
d="M-12 405h70v295h259q88 0 156 -26.5t114 -72.5t69.5 -107t23.5 -130q0 -72 -21.5 -138t-66.5 -116.5t-113.5 -80t-161.5 -29.5h-259v293h-70v112zM185 121h132q60 0 103.5 17.5t72.5 49.5t43 75.5t14 96.5q0 106 -59 163.5t-174 57.5h-132v-176h135v-112h-135v-172z" />
    <glyph glyph-name="Ntilde" unicode="&#xd1;" horiz-adv-x="740" 
d="M509 701h132v-701h-82v-1l-368 473v-472h-132v700h107l343 -434v435zM193 811q9 22 21 40.5t27.5 30.5t35.5 16.5t45 -1.5q18 -4 35 -13.5t33 -14.5t30 -0.5t26 27.5l80 -38q-22 -58 -56.5 -77.5t-69.5 -10.5q-18 5 -35.5 16t-34 16.5t-31.5 0t-30 -32.5z" />
    <glyph glyph-name="Ograve" unicode="&#xd2;" horiz-adv-x="785" 
d="M378 714q90 0 158 -32t113 -83.5t67 -117.5t21 -135q-1 -68 -22.5 -133t-65.5 -116t-111.5 -82t-159.5 -31t-160 30.5t-112.5 81t-66 115.5t-21.5 134t22 135.5t67 118t112.5 83.5t158.5 32zM378 594q-62 0 -106 -22.5t-72 -58.5t-40.5 -81t-11.5 -89q1 -43 14 -85.5
t40.5 -76.5t70.5 -55t105 -21t105 21t70.5 55t40 77t13.5 86q1 44 -11.5 88.5t-40.5 80.5t-71.5 58.5t-105.5 22.5zM232 922h144l74 -136v-6h-108l-110 137v5z" />
    <glyph glyph-name="Oacute" unicode="&#xd3;" horiz-adv-x="785" 
d="M378 714q90 0 158 -32t113 -83.5t67 -117.5t21 -135q-1 -68 -22.5 -133t-65.5 -116t-111.5 -82t-159.5 -31t-160 30.5t-112.5 81t-66 115.5t-21.5 134t22 135.5t67 118t112.5 83.5t158.5 32zM378 594q-62 0 -106 -22.5t-72 -58.5t-40.5 -81t-11.5 -89q1 -43 14 -85.5
t40.5 -76.5t70.5 -55t105 -21t105 21t70.5 55t40 77t13.5 86q1 44 -11.5 88.5t-40.5 80.5t-71.5 58.5t-105.5 22.5zM539 912l-110 -137h-108v6l74 136h144v-5z" />
    <glyph glyph-name="Ocircumflex" unicode="&#xd4;" horiz-adv-x="785" 
d="M378 714q90 0 158 -32t113 -83.5t67 -117.5t21 -135q-1 -68 -22.5 -133t-65.5 -116t-111.5 -82t-159.5 -31t-160 30.5t-112.5 81t-66 115.5t-21.5 134t22 135.5t67 118t112.5 83.5t158.5 32zM378 594q-62 0 -106 -22.5t-72 -58.5t-40.5 -81t-11.5 -89q1 -43 14 -85.5
t40.5 -76.5t70.5 -55t105 -21t105 21t70.5 55t40 77t13.5 86q1 44 -11.5 88.5t-40.5 80.5t-71.5 58.5t-105.5 22.5zM356 920h67l148 -138v-6h-124l-58 59l-57 -59h-124v6z" />
    <glyph glyph-name="Otilde" unicode="&#xd5;" horiz-adv-x="785" 
d="M378 714q90 0 158 -32t113 -83.5t67 -117.5t21 -135q-1 -68 -22.5 -133t-65.5 -116t-111.5 -82t-159.5 -31t-160 30.5t-112.5 81t-66 115.5t-21.5 134t22 135.5t67 118t112.5 83.5t158.5 32zM378 594q-62 0 -106 -22.5t-72 -58.5t-40.5 -81t-11.5 -89q1 -43 14 -85.5
t40.5 -76.5t70.5 -55t105 -21t105 21t70.5 55t40 77t13.5 86q1 44 -11.5 88.5t-40.5 80.5t-71.5 58.5t-105.5 22.5zM220 816q9 22 21 40.5t27.5 30.5t35.5 16.5t45 -1.5q18 -4 35 -13.5t33 -14.5t30 -0.5t26 27.5l80 -38q-22 -58 -56.5 -77.5t-69.5 -10.5q-18 5 -35.5 16
t-34 16.5t-31.5 0t-30 -32.5z" />
    <glyph glyph-name="Odieresis" unicode="&#xd6;" horiz-adv-x="785" 
d="M192 838q0 35 22 52.5t48 17.5t48 -17.5t22 -52.5t-22 -52t-48 -17t-48 17t-22 52zM438 838q0 35 22 52.5t48 17.5t48 -17.5t22 -52.5t-22 -52t-48 -17t-48 17t-22 52zM378 714q90 0 158 -32t113 -83.5t67 -117.5t21 -135q-1 -68 -22.5 -133t-65.5 -116t-111.5 -82
t-159.5 -31t-160 30.5t-112.5 81t-66 115.5t-21.5 134t22 135.5t67 118t112.5 83.5t158.5 32zM378 594q-62 0 -106 -22.5t-72 -58.5t-40.5 -81t-11.5 -89q1 -43 14 -85.5t40.5 -76.5t70.5 -55t105 -21t105 21t70.5 55t40 77t13.5 86q1 44 -11.5 88.5t-40.5 80.5t-71.5 58.5
t-105.5 22.5z" />
    <glyph glyph-name="multiply" unicode="&#xd7;" horiz-adv-x="445" 
d="M218 394l97 99l76 -76l-100 -103l103 -102l-76 -73l-101 102l-96 -99l-79 79l98 96l-96 96l81 78z" />
    <glyph glyph-name="Oslash" unicode="&#xd8;" horiz-adv-x="785" 
d="M378 714q38 0 72 -6t64 -17l45 75h128l-78 -130q65 -54 97 -131t31 -159q-1 -68 -22.5 -133t-65.5 -116t-111.5 -82t-159.5 -31q-42 0 -78 6.5t-68 18.5l-49 -81h-127l82 136q-61 52 -90.5 126t-29.5 155q0 69 22 135.5t67 118t112.5 83.5t158.5 32zM378 105q62 0 105 21
t70.5 55t40 77t13.5 86q1 49 -14.5 97.5t-49.5 85.5l-247 -411q38 -11 82 -11zM378 594q-62 0 -106 -22.5t-72 -58.5t-40.5 -81t-11.5 -89q1 -45 14.5 -88.5t42.5 -77.5l245 407q-17 5 -34.5 7.5t-37.5 2.5z" />
    <glyph glyph-name="Ugrave" unicode="&#xd9;" horiz-adv-x="743" 
d="M663 699v-401q0 -78 -22.5 -136.5t-63 -97.5t-96 -59t-121.5 -20q-63 0 -119.5 19t-99 58t-67.5 98t-25 138v401h131v-401q0 -95 49.5 -144t131.5 -49t126.5 51t44.5 142v401h131zM217 922h144l74 -136v-6h-108l-110 137v5z" />
    <glyph glyph-name="Uacute" unicode="&#xda;" horiz-adv-x="743" 
d="M663 699v-401q0 -78 -22.5 -136.5t-63 -97.5t-96 -59t-121.5 -20q-63 0 -119.5 19t-99 58t-67.5 98t-25 138v401h131v-401q0 -95 49.5 -144t131.5 -49t126.5 51t44.5 142v401h131zM515 916l-110 -137h-108v6l74 136h144v-5z" />
    <glyph glyph-name="Ucircumflex" unicode="&#xdb;" horiz-adv-x="743" 
d="M663 699v-401q0 -78 -22.5 -136.5t-63 -97.5t-96 -59t-121.5 -20q-63 0 -119.5 19t-99 58t-67.5 98t-25 138v401h131v-401q0 -95 49.5 -144t131.5 -49t126.5 51t44.5 142v401h131zM326 921h67l148 -138v-6h-124l-58 59l-57 -59h-124v6z" />
    <glyph glyph-name="Udieresis" unicode="&#xdc;" horiz-adv-x="743" 
d="M663 699v-401q0 -78 -22.5 -136.5t-63 -97.5t-96 -59t-121.5 -20q-63 0 -119.5 19t-99 58t-67.5 98t-25 138v401h131v-401q0 -95 49.5 -144t131.5 -49t126.5 51t44.5 142v401h131zM172 835q0 35 22 52.5t48 17.5t48 -17.5t22 -52.5t-22 -52t-48 -17t-48 17t-22 52z
M421 835q0 35 22 52.5t48 17.5t48 -17.5t22 -52.5t-22 -52t-48 -17t-48 17t-22 52z" />
    <glyph glyph-name="Yacute" unicode="&#xdd;" horiz-adv-x="719" 
d="M344 411l186 289h159v-6l-279 -405v-289h-132v289l-269 405v6h157zM500 908l-110 -137h-108v6l74 136h144v-5z" />
    <glyph glyph-name="Thorn" unicode="&#xde;" horiz-adv-x="676" 
d="M50 699h130v-114h199q85 0 142.5 -34.5t86 -87t28.5 -113t-28.5 -113t-85.5 -87t-143 -34.5h-198v-116h-132zM181 234h198q42 0 70 17t42 42.5t14 55.5t-14 55.5t-42 42.5t-70 17h-198v-230z" />
    <glyph glyph-name="germandbls" unicode="&#xdf;" horiz-adv-x="630" 
d="M250 113q54 -14 93.5 -10.5t64.5 18.5t37 38.5t12 50.5q0 30 -14 53t-36.5 38.5t-51 23.5t-56.5 8h-47v116h44q18 0 37.5 3t36 10.5t27 20.5t11.5 32q1 23 -8.5 39t-25 25.5t-34.5 14t-38 4.5q-47 0 -77.5 -21.5t-32.5 -61.5v-235v-66.5t0.5 -74.5t0.5 -74.5v-64.5h-131
v514q0 49 21 86t55 61.5t76.5 37t85.5 12.5q46 0 88.5 -12t75.5 -36.5t53 -61.5t20 -86q0 -41 -27.5 -76.5t-78.5 -46.5q44 -10 74 -30.5t48 -45t26 -51.5t8 -51q0 -70 -27.5 -118t-73.5 -74t-107 -31t-128 11z" />
    <glyph glyph-name="agrave" unicode="&#xe0;" horiz-adv-x="611" 
d="M431 493h117v-493h-115l-6 72q-11 -22 -29.5 -38t-40.5 -27t-45.5 -16.5t-44.5 -5.5q-55 0 -101.5 16.5t-80.5 49.5t-53 82t-19 114q0 64 20 112.5t54.5 81t81.5 48.5t101 16q50 0 93 -21.5t64 -58.5zM281 396q-30 0 -57 -10t-46.5 -29t-31 -47t-11.5 -63t11.5 -63
t31 -47.5t46.5 -29.5t57 -10q48 0 80 22t48 55.5t16 72t-16 72t-48 55.5t-80 22zM140 709h144l74 -136v-6h-108l-110 137v5z" />
    <glyph glyph-name="aacute" unicode="&#xe1;" horiz-adv-x="611" 
d="M427 425l4 68h117v-493h-115l-6 72q-11 -22 -29.5 -38t-40.5 -27t-45.5 -16.5t-44.5 -5.5q-55 0 -101.5 16.5t-80.5 49.5t-53 82t-19 114q0 64 20 112.5t54.5 81t81.5 48.5t101 16q50 0 93 -21.5t64 -58.5zM281 396q-30 0 -57 -10t-46.5 -29t-31 -47t-11.5 -63t11.5 -63
t31 -47.5t46.5 -29.5t57 -10q48 0 80 22t48 55.5t16 72t-16 72t-48 55.5t-80 22zM420 705l-110 -137h-108v6l74 136h144v-5z" />
    <glyph glyph-name="acircumflex" unicode="&#xe2;" horiz-adv-x="611" 
d="M431 493h117v-493h-115l-6 72q-11 -22 -29.5 -38t-40.5 -27t-45.5 -16.5t-44.5 -5.5q-55 0 -101.5 16.5t-80.5 49.5t-53 82t-19 114q0 64 20 112.5t54.5 81t81.5 48.5t101 16q50 0 93 -21.5t64 -58.5zM281 396q-30 0 -57 -10t-46.5 -29t-31 -47t-11.5 -63t11.5 -63
t31 -47.5t46.5 -29.5t57 -10q48 0 80 22t48 55.5t16 72t-16 72t-48 55.5t-80 22zM267 713h67l148 -138v-6h-124l-58 59l-57 -59h-124v6z" />
    <glyph glyph-name="atilde" unicode="&#xe3;" horiz-adv-x="611" 
d="M431 493h117v-493h-115l-6 72q-11 -22 -29.5 -38t-40.5 -27t-45.5 -16.5t-44.5 -5.5q-55 0 -101.5 16.5t-80.5 49.5t-53 82t-19 114q0 64 20 112.5t54.5 81t81.5 48.5t101 16q50 0 93 -21.5t64 -58.5zM281 396q-30 0 -57 -10t-46.5 -29t-31 -47t-11.5 -63t11.5 -63
t31 -47.5t46.5 -29.5t57 -10q48 0 80 22t48 55.5t16 72t-16 72t-48 55.5t-80 22zM134 626q9 22 21 40.5t27.5 30.5t35.5 16.5t45 -1.5q18 -4 35 -13.5t33 -14.5t30 -0.5t26 27.5l80 -38q-22 -58 -56.5 -77.5t-69.5 -10.5q-18 5 -35.5 16t-34 16.5t-31.5 0t-30 -32.5z" />
    <glyph glyph-name="adieresis" unicode="&#xe4;" horiz-adv-x="611" 
d="M427 425l4 68h117v-493h-115l-6 72q-11 -22 -29.5 -38t-40.5 -27t-45.5 -16.5t-44.5 -5.5q-55 0 -101.5 16.5t-80.5 49.5t-53 82t-19 114q0 64 20 112.5t54.5 81t81.5 48.5t101 16q50 0 93 -21.5t64 -58.5zM281 396q-30 0 -57 -10t-46.5 -29t-31 -47t-11.5 -63t11.5 -63
t31 -47.5t46.5 -29.5t57 -10q48 0 80 22t48 55.5t16 72t-16 72t-48 55.5t-80 22zM110 655q0 35 22 52.5t48 17.5t48 -17.5t22 -52.5t-22 -52t-48 -17t-48 17t-22 52zM359 655q0 35 22 52.5t48 17.5t48 -17.5t22 -52.5t-22 -52t-48 -17t-48 17t-22 52z" />
    <glyph glyph-name="aring" unicode="&#xe5;" horiz-adv-x="611" 
d="M431 493h117v-493h-115l-6 72q-11 -22 -29.5 -38t-40.5 -27t-45.5 -16.5t-44.5 -5.5q-55 0 -101.5 16.5t-80.5 49.5t-53 82t-19 114q0 64 20 112.5t54.5 81t81.5 48.5t101 16q50 0 93 -21.5t64 -58.5zM281 396q-30 0 -57 -10t-46.5 -29t-31 -47t-11.5 -63t11.5 -63
t31 -47.5t46.5 -29.5t57 -10q48 0 80 22t48 55.5t16 72t-16 72t-48 55.5t-80 22zM161 675q0 29 11 50.5t29 36t41 22t47 7.5t46.5 -7.5t40.5 -22t29 -36t11 -50.5t-11 -50.5t-29 -36t-40.5 -22t-46.5 -7.5t-47 7.5t-41 22t-29 36t-11 50.5zM287 725q-28 0 -41.5 -15.5
t-13.5 -33.5t14 -33.5t41 -15.5q29 0 43 15.5t13.5 33.5t-15 33.5t-41.5 15.5z" />
    <glyph glyph-name="ae" unicode="&#xe6;" horiz-adv-x="977" 
d="M534 203q6 -46 44 -75.5t103 -29.5q17 0 35.5 3t36.5 9t33.5 14.5t26.5 19.5l78 -77q-20 -20 -45 -35t-52.5 -25t-57 -15t-57.5 -5q-58 0 -98 20t-64 57l-5 -64h-90l-1 72q-11 -22 -29.5 -38t-40.5 -27t-45.5 -16.5t-44.5 -5.5q-55 0 -101.5 16.5t-80.5 49.5t-53 82
t-19 114q0 64 20 112.5t54.5 81t81.5 48.5t101 16q50 0 93 -21.5t64 -58.5l4 68h92v-62q34 44 79 60.5t92 15.5q51 -1 98.5 -22.5t82 -61t50 -95.5t0.5 -125h-385zM275 396q-30 0 -57 -10t-46.5 -29t-31 -47t-11.5 -63t11.5 -63t31 -47.5t46.5 -29.5t57 -10q50 0 83.5 22
t50 55.5t16.5 72t-16.5 72t-50 55.5t-83.5 22zM802 304q-6 48 -40.5 72t-87.5 24q-50 0 -87 -24t-51 -72h266z" />
    <glyph glyph-name="ccedilla" unicode="&#xe7;" horiz-adv-x="477" 
d="M162 -147q11 -14 29 -22t36.5 -9t33.5 5.5t20 21.5q4 14 -3.5 24.5t-21 16t-30 4.5t-30.5 -11l-29 22l31 89q-41 9 -75 29.5t-59 52t-39 74t-14 96.5q0 66 21 115t56.5 81.5t83 48.5t101.5 16q53 0 95 -16.5t83 -56.5l-77 -81q-22 20 -47.5 29.5t-51.5 9.5
q-31 0 -57 -10.5t-45 -30t-29.5 -46.5t-10.5 -59q0 -35 11 -62t30.5 -45t44.5 -27.5t54 -9.5t57 9t51 32l82 -80q-42 -41 -85 -58.5t-95 -19.5l-12 -38q34 -1 56 -12t33.5 -27t14 -35.5t-0.5 -37.5q-6 -28 -24 -47.5t-42.5 -30.5t-52.5 -13t-55.5 4.5t-51.5 21.5t-39 39z
" />
    <glyph glyph-name="egrave" unicode="&#xe8;" horiz-adv-x="583" 
d="M144 203q6 -46 44 -75.5t103 -29.5q17 0 35.5 3t36.5 9t33.5 14.5t26.5 19.5l78 -77q-20 -20 -45 -35t-52.5 -25t-57 -15t-57.5 -5q-64 0 -114 19t-85 53.5t-53.5 83t-18.5 107.5q0 56 18.5 103.5t52.5 82t82.5 53.5t108.5 19q62 0 111 -19t82 -57.5t48 -95.5t8 -133
h-385zM412 304q-6 48 -40.5 72t-87.5 24q-50 0 -87 -24t-51 -72h266zM133 713h144l74 -136v-6h-108l-110 137v5z" />
    <glyph glyph-name="eacute" unicode="&#xe9;" horiz-adv-x="583" 
d="M529 203h-385q6 -46 44 -75.5t103 -29.5q17 0 35.5 3t36.5 9t33.5 14.5t26.5 19.5l78 -77q-20 -20 -45 -35t-52.5 -25t-57 -15t-57.5 -5q-64 0 -114 19t-85 53.5t-53.5 83t-18.5 107.5q0 56 18.5 103.5t52.5 82t82.5 53.5t108.5 19q62 0 111 -19t82 -57.5t48 -95.5
t8 -133zM146 304h266q-6 48 -40.5 72t-87.5 24q-50 0 -87 -24t-51 -72zM424 710l-110 -137h-108v6l74 136h144v-5z" />
    <glyph glyph-name="ecircumflex" unicode="&#xea;" horiz-adv-x="583" 
d="M144 203q6 -46 44 -75.5t103 -29.5q17 0 35.5 3t36.5 9t33.5 14.5t26.5 19.5l78 -77q-20 -20 -45 -35t-52.5 -25t-57 -15t-57.5 -5q-64 0 -114 19t-85 53.5t-53.5 83t-18.5 107.5q0 56 18.5 103.5t52.5 82t82.5 53.5t108.5 19q62 0 111 -19t82 -57.5t48 -95.5t8 -133
h-385zM412 304q-6 48 -40.5 72t-87.5 24q-50 0 -87 -24t-51 -72h266zM253 713h67l148 -138v-6h-124l-58 59l-57 -59h-124v6z" />
    <glyph glyph-name="edieresis" unicode="&#xeb;" horiz-adv-x="583" 
d="M112 641q0 35 22 52.5t48 17.5t48 -17.5t22 -52.5t-22 -52t-48 -17t-48 17t-22 52zM325 641q0 35 22 52.5t48 17.5t48 -17.5t22 -52.5t-22 -52t-48 -17t-48 17t-22 52zM529 203h-385q6 -46 44 -75.5t103 -29.5q17 0 35.5 3t36.5 9t33.5 14.5t26.5 19.5l78 -77
q-20 -20 -45 -35t-52.5 -25t-57 -15t-57.5 -5q-64 0 -114 19t-85 53.5t-53.5 83t-18.5 107.5q0 56 18.5 103.5t52.5 82t82.5 53.5t108.5 19q62 0 111 -19t82 -57.5t48 -95.5t8 -133zM146 304h266q-6 48 -40.5 72t-87.5 24q-50 0 -87 -24t-51 -72z" />
    <glyph glyph-name="igrave" unicode="&#xec;" horiz-adv-x="238" 
d="M-4 698h131l42 -142v-6h-99l-74 143v5zM40 0v476h128v-476h-128z" />
    <glyph glyph-name="iacute" unicode="&#xed;" horiz-adv-x="238" 
d="M216 693l-74 -143h-99v6l42 142h131v-5zM40 0v476h128v-476h-128z" />
    <glyph glyph-name="icircumflex" unicode="&#xee;" horiz-adv-x="238" 
d="M40 0v476h128v-476h-128zM81 704h58l130 -146v-6h-109l-50 62l-50 -62h-109v6z" />
    <glyph glyph-name="idieresis" unicode="&#xef;" horiz-adv-x="238" 
d="M-50 639q0 35 22 52.5t48 17.5t48 -17.5t22 -52.5t-22 -52t-48 -17t-48 17t-22 52zM135 639q0 35 22 52.5t48 17.5t48 -17.5t22 -52.5t-22 -52t-48 -17t-48 17t-22 52zM40 0v476h128v-476h-128z" />
    <glyph glyph-name="eth" unicode="&#xf0;" horiz-adv-x="588" 
d="M230 478q20 3 42 2.5t43 -4.5t39 -11.5t30 -17.5q-7 18 -20.5 34.5t-29 30t-29.5 22t-21 10.5l-31 -35l-59 39l26 31q-17 10 -41 15.5t-41 7.5l22 99q74 -10 132 -36l43 51l60 -43l-37 -43q52 -41 87.5 -84.5t56.5 -90.5t30 -97.5t9 -106.5q0 -57 -17.5 -105t-50 -82.5
t-79.5 -53.5t-107 -19q-64 0 -111.5 21t-79.5 55.5t-48 79t-16 91.5q0 41 12.5 80t37 71.5t61.5 56t87 32.5zM287 100q32 0 56.5 12t40.5 31.5t24 44.5t8 51t-8 50.5t-24 44t-40.5 31.5t-56.5 12t-56.5 -12t-41 -31.5t-24.5 -44t-8 -50.5t8 -51t24.5 -44.5t41 -31.5
t56.5 -12z" />
    <glyph glyph-name="ntilde" unicode="&#xf1;" horiz-adv-x="601" 
d="M403 0v258q0 56 -30.5 94t-88.5 38q-28 0 -51.5 -11t-40 -30t-25.5 -44t-9 -53v-252h-121v494h109l8 -67q38 37 76.5 55.5t85.5 18.5q43 0 81.5 -16t66.5 -47t44.5 -76t16.5 -103v-259h-122zM111 629q9 22 21 40.5t27.5 30.5t35.5 16.5t45 -1.5q18 -4 35 -13.5t33 -14.5
t30 -0.5t26 27.5l80 -38q-22 -58 -56.5 -77.5t-69.5 -10.5q-18 5 -35.5 16t-34 16.5t-31.5 0t-30 -32.5z" />
    <glyph glyph-name="ograve" unicode="&#xf2;" horiz-adv-x="574" 
d="M272 503q59 0 106.5 -20.5t81.5 -55.5t52 -81.5t18 -99.5t-17.5 -100t-51 -82t-81 -55t-107.5 -20t-107.5 20t-80.5 55t-50.5 82t-17.5 100t18 99.5t51 81.5t80 55.5t106 20.5zM273 392q-33 0 -58 -12.5t-42 -33t-25.5 -46.5t-8.5 -54t8.5 -54t25 -46.5t42 -32.5
t58.5 -12t58.5 12t42 32.5t25 46.5t8.5 54t-9.5 54t-27 46.5t-42 33t-55.5 12.5zM129 706h144l74 -136v-6h-108l-110 137v5z" />
    <glyph glyph-name="oacute" unicode="&#xf3;" horiz-adv-x="574" 
d="M272 503q59 0 106.5 -20.5t81.5 -55.5t52 -81.5t18 -99.5t-17.5 -100t-51 -82t-81 -55t-107.5 -20t-107.5 20t-80.5 55t-50.5 82t-17.5 100t18 99.5t51 81.5t80 55.5t106 20.5zM273 392q-33 0 -58 -12.5t-42 -33t-25.5 -46.5t-8.5 -54t8.5 -54t25 -46.5t42 -32.5
t58.5 -12t58.5 12t42 32.5t25 46.5t8.5 54t-9.5 54t-27 46.5t-42 33t-55.5 12.5zM430 699l-110 -137h-108v6l74 136h144v-5z" />
    <glyph glyph-name="ocircumflex" unicode="&#xf4;" horiz-adv-x="574" 
d="M272 503q59 0 106.5 -20.5t81.5 -55.5t52 -81.5t18 -99.5t-17.5 -100t-51 -82t-81 -55t-107.5 -20t-107.5 20t-80.5 55t-50.5 82t-17.5 100t18 99.5t51 81.5t80 55.5t106 20.5zM273 392q-33 0 -58 -12.5t-42 -33t-25.5 -46.5t-8.5 -54t8.5 -54t25 -46.5t42 -32.5
t58.5 -12t58.5 12t42 32.5t25 46.5t8.5 54t-9.5 54t-27 46.5t-42 33t-55.5 12.5zM239 703h67l148 -138v-6h-124l-58 59l-57 -59h-124v6z" />
    <glyph glyph-name="otilde" unicode="&#xf5;" horiz-adv-x="574" 
d="M272 503q59 0 106.5 -20.5t81.5 -55.5t52 -81.5t18 -99.5t-17.5 -100t-51 -82t-81 -55t-107.5 -20t-107.5 20t-80.5 55t-50.5 82t-17.5 100t18 99.5t51 81.5t80 55.5t106 20.5zM273 392q-33 0 -58 -12.5t-42 -33t-25.5 -46.5t-8.5 -54t8.5 -54t25 -46.5t42 -32.5
t58.5 -12t58.5 12t42 32.5t25 46.5t8.5 54t-9.5 54t-27 46.5t-42 33t-55.5 12.5zM109 622q9 22 21 40.5t27.5 30.5t35.5 16.5t45 -1.5q18 -4 35 -13.5t33 -14.5t30 -0.5t26 27.5l80 -38q-22 -58 -56.5 -77.5t-69.5 -10.5q-18 5 -35.5 16t-34 16.5t-31.5 0t-30 -32.5z" />
    <glyph glyph-name="odieresis" unicode="&#xf6;" horiz-adv-x="574" 
d="M100 648q0 35 22 52.5t48 17.5t48 -17.5t22 -52.5t-22 -52t-48 -17t-48 17t-22 52zM306 648q0 35 22 52.5t48 17.5t48 -17.5t22 -52.5t-22 -52t-48 -17t-48 17t-22 52zM272 503q59 0 106.5 -20.5t81.5 -55.5t52 -81.5t18 -99.5t-17.5 -100t-51 -82t-81 -55t-107.5 -20
t-107.5 20t-80.5 55t-50.5 82t-17.5 100t18 99.5t51 81.5t80 55.5t106 20.5zM273 392q-33 0 -58 -12.5t-42 -33t-25.5 -46.5t-8.5 -54t8.5 -54t25 -46.5t42 -32.5t58.5 -12t58.5 12t42 32.5t25 46.5t8.5 54t-9.5 54t-27 46.5t-42 33t-55.5 12.5z" />
    <glyph glyph-name="divide" unicode="&#xf7;" horiz-adv-x="518" 
d="M19 384h447v-118h-447v118zM173 137q0 35 22 52.5t48 17.5t48 -17.5t22 -52.5t-22 -52t-48 -17t-48 17t-22 52zM173 509q0 35 22 52.5t48 17.5t48 -17.5t22 -52.5t-22 -52t-48 -17t-48 17t-22 52z" />
    <glyph glyph-name="oslash" unicode="&#xf8;" horiz-adv-x="574" 
d="M272 503q46 0 88 -14l37 63h115l-66 -112q41 -35 62.5 -85.5t21.5 -108.5q0 -53 -17.5 -100t-51 -82t-81 -55t-107.5 -20q-23 0 -44.5 3.5t-41.5 8.5l-39 -66h-115l67 114q-41 35 -62 86t-21 111q0 53 18 99.5t51 81.5t80 55.5t106 20.5zM273 392q-33 0 -58 -12.5
t-42 -33t-25.5 -46.5t-8.5 -54q0 -52 25 -89l137 232q-14 3 -28 3zM273 101q33 0 58.5 12t42 32.5t25 46.5t8.5 54q0 46 -25 85l-135 -228q6 -2 12.5 -2h13.5z" />
    <glyph glyph-name="ugrave" unicode="&#xf9;" horiz-adv-x="602" 
d="M165 493v-258q0 -28 7.5 -52t22.5 -42t37.5 -28t51.5 -10q28 0 51.5 11t40 30t25.5 44t9 53v252h121v-494h-109l-8 67q-38 -38 -76.5 -56t-90.5 -18q-44 0 -81.5 16.5t-64.5 47.5t-42.5 76t-15.5 102v259h122zM140 700h144l74 -136v-6h-108l-110 137v5z" />
    <glyph glyph-name="uacute" unicode="&#xfa;" horiz-adv-x="602" 
d="M165 493v-258q0 -28 7.5 -52t22.5 -42t37.5 -28t51.5 -10q28 0 51.5 11t40 30t25.5 44t9 53v252h121v-494h-109l-8 67q-38 -38 -76.5 -56t-90.5 -18q-44 0 -81.5 16.5t-64.5 47.5t-42.5 76t-15.5 102v259h122zM444 695l-110 -137h-108v6l74 136h144v-5z" />
    <glyph glyph-name="ucircumflex" unicode="&#xfb;" horiz-adv-x="602" 
d="M165 493v-258q0 -28 7.5 -52t22.5 -42t37.5 -28t51.5 -10q28 0 51.5 11t40 30t25.5 44t9 53v252h121v-494h-109l-8 67q-38 -38 -76.5 -56t-90.5 -18q-44 0 -81.5 16.5t-64.5 47.5t-42.5 76t-15.5 102v259h122zM263 704h67l148 -138v-6h-124l-58 59l-57 -59h-124v6z" />
    <glyph glyph-name="udieresis" unicode="&#xfc;" horiz-adv-x="602" 
d="M165 493v-258q0 -28 7.5 -52t22.5 -42t37.5 -28t51.5 -10q28 0 51.5 11t40 30t25.5 44t9 53v252h121v-494h-109l-8 67q-38 -38 -76.5 -56t-90.5 -18q-44 0 -81.5 16.5t-64.5 47.5t-42.5 76t-15.5 102v259h122zM97 645q0 35 22 52.5t48 17.5t48 -17.5t22 -52.5t-22 -52
t-48 -17t-48 17t-22 52zM346 645q0 35 22 52.5t48 17.5t48 -17.5t22 -52.5t-22 -52t-48 -17t-48 17t-22 52z" />
    <glyph glyph-name="yacute" unicode="&#xfd;" horiz-adv-x="561" 
d="M537 493l-301 -699h-134l92 214l-197 485h142l75 -213l47 -139l51 136l90 216h135zM406 696l-110 -137h-108v6l74 136h144v-5z" />
    <glyph glyph-name="thorn" unicode="&#xfe;" horiz-adv-x="624" 
d="M313 106q29 0 54.5 9.5t44.5 27.5t30 44t11 59t-11 59t-30 44t-44.5 27.5t-54.5 9.5t-54.5 -11t-44.5 -30t-30 -44.5t-11 -54.5t11 -54.5t30 -44.5t44.5 -30t54.5 -11zM40 -206v906h122v-274q12 19 31 34t41 24.5t45 14.5t44 5q54 0 100 -16.5t80 -49t53 -80.5t19 -112
t-19 -112t-52 -80.5t-79 -49t-100 -16.5q-20 0 -42 4t-44 13.5t-42 24.5t-35 37v-273h-122z" />
    <glyph glyph-name="ydieresis" unicode="&#xff;" horiz-adv-x="561" 
d="M537 493l-301 -699h-134l92 214l-197 485h142l75 -213l47 -139l51 136l90 216h135zM84 637q0 35 22 52.5t48 17.5t48 -17.5t22 -52.5t-22 -52t-48 -17t-48 17t-22 52zM333 637q0 35 22 52.5t48 17.5t48 -17.5t22 -52.5t-22 -52t-48 -17t-48 17t-22 52z" />
    <glyph glyph-name="Abreve" unicode="&#x102;" 
d="M546 132h-366l-60 -132h-143l314 700h144l314 -700h-144zM363 553l-130 -298h260zM515 906q4 -50 -18 -82.5t-57 -49t-76.5 -16t-76.5 17t-57 49t-18 81.5h99q0 -28 16.5 -42t36.5 -14t36.5 14t16.5 42h98z" />
    <glyph glyph-name="abreve" unicode="&#x103;" horiz-adv-x="611" 
d="M431 493h117v-493h-115l-6 72q-11 -22 -29.5 -38t-40.5 -27t-45.5 -16.5t-44.5 -5.5q-55 0 -101.5 16.5t-80.5 49.5t-53 82t-19 114q0 64 20 112.5t54.5 81t81.5 48.5t101 16q50 0 93 -21.5t64 -58.5zM281 396q-30 0 -57 -10t-46.5 -29t-31 -47t-11.5 -63t11.5 -63
t31 -47.5t46.5 -29.5t57 -10q48 0 80 22t48 55.5t16 72t-16 72t-48 55.5t-80 22zM430 699q4 -50 -18 -82.5t-57 -49t-76.5 -16t-76.5 17t-57 49t-18 81.5h99q0 -28 16.5 -42t36.5 -14t36.5 14t16.5 42h98z" />
    <glyph glyph-name="Dcroat" unicode="&#x110;" horiz-adv-x="703" 
d="M-32 395h72v305h275q90 0 155.5 -29.5t108.5 -77.5t64 -110t22 -127q1 -66 -19 -130t-63 -114.5t-109.5 -81t-158.5 -30.5h-275v300h-72v95zM171 395h92v-95h-92v-173h144q60 0 102 20t68.5 52.5t38 73.5t10.5 84q-1 41 -14 80t-39.5 70t-67.5 49.5t-98 18.5h-144v-180z
" />
    <glyph glyph-name="dcroat" unicode="&#x111;" horiz-adv-x="618" 
d="M552 699v-48h66v-88h-66v-563h-114l-8 68q-29 -45 -71.5 -62t-87.5 -17q-54 0 -100.5 17.5t-80.5 50.5t-53.5 81t-19.5 109q0 64 19 112t52.5 80.5t79.5 49t100 16.5q19 0 43 -5t46.5 -15t42 -25t30.5 -34v137h-121v88h121v48h122zM279 391q-29 0 -54.5 -10t-44.5 -28.5
t-30 -45.5t-11 -60q0 -32 11 -59t30 -46t44.5 -29.5t54.5 -10.5t55 10t45.5 29t31 46t11.5 60q0 32 -11.5 58.5t-31 45.5t-45.5 29.5t-55 10.5z" />
    <glyph glyph-name="Itilde" unicode="&#x128;" horiz-adv-x="256" 
d="M50 0v700h131v-700h-131zM-37 804q9 22 21 40.5t27.5 30.5t35.5 16.5t45 -1.5q18 -4 35 -13.5t33 -14.5t30 -0.5t26 27.5l80 -38q-22 -58 -56.5 -77.5t-69.5 -10.5q-18 5 -35.5 16t-34 16.5t-31.5 0t-30 -32.5z" />
    <glyph glyph-name="itilde" unicode="&#x129;" horiz-adv-x="232" 
d="M162 495v-495h-122v495h122zM-50 626q9 22 21 40.5t27.5 30.5t35.5 16.5t45 -1.5q18 -4 35 -13.5t33 -14.5t30 -0.5t26 27.5l80 -38q-22 -58 -56.5 -77.5t-69.5 -10.5q-18 5 -35.5 16t-34 16.5t-31.5 0t-30 -32.5z" />
    <glyph glyph-name="dotlessi" unicode="&#x131;" horiz-adv-x="238" 
d="M40 0v476h128v-476h-128z" />
    <glyph glyph-name="Lslash" unicode="&#x141;" horiz-adv-x="593" 
d="M302 465v-101l-106 -51v-191h360v-122h-492v249l-78 -38v99l78 38v352h132v-287z" />
    <glyph glyph-name="lslash" unicode="&#x142;" horiz-adv-x="228" 
d="M232 351l-71 -35v-316h-121v257l-64 -31v91l64 31v351h121v-293l71 35v-90z" />
    <glyph glyph-name="OE" unicode="&#x152;" horiz-adv-x="1034" 
d="M974 1h-457q-26 -8 -54.5 -12t-60.5 -4q-91 0 -158 28.5t-111.5 78.5t-66 117t-21.5 145t22.5 144t67 114t111.5 75t156 27q32 0 60.5 -4t54.5 -12v2h457v-131h-335v-156h321v-125h-321v-156h335v-131zM403 603q-57 0 -99.5 -19.5t-70.5 -54t-42 -80.5t-14 -98
q0 -48 14 -93.5t42.5 -81t71.5 -57.5t101 -22q67 0 111 20v464q-47 22 -114 22z" />
    <glyph glyph-name="oe" unicode="&#x153;" horiz-adv-x="949" 
d="M522 203q6 -46 42.5 -75.5t101.5 -29.5q17 0 35.5 3t36.5 9t33.5 14.5t26.5 19.5l78 -77q-20 -20 -45 -35t-52.5 -25t-57 -15t-57.5 -5q-69 0 -121.5 25.5t-81.5 75.5q-33 -48 -78 -73.5t-108 -25.5q-60 0 -107.5 20t-80.5 55t-50.5 82t-17.5 100t18 100t51 82t80 55.5
t106 20.5q61 0 112.5 -25.5t80.5 -73.5q23 44 72.5 72.5t115.5 28.5q62 0 111 -19t82 -56.5t48 -94.5t8 -133h-382zM275 392q-33 0 -58 -12.5t-42 -33t-25.5 -46.5t-8.5 -54t8.5 -54t25 -46.5t42 -32.5t58.5 -12t58.5 12t42 32.5t25 46.5t8.5 54t-9.5 54t-27 46.5t-42 33
t-55.5 12.5zM787 304q-6 48 -40.5 72t-87.5 24q-50 0 -87 -24t-51 -72h266z" />
    <glyph glyph-name="Scaron" unicode="&#x160;" horiz-adv-x="661" 
d="M481 531q-9 15 -25.5 29t-38 25t-48 17.5t-54.5 6.5q-74 0 -109.5 -27t-35.5 -66q0 -23 12.5 -38t34 -25t49.5 -15.5t60 -9.5q55 -7 106 -19t90 -36.5t62.5 -64.5t23.5 -103q0 -59 -24 -101t-64.5 -69t-94 -40t-111.5 -13q-54 0 -101 9t-86 29t-69 53t-49 81l110 57
q12 -29 32 -50t46 -34.5t56.5 -20t62.5 -6.5q31 0 60 5.5t51.5 18.5t36 32.5t13.5 48.5q0 25 -12 42.5t-34 30t-51.5 19.5t-64.5 11q-54 6 -103.5 18t-87.5 35.5t-61 61.5t-23 97q0 54 24 92.5t63 63t87.5 36.5t96.5 12q41 0 81.5 -6.5t77 -22.5t66.5 -43t50 -67zM140 912v6
h124l59 -61l64 61h120v-6l-152 -138h-67z" />
    <glyph glyph-name="scaron" unicode="&#x161;" horiz-adv-x="491" 
d="M362 362q-26 25 -56.5 34.5t-65.5 9.5q-44 0 -67 -13t-23 -36q0 -48 92 -54q35 -2 72.5 -8.5t68 -23.5t50.5 -47t20 -79q0 -33 -13.5 -62t-40 -51.5t-66 -35.5t-92.5 -13q-29 0 -58.5 3t-58 12.5t-56.5 27t-55 45.5l60 87q13 -15 33.5 -27.5t44 -21.5t47.5 -14.5t45 -5.5
q17 0 33 4t28.5 11.5t20 18.5t7.5 25q0 26 -22.5 37.5t-75.5 14.5q-35 3 -71 11.5t-65.5 26t-48.5 45.5t-19 70q0 43 20 72.5t50.5 47.5t67 26t70.5 8q58 0 103.5 -13.5t88.5 -51.5zM58 694v6h124l59 -61l64 61h120v-6l-152 -138h-67z" />
    <glyph glyph-name="Utilde" unicode="&#x168;" horiz-adv-x="743" 
d="M663 699v-401q0 -78 -22.5 -136.5t-63 -97.5t-96 -59t-121.5 -20q-63 0 -119.5 19t-99 58t-67.5 98t-25 138v401h131v-401q0 -95 49.5 -144t131.5 -49t126.5 51t44.5 142v401h131zM205 804q9 22 21 40.5t27.5 30.5t35.5 16.5t45 -1.5q18 -4 35 -13.5t33 -14.5t30 -0.5
t26 27.5l80 -38q-22 -58 -56.5 -77.5t-69.5 -10.5q-18 5 -35.5 16t-34 16.5t-31.5 0t-30 -32.5z" />
    <glyph glyph-name="utilde" unicode="&#x169;" horiz-adv-x="599" 
d="M165 493v-258q0 -28 7.5 -52t22.5 -42t37.5 -28t51.5 -10q28 0 51.5 11t40 30t25.5 44t9 53v252h121v-494h-109l-8 67q-38 -38 -76.5 -56t-90.5 -18q-44 0 -81.5 16.5t-64.5 47.5t-42.5 76t-15.5 102v259h122zM133 627q9 22 21 40.5t27.5 30.5t35.5 16.5t45 -1.5
q18 -4 35 -13.5t33 -14.5t30 -0.5t26 27.5l80 -38q-22 -58 -56.5 -77.5t-69.5 -10.5q-18 5 -35.5 16t-34 16.5t-31.5 0t-30 -32.5z" />
    <glyph glyph-name="Ydieresis" unicode="&#x178;" horiz-adv-x="698" 
d="M344 411l186 289h159v-6l-279 -405v-289h-132v289l-269 405v6h157zM150 835q0 35 22 52.5t48 17.5t48 -17.5t22 -52.5t-22 -52t-48 -17t-48 17t-22 52zM399 835q0 35 22 52.5t48 17.5t48 -17.5t22 -52.5t-22 -52t-48 -17t-48 17t-22 52z" />
    <glyph glyph-name="Zcaron" unicode="&#x17d;" horiz-adv-x="567" 
d="M2 700h538v-62l-363 -513h363v-125h-547v76l355 500h-346v124zM105 902v6h124l59 -61l64 61h120v-6l-152 -138h-67z" />
    <glyph glyph-name="zcaron" unicode="&#x17e;" horiz-adv-x="470" 
d="M422 493v-58l-227 -315h229v-120h-415v51l236 331h-218v111h395zM48 692v6h124l59 -61l64 61h120v-6l-152 -138h-67z" />
    <glyph glyph-name="florin" unicode="&#x192;" horiz-adv-x="441" 
d="M116 379h-92v107h92v33q0 49 15.5 85.5t41.5 60.5t60 35.5t71 11.5q66 0 128 -40l-45 -91q-40 26 -75 26q-32 0 -53 -21.5t-21 -66.5v-33h145v-107h-145v-381q0 -50 -15.5 -86t-41.5 -60t-60 -35.5t-71 -11.5q-32 0 -57.5 8t-55.5 28l45 91q20 -13 30.5 -17.5t29.5 -4.5
q32 0 53 21.5t21 66.5v381z" />
    <glyph glyph-name="Ohorn" unicode="&#x1a0;" horiz-adv-x="750" 
d="M378 714q101 0 173 -39t117 -101q7 8 10.5 15.5t5.5 13.5q2 7 2 14v82h103v-87q0 -27 -7 -46.5t-18.5 -33t-25.5 -22t-29 -12.5q14 -36 21 -74.5t7 -77.5q-1 -68 -22.5 -133t-65.5 -116t-111.5 -82t-159.5 -31t-160 30.5t-112.5 81t-66 115.5t-21.5 134t22 135.5t67 118
t112.5 83.5t158.5 32zM378 594q-62 0 -106 -22.5t-72 -58.5t-40.5 -81t-11.5 -89q1 -43 14 -85.5t40.5 -76.5t70.5 -55t105 -21t105 21t70.5 55t40 77t13.5 86q1 44 -11.5 88.5t-40.5 80.5t-71.5 58.5t-105.5 22.5z" />
    <glyph glyph-name="ohorn" unicode="&#x1a1;" horiz-adv-x="604" 
d="M272 503q81 0 139.5 -36.5t89.5 -96.5q6 7 9.5 14.5t5.5 13.5q2 7 2 14v82h103v-87q0 -30 -8.5 -51t-22 -34.5t-30.5 -21t-33 -11.5q3 -21 3 -43q0 -53 -17.5 -100t-51 -82t-81 -55t-107.5 -20t-107.5 20t-80.5 55t-50.5 82t-17.5 100t18 99.5t51 81.5t80 55.5t106 20.5z
M273 392q-33 0 -58 -12.5t-42 -33t-25.5 -46.5t-8.5 -54t8.5 -54t25 -46.5t42 -32.5t58.5 -12t58.5 12t42 32.5t25 46.5t8.5 54t-9.5 54t-27 46.5t-42 33t-55.5 12.5z" />
    <glyph glyph-name="Uhorn" unicode="&#x1af;" horiz-adv-x="743" 
d="M663 699v-130q8 8 13 15.5t7 15.5q3 8 3 17v82h103v-87q0 -38 -13.5 -61t-33 -36.5t-41 -19t-38.5 -6.5v-191q0 -78 -22.5 -136.5t-63 -97.5t-96 -59t-121.5 -20q-63 0 -119.5 19t-99 58t-67.5 98t-25 138v401h131v-401q0 -95 49.5 -144t131.5 -49t126.5 51t44.5 142v401
h131z" />
    <glyph glyph-name="uhorn" unicode="&#x1b0;" horiz-adv-x="653" 
d="M165 493v-258q0 -28 7.5 -52t22.5 -42t37.5 -28t51.5 -10q28 0 51.5 11t40 30t25.5 44t9 53v252h121v-140q14 8 22 18t12 19q4 11 5 22v81h103v-86q0 -43 -16.5 -67.5t-39.5 -37t-47 -15.5t-39 -3v-285h-109l-8 67q-38 -38 -76.5 -56t-90.5 -18q-44 0 -81.5 16.5
t-64.5 47.5t-42.5 76t-15.5 102v259h122z" />
    <glyph glyph-name="circumflex" unicode="&#x2c6;" horiz-adv-x="425" 
d="M170 715h67l148 -138v-6h-124l-58 59l-57 -59h-124v6z" />
    <glyph glyph-name="caron" unicode="&#x2c7;" horiz-adv-x="405" 
d="M16 694v6h124l59 -61l64 61h120v-6l-152 -138h-67z" />
    <glyph glyph-name="breve" unicode="&#x2d8;" horiz-adv-x="369" 
d="M329 699q4 -50 -18 -82.5t-57 -49t-76.5 -16t-76.5 17t-57 49t-18 81.5h99q0 -28 16.5 -42t36.5 -14t36.5 14t16.5 42h98z" />
    <glyph glyph-name="dotaccent" unicode="&#x2d9;" horiz-adv-x="198" 
d="M11 640q0 36 22.5 53.5t49.5 17.5t49.5 -17.5t22.5 -53.5t-22.5 -53.5t-49.5 -17.5t-49.5 17.5t-22.5 53.5z" />
    <glyph glyph-name="ring" unicode="&#x2da;" horiz-adv-x="314" 
d="M15 593q0 30 11.5 52.5t30 38t42.5 23t49 7.5q24 0 48 -7.5t42.5 -23t30 -38t11.5 -52.5t-11.5 -52.5t-30 -37.5t-42.5 -22.5t-48 -7.5q-25 0 -49 7.5t-42.5 22.5t-30 37.5t-11.5 52.5zM146 645q-29 0 -43 -16t-14 -35t14 -35t43 -16q30 0 44 16t13.5 35t-15 35t-42.5 16
z" />
    <glyph glyph-name="ogonek" unicode="&#x2db;" horiz-adv-x="377" 
d="M307 -191q-22 -35 -61 -50t-79.5 -11t-74 25.5t-44.5 59.5q-5 18 -2.5 46t22 52.5t59.5 38.5t109 3l15 -52q-14 4 -35.5 2.5t-40.5 -8.5t-30.5 -20.5t-5.5 -34.5q3 -10 13.5 -17t25.5 -9t32.5 2.5t34.5 19.5z" />
    <glyph glyph-name="tilde" unicode="&#x2dc;" horiz-adv-x="397" 
d="M28 684q9 22 21 40.5t27.5 30.5t35.5 16.5t45 -1.5q18 -4 35 -13.5t33 -14.5t30 -0.5t26 27.5l80 -38q-22 -58 -56.5 -77.5t-69.5 -10.5q-18 5 -35.5 16t-34 16.5t-31.5 0t-30 -32.5z" />
    <glyph glyph-name="hungarumlaut" unicode="&#x2dd;" horiz-adv-x="435" 
d="M410 697l-118 -137h-100l89 141h129v-4zM229 698l-115 -137h-102l88 141h129v-4z" />
    <glyph glyph-name="hookabovecomb" unicode="&#x309;" horiz-adv-x="390" 
d="M64 674q5 39 23 66q7 12 18 22.5t26.5 17t36 9t46.5 -2.5q44 -9 64 -33.5t21.5 -55.5t-12.5 -61.5t-38 -51.5q-36 -31 -32 -54h-66q-3 21 3 45t32 42q23 16 32.5 33t9 32t-9 25.5t-21.5 12.5q-26 4 -43.5 -6.5t-19.5 -39.5h-70z" />
    <glyph glyph-name="dotbelowcomb" unicode="&#x323;" horiz-adv-x="198" 
d="M26 -122q0 36 22.5 53.5t49.5 17.5t49.5 -17.5t22.5 -53.5t-22.5 -53.5t-49.5 -17.5t-49.5 17.5t-22.5 53.5z" />
    <glyph glyph-name="uni0EDD" unicode="&#xedd;" horiz-adv-x="0" 
 />
    <glyph glyph-name="uni1E5F" unicode="&#x1e5f;" horiz-adv-x="434" 
d="M153 493l9 -57q14 23 30.5 36.5t34.5 21t36.5 10t37.5 2.5q38 0 72.5 -13.5t54.5 -33.5l-55 -106q-19 16 -38.5 24t-49.5 8q-24 0 -46 -6.5t-39.5 -21.5t-27.5 -39t-10 -58v-260h-122v493h113z" />
    <glyph glyph-name="uni1EA0" unicode="&#x1ea0;" 
d="M546 132h-366l-60 -132h-143l314 700h144l314 -700h-144zM363 553l-130 -298h260zM302 -122q0 36 22.5 53.5t49.5 17.5t49.5 -17.5t22.5 -53.5t-22.5 -53.5t-49.5 -17.5t-49.5 17.5t-22.5 53.5z" />
    <glyph glyph-name="uni1EA1" unicode="&#x1ea1;" horiz-adv-x="611" 
d="M431 493h117v-493h-115l-6 72q-11 -22 -29.5 -38t-40.5 -27t-45.5 -16.5t-44.5 -5.5q-55 0 -101.5 16.5t-80.5 49.5t-53 82t-19 114q0 64 20 112.5t54.5 81t81.5 48.5t101 16q50 0 93 -21.5t64 -58.5zM281 396q-30 0 -57 -10t-46.5 -29t-31 -47t-11.5 -63t11.5 -63
t31 -47.5t46.5 -29.5t57 -10q48 0 80 22t48 55.5t16 72t-16 72t-48 55.5t-80 22zM233 -122q0 36 22.5 53.5t49.5 17.5t49.5 -17.5t22.5 -53.5t-22.5 -53.5t-49.5 -17.5t-49.5 17.5t-22.5 53.5z" />
    <glyph glyph-name="uni1EA2" unicode="&#x1ea2;" 
d="M546 132h-366l-60 -132h-143l314 700h144l314 -700h-144zM363 553l-130 -298h260zM244 881q5 39 23 66q7 12 18 22.5t26.5 17t36 9t46.5 -2.5q44 -9 64 -33.5t21.5 -55.5t-12.5 -61.5t-38 -51.5q-36 -31 -32 -54h-66q-3 21 3 45t32 42q23 16 32.5 33t9 32t-9 25.5
t-21.5 12.5q-26 4 -43.5 -6.5t-19.5 -39.5h-70z" />
    <glyph glyph-name="uni1EA3" unicode="&#x1ea3;" horiz-adv-x="611" 
d="M431 493h117v-493h-115l-6 72q-11 -22 -29.5 -38t-40.5 -27t-45.5 -16.5t-44.5 -5.5q-55 0 -101.5 16.5t-80.5 49.5t-53 82t-19 114q0 64 20 112.5t54.5 81t81.5 48.5t101 16q50 0 93 -21.5t64 -58.5zM281 396q-30 0 -57 -10t-46.5 -29t-31 -47t-11.5 -63t11.5 -63
t31 -47.5t46.5 -29.5t57 -10q48 0 80 22t48 55.5t16 72t-16 72t-48 55.5t-80 22zM173 707q5 39 23 66q7 12 18 22.5t26.5 17t36 9t46.5 -2.5q44 -9 64 -33.5t21.5 -55.5t-12.5 -61.5t-38 -51.5q-36 -31 -32 -54h-66q-3 21 3 45t32 42q23 16 32.5 33t9 32t-9 25.5t-21.5 12.5
q-26 4 -43.5 -6.5t-19.5 -39.5h-70z" />
    <glyph glyph-name="uni1EA4" unicode="&#x1ea4;" 
d="M546 132h-366l-60 -132h-143l314 700h144l314 -700h-144zM363 553l-130 -298h260zM333 897h67l148 -138v-6h-124l-58 59l-57 -59h-124v6zM675 1017l-110 -137h-108v6l74 136h144v-5z" />
    <glyph glyph-name="uni1EA5" unicode="&#x1ea5;" horiz-adv-x="611" 
d="M431 493h117v-493h-115l-6 72q-11 -22 -29.5 -38t-40.5 -27t-45.5 -16.5t-44.5 -5.5q-55 0 -101.5 16.5t-80.5 49.5t-53 82t-19 114q0 64 20 112.5t54.5 81t81.5 48.5t101 16q50 0 93 -21.5t64 -58.5zM281 396q-30 0 -57 -10t-46.5 -29t-31 -47t-11.5 -63t11.5 -63
t31 -47.5t46.5 -29.5t57 -10q48 0 80 22t48 55.5t16 72t-16 72t-48 55.5t-80 22zM267 713h67l148 -138v-6h-124l-58 59l-57 -59h-124v6zM600 867l-110 -137h-108v6l74 136h144v-5z" />
    <glyph glyph-name="uni1EA6" unicode="&#x1ea6;" 
d="M546 132h-366l-60 -132h-143l314 700h144l314 -700h-144zM363 553l-130 -298h260zM333 897h67l148 -138v-6h-124l-58 59l-57 -59h-124v6zM358 1022h144l74 -136v-6h-108l-110 137v5z" />
    <glyph glyph-name="uni1EA7" unicode="&#x1ea7;" horiz-adv-x="611" 
d="M431 493h117v-493h-115l-6 72q-11 -22 -29.5 -38t-40.5 -27t-45.5 -16.5t-44.5 -5.5q-55 0 -101.5 16.5t-80.5 49.5t-53 82t-19 114q0 64 20 112.5t54.5 81t81.5 48.5t101 16q50 0 93 -21.5t64 -58.5zM281 396q-30 0 -57 -10t-46.5 -29t-31 -47t-11.5 -63t11.5 -63
t31 -47.5t46.5 -29.5t57 -10q48 0 80 22t48 55.5t16 72t-16 72t-48 55.5t-80 22zM267 713h67l148 -138v-6h-124l-58 59l-57 -59h-124v6zM284 872h144l74 -136v-6h-108l-110 137v5z" />
    <glyph glyph-name="uni1EA8" unicode="&#x1ea8;" 
d="M546 132h-366l-60 -132h-143l314 700h144l314 -700h-144zM363 553l-130 -298h260zM333 897h67l148 -138v-6h-124l-58 59l-57 -59h-124v6zM375 1024q5 39 23 66q7 12 18 22.5t26.5 17t36 9t46.5 -2.5q44 -9 64 -33.5t21.5 -55.5t-12.5 -61.5t-38 -51.5q-36 -31 -32 -54
h-66q-3 21 3 45t32 42q23 16 32.5 33t9 32t-9 25.5t-21.5 12.5q-26 4 -43.5 -6.5t-19.5 -39.5h-70z" />
    <glyph glyph-name="uni1EA9" unicode="&#x1ea9;" horiz-adv-x="611" 
d="M431 493h117v-493h-115l-6 72q-11 -22 -29.5 -38t-40.5 -27t-45.5 -16.5t-44.5 -5.5q-55 0 -101.5 16.5t-80.5 49.5t-53 82t-19 114q0 64 20 112.5t54.5 81t81.5 48.5t101 16q50 0 93 -21.5t64 -58.5zM281 396q-30 0 -57 -10t-46.5 -29t-31 -47t-11.5 -63t11.5 -63
t31 -47.5t46.5 -29.5t57 -10q48 0 80 22t48 55.5t16 72t-16 72t-48 55.5t-80 22zM267 713h67l148 -138v-6h-124l-58 59l-57 -59h-124v6zM292 874q5 39 23 66q7 12 18 22.5t26.5 17t36 9t46.5 -2.5q44 -9 64 -33.5t21.5 -55.5t-12.5 -61.5t-38 -51.5q-36 -31 -32 -54h-66
q-3 21 3 45t32 42q23 16 32.5 33t9 32t-9 25.5t-21.5 12.5q-26 4 -43.5 -6.5t-19.5 -39.5h-70z" />
    <glyph glyph-name="uni1EAA" unicode="&#x1eaa;" 
d="M546 132h-366l-60 -132h-143l314 700h144l314 -700h-144zM363 553l-130 -298h260zM333 897h67l148 -138v-6h-124l-58 59l-57 -59h-124v6zM200 964q9 22 21 40.5t27.5 30.5t35.5 16.5t45 -1.5q18 -4 35 -13.5t33 -14.5t30 -0.5t26 27.5l80 -38q-22 -58 -56.5 -77.5
t-69.5 -10.5q-18 5 -35.5 16t-34 16.5t-31.5 0t-30 -32.5z" />
    <glyph glyph-name="uni1EAB" unicode="&#x1eab;" horiz-adv-x="611" 
d="M431 493h117v-493h-115l-6 72q-11 -22 -29.5 -38t-40.5 -27t-45.5 -16.5t-44.5 -5.5q-55 0 -101.5 16.5t-80.5 49.5t-53 82t-19 114q0 64 20 112.5t54.5 81t81.5 48.5t101 16q50 0 93 -21.5t64 -58.5zM281 396q-30 0 -57 -10t-46.5 -29t-31 -47t-11.5 -63t11.5 -63
t31 -47.5t46.5 -29.5t57 -10q48 0 80 22t48 55.5t16 72t-16 72t-48 55.5t-80 22zM267 713h67l148 -138v-6h-124l-58 59l-57 -59h-124v6zM134 774q9 22 21 40.5t27.5 30.5t35.5 16.5t45 -1.5q18 -4 35 -13.5t33 -14.5t30 -0.5t26 27.5l80 -38q-22 -58 -56.5 -77.5
t-69.5 -10.5q-18 5 -35.5 16t-34 16.5t-31.5 0t-30 -32.5z" />
    <glyph glyph-name="uni1EAC" unicode="&#x1eac;" 
d="M302 -122q0 36 22.5 53.5t49.5 17.5t49.5 -17.5t22.5 -53.5t-22.5 -53.5t-49.5 -17.5t-49.5 17.5t-22.5 53.5zM546 132h-366l-60 -132h-143l314 700h144l314 -700h-144zM363 553l-130 -298h260zM333 897h67l148 -138v-6h-124l-58 59l-57 -59h-124v6z" />
    <glyph glyph-name="uni1EAD" unicode="&#x1ead;" horiz-adv-x="611" 
d="M233 -122q0 36 22.5 53.5t49.5 17.5t49.5 -17.5t22.5 -53.5t-22.5 -53.5t-49.5 -17.5t-49.5 17.5t-22.5 53.5zM431 493h117v-493h-115l-6 72q-11 -22 -29.5 -38t-40.5 -27t-45.5 -16.5t-44.5 -5.5q-55 0 -101.5 16.5t-80.5 49.5t-53 82t-19 114q0 64 20 112.5t54.5 81
t81.5 48.5t101 16q50 0 93 -21.5t64 -58.5zM281 396q-30 0 -57 -10t-46.5 -29t-31 -47t-11.5 -63t11.5 -63t31 -47.5t46.5 -29.5t57 -10q48 0 80 22t48 55.5t16 72t-16 72t-48 55.5t-80 22zM267 713h67l148 -138v-6h-124l-58 59l-57 -59h-124v6z" />
    <glyph glyph-name="uni1EAE" unicode="&#x1eae;" 
d="M546 132h-366l-60 -132h-143l314 700h144l314 -700h-144zM363 553l-130 -298h260zM526 906q4 -50 -18 -82.5t-57 -49t-76.5 -16t-76.5 17t-57 49t-18 81.5h99q0 -28 16.5 -42t36.5 -14t36.5 14t16.5 42h98zM538 1077l-110 -137h-108v6l74 136h144v-5z" />
    <glyph glyph-name="uni1EAF" unicode="&#x1eaf;" horiz-adv-x="611" 
d="M431 493h117v-493h-115l-6 72q-11 -22 -29.5 -38t-40.5 -27t-45.5 -16.5t-44.5 -5.5q-55 0 -101.5 16.5t-80.5 49.5t-53 82t-19 114q0 64 20 112.5t54.5 81t81.5 48.5t101 16q50 0 93 -21.5t64 -58.5zM281 396q-30 0 -57 -10t-46.5 -29t-31 -47t-11.5 -63t11.5 -63
t31 -47.5t46.5 -29.5t57 -10q48 0 80 22t48 55.5t16 72t-16 72t-48 55.5t-80 22zM457 699q4 -50 -18 -82.5t-57 -49t-76.5 -16t-76.5 17t-57 49t-18 81.5h99q0 -28 16.5 -42t36.5 -14t36.5 14t16.5 42h98zM478 867l-110 -137h-108v6l74 136h144v-5z" />
    <glyph glyph-name="uni1EB0" unicode="&#x1eb0;" 
d="M546 132h-366l-60 -132h-143l314 700h144l314 -700h-144zM363 553l-130 -298h260zM514 906q4 -50 -18 -82.5t-57 -49t-76.5 -16t-76.5 17t-57 49t-18 81.5h99q0 -28 16.5 -42t36.5 -14t36.5 14t16.5 42h98zM216 1082h144l74 -136v-6h-108l-110 137v5z" />
    <glyph glyph-name="uni1EB1" unicode="&#x1eb1;" horiz-adv-x="611" 
d="M431 493h117v-493h-115l-6 72q-11 -22 -29.5 -38t-40.5 -27t-45.5 -16.5t-44.5 -5.5q-55 0 -101.5 16.5t-80.5 49.5t-53 82t-19 114q0 64 20 112.5t54.5 81t81.5 48.5t101 16q50 0 93 -21.5t64 -58.5zM281 396q-30 0 -57 -10t-46.5 -29t-31 -47t-11.5 -63t11.5 -63
t31 -47.5t46.5 -29.5t57 -10q48 0 80 22t48 55.5t16 72t-16 72t-48 55.5t-80 22zM430 699q4 -50 -18 -82.5t-57 -49t-76.5 -16t-76.5 17t-57 49t-18 81.5h99q0 -28 16.5 -42t36.5 -14t36.5 14t16.5 42h98zM140 872h144l74 -136v-6h-108l-110 137v5z" />
    <glyph glyph-name="uni1EB2" unicode="&#x1eb2;" 
d="M546 132h-366l-60 -132h-143l314 700h144l314 -700h-144zM363 553l-130 -298h260zM514 906q4 -50 -18 -82.5t-57 -49t-76.5 -16t-76.5 17t-57 49t-18 81.5h99q0 -28 16.5 -42t36.5 -14t36.5 14t16.5 42h98zM263 1093q5 39 23 66q7 12 18 22.5t26.5 17t36 9t46.5 -2.5
q44 -9 64 -33.5t21.5 -55.5t-12.5 -61.5t-38 -51.5q-36 -31 -32 -54h-66q-3 21 3 45t32 42q23 16 32.5 33t9 32t-9 25.5t-21.5 12.5q-26 4 -43.5 -6.5t-19.5 -39.5h-70z" />
    <glyph glyph-name="uni1EB3" unicode="&#x1eb3;" horiz-adv-x="611" 
d="M431 493h117v-493h-115l-6 72q-11 -22 -29.5 -38t-40.5 -27t-45.5 -16.5t-44.5 -5.5q-55 0 -101.5 16.5t-80.5 49.5t-53 82t-19 114q0 64 20 112.5t54.5 81t81.5 48.5t101 16q50 0 93 -21.5t64 -58.5zM281 396q-30 0 -57 -10t-46.5 -29t-31 -47t-11.5 -63t11.5 -63
t31 -47.5t46.5 -29.5t57 -10q48 0 80 22t48 55.5t16 72t-16 72t-48 55.5t-80 22zM430 699q4 -50 -18 -82.5t-57 -49t-76.5 -16t-76.5 17t-57 49t-18 81.5h99q0 -28 16.5 -42t36.5 -14t36.5 14t16.5 42h98zM172 885q5 39 23 66q7 12 18 22.5t26.5 17t36 9t46.5 -2.5
q44 -9 64 -33.5t21.5 -55.5t-12.5 -61.5t-38 -51.5q-36 -31 -32 -54h-66q-3 21 3 45t32 42q23 16 32.5 33t9 32t-9 25.5t-21.5 12.5q-26 4 -43.5 -6.5t-19.5 -39.5h-70z" />
    <glyph glyph-name="uni1EB4" unicode="&#x1eb4;" 
d="M546 132h-366l-60 -132h-143l314 700h144l314 -700h-144zM363 553l-130 -298h260zM515 906q4 -50 -18 -82.5t-57 -49t-76.5 -16t-76.5 17t-57 49t-18 81.5h99q0 -28 16.5 -42t36.5 -14t36.5 14t16.5 42h98zM197 1013q9 22 21 40.5t27.5 30.5t35.5 16.5t45 -1.5
q18 -4 35 -13.5t33 -14.5t30 -0.5t26 27.5l80 -38q-22 -58 -56.5 -77.5t-69.5 -10.5q-18 5 -35.5 16t-34 16.5t-31.5 0t-30 -32.5z" />
    <glyph glyph-name="uni1EB5" unicode="&#x1eb5;" horiz-adv-x="611" 
d="M431 493h117v-493h-115l-6 72q-11 -22 -29.5 -38t-40.5 -27t-45.5 -16.5t-44.5 -5.5q-55 0 -101.5 16.5t-80.5 49.5t-53 82t-19 114q0 64 20 112.5t54.5 81t81.5 48.5t101 16q50 0 93 -21.5t64 -58.5zM281 396q-30 0 -57 -10t-46.5 -29t-31 -47t-11.5 -63t11.5 -63
t31 -47.5t46.5 -29.5t57 -10q48 0 80 22t48 55.5t16 72t-16 72t-48 55.5t-80 22zM430 699q4 -50 -18 -82.5t-57 -49t-76.5 -16t-76.5 17t-57 49t-18 81.5h99q0 -28 16.5 -42t36.5 -14t36.5 14t16.5 42h98zM117 806q9 22 21 40.5t27.5 30.5t35.5 16.5t45 -1.5q18 -4 35 -13.5
t33 -14.5t30 -0.5t26 27.5l80 -38q-22 -58 -56.5 -77.5t-69.5 -10.5q-18 5 -35.5 16t-34 16.5t-31.5 0t-30 -32.5z" />
    <glyph glyph-name="uni1EB6" unicode="&#x1eb6;" 
d="M546 132h-366l-60 -132h-143l314 700h144l314 -700h-144zM363 553l-130 -298h260zM302 -122q0 36 22.5 53.5t49.5 17.5t49.5 -17.5t22.5 -53.5t-22.5 -53.5t-49.5 -17.5t-49.5 17.5t-22.5 53.5zM515 906q4 -50 -18 -82.5t-57 -49t-76.5 -16t-76.5 17t-57 49t-18 81.5h99
q0 -28 16.5 -42t36.5 -14t36.5 14t16.5 42h98z" />
    <glyph glyph-name="uni1EB7" unicode="&#x1eb7;" horiz-adv-x="611" 
d="M431 493h117v-493h-115l-6 72q-11 -22 -29.5 -38t-40.5 -27t-45.5 -16.5t-44.5 -5.5q-55 0 -101.5 16.5t-80.5 49.5t-53 82t-19 114q0 64 20 112.5t54.5 81t81.5 48.5t101 16q50 0 93 -21.5t64 -58.5zM281 396q-30 0 -57 -10t-46.5 -29t-31 -47t-11.5 -63t11.5 -63
t31 -47.5t46.5 -29.5t57 -10q48 0 80 22t48 55.5t16 72t-16 72t-48 55.5t-80 22zM233 -122q0 36 22.5 53.5t49.5 17.5t49.5 -17.5t22.5 -53.5t-22.5 -53.5t-49.5 -17.5t-49.5 17.5t-22.5 53.5zM457 699q4 -50 -18 -82.5t-57 -49t-76.5 -16t-76.5 17t-57 49t-18 81.5h99
q0 -28 16.5 -42t36.5 -14t36.5 14t16.5 42h98z" />
    <glyph glyph-name="uni1EB8" unicode="&#x1eb8;" horiz-adv-x="624" 
d="M571 0h-524v700h524v-128h-393v-161h379v-123h-379v-158h393v-130zM240 -122q0 36 22.5 53.5t49.5 17.5t49.5 -17.5t22.5 -53.5t-22.5 -53.5t-49.5 -17.5t-49.5 17.5t-22.5 53.5z" />
    <glyph glyph-name="uni1EB9" unicode="&#x1eb9;" horiz-adv-x="583" 
d="M144 203q6 -46 44 -75.5t103 -29.5q17 0 35.5 3t36.5 9t33.5 14.5t26.5 19.5l78 -77q-20 -20 -45 -35t-52.5 -25t-57 -15t-57.5 -5q-64 0 -114 19t-85 53.5t-53.5 83t-18.5 107.5q0 56 18.5 103.5t52.5 82t82.5 53.5t108.5 19q62 0 111 -19t82 -57.5t48 -95.5t8 -133
h-385zM412 304q-6 48 -40.5 72t-87.5 24q-50 0 -87 -24t-51 -72h266zM219 -122q0 36 22.5 53.5t49.5 17.5t49.5 -17.5t22.5 -53.5t-22.5 -53.5t-49.5 -17.5t-49.5 17.5t-22.5 53.5z" />
    <glyph glyph-name="uni1EBA" unicode="&#x1eba;" horiz-adv-x="624" 
d="M571 0h-524v700h524v-128h-393v-161h379v-123h-379v-158h393v-130zM205 881q5 39 23 66q7 12 18 22.5t26.5 17t36 9t46.5 -2.5q44 -9 64 -33.5t21.5 -55.5t-12.5 -61.5t-38 -51.5q-36 -31 -32 -54h-66q-3 21 3 45t32 42q23 16 32.5 33t9 32t-9 25.5t-21.5 12.5
q-26 4 -43.5 -6.5t-19.5 -39.5h-70z" />
    <glyph glyph-name="uni1EBB" unicode="&#x1ebb;" horiz-adv-x="583" 
d="M144 203q6 -46 44 -75.5t103 -29.5q17 0 35.5 3t36.5 9t33.5 14.5t26.5 19.5l78 -77q-20 -20 -45 -35t-52.5 -25t-57 -15t-57.5 -5q-64 0 -114 19t-85 53.5t-53.5 83t-18.5 107.5q0 56 18.5 103.5t52.5 82t82.5 53.5t108.5 19q62 0 111 -19t82 -57.5t48 -95.5t8 -133
h-385zM412 304q-6 48 -40.5 72t-87.5 24q-50 0 -87 -24t-51 -72h266zM158 702q5 39 23 66q7 12 18 22.5t26.5 17t36 9t46.5 -2.5q44 -9 64 -33.5t21.5 -55.5t-12.5 -61.5t-38 -51.5q-36 -31 -32 -54h-66q-3 21 3 45t32 42q23 16 32.5 33t9 32t-9 25.5t-21.5 12.5
q-26 4 -43.5 -6.5t-19.5 -39.5h-70z" />
    <glyph glyph-name="uni1EBC" unicode="&#x1ebc;" horiz-adv-x="624" 
d="M571 0h-524v700h524v-128h-393v-161h379v-123h-379v-158h393v-130zM145 802q9 22 21 40.5t27.5 30.5t35.5 16.5t45 -1.5q18 -4 35 -13.5t33 -14.5t30 -0.5t26 27.5l80 -38q-22 -58 -56.5 -77.5t-69.5 -10.5q-18 5 -35.5 16t-34 16.5t-31.5 0t-30 -32.5z" />
    <glyph glyph-name="uni1EBD" unicode="&#x1ebd;" horiz-adv-x="583" 
d="M144 203q6 -46 44 -75.5t103 -29.5q17 0 35.5 3t36.5 9t33.5 14.5t26.5 19.5l78 -77q-20 -20 -45 -35t-52.5 -25t-57 -15t-57.5 -5q-64 0 -114 19t-85 53.5t-53.5 83t-18.5 107.5q0 56 18.5 103.5t52.5 82t82.5 53.5t108.5 19q62 0 111 -19t82 -57.5t48 -95.5t8 -133
h-385zM412 304q-6 48 -40.5 72t-87.5 24q-50 0 -87 -24t-51 -72h266zM125 607q9 22 21 40.5t27.5 30.5t35.5 16.5t45 -1.5q18 -4 35 -13.5t33 -14.5t30 -0.5t26 27.5l80 -38q-22 -58 -56.5 -77.5t-69.5 -10.5q-18 5 -35.5 16t-34 16.5t-31.5 0t-30 -32.5z" />
    <glyph glyph-name="uni1EBE" unicode="&#x1ebe;" horiz-adv-x="619" 
d="M571 0h-524v700h524v-128h-393v-161h379v-123h-379v-158h393v-130zM300 915h67l148 -138v-6h-124l-58 59l-57 -59h-124v6zM666 1017l-110 -137h-108v6l74 136h144v-5z" />
    <glyph glyph-name="uni1EBF" unicode="&#x1ebf;" horiz-adv-x="583" 
d="M144 203q6 -46 44 -75.5t103 -29.5q17 0 35.5 3t36.5 9t33.5 14.5t26.5 19.5l78 -77q-20 -20 -45 -35t-52.5 -25t-57 -15t-57.5 -5q-64 0 -114 19t-85 53.5t-53.5 83t-18.5 107.5q0 56 18.5 103.5t52.5 82t82.5 53.5t108.5 19q62 0 111 -19t82 -57.5t48 -95.5t8 -133
h-385zM412 304q-6 48 -40.5 72t-87.5 24q-50 0 -87 -24t-51 -72h266zM253 713h67l148 -138v-6h-124l-58 59l-57 -59h-124v6zM571 867l-110 -137h-108v6l74 136h144v-5z" />
    <glyph glyph-name="uni1EC0" unicode="&#x1ec0;" horiz-adv-x="619" 
d="M571 0h-524v700h524v-128h-393v-161h379v-123h-379v-158h393v-130zM300 915h67l148 -138v-6h-124l-58 59l-57 -59h-124v6zM342 1022h144l74 -136v-6h-108l-110 137v5z" />
    <glyph glyph-name="uni1EC1" unicode="&#x1ec1;" horiz-adv-x="583" 
d="M144 203q6 -46 44 -75.5t103 -29.5q17 0 35.5 3t36.5 9t33.5 14.5t26.5 19.5l78 -77q-20 -20 -45 -35t-52.5 -25t-57 -15t-57.5 -5q-64 0 -114 19t-85 53.5t-53.5 83t-18.5 107.5q0 56 18.5 103.5t52.5 82t82.5 53.5t108.5 19q62 0 111 -19t82 -57.5t48 -95.5t8 -133
h-385zM412 304q-6 48 -40.5 72t-87.5 24q-50 0 -87 -24t-51 -72h266zM253 713h67l148 -138v-6h-124l-58 59l-57 -59h-124v6zM234 872h144l74 -136v-6h-108l-110 137v5z" />
    <glyph glyph-name="uni1EC2" unicode="&#x1ec2;" horiz-adv-x="619" 
d="M571 0h-524v700h524v-128h-393v-161h379v-123h-379v-158h393v-130zM300 915h67l148 -138v-6h-124l-58 59l-57 -59h-124v6zM360 1024q5 39 23 66q7 12 18 22.5t26.5 17t36 9t46.5 -2.5q44 -9 64 -33.5t21.5 -55.5t-12.5 -61.5t-38 -51.5q-36 -31 -32 -54h-66q-3 21 3 45
t32 42q23 16 32.5 33t9 32t-9 25.5t-21.5 12.5q-26 4 -43.5 -6.5t-19.5 -39.5h-70z" />
    <glyph glyph-name="uni1EC3" unicode="&#x1ec3;" horiz-adv-x="583" 
d="M144 203q6 -46 44 -75.5t103 -29.5q17 0 35.5 3t36.5 9t33.5 14.5t26.5 19.5l78 -77q-20 -20 -45 -35t-52.5 -25t-57 -15t-57.5 -5q-64 0 -114 19t-85 53.5t-53.5 83t-18.5 107.5q0 56 18.5 103.5t52.5 82t82.5 53.5t108.5 19q62 0 111 -19t82 -57.5t48 -95.5t8 -133
h-385zM412 304q-6 48 -40.5 72t-87.5 24q-50 0 -87 -24t-51 -72h266zM253 713h67l148 -138v-6h-124l-58 59l-57 -59h-124v6zM275 844q5 39 23 66q7 12 18 22.5t26.5 17t36 9t46.5 -2.5q44 -9 64 -33.5t21.5 -55.5t-12.5 -61.5t-38 -51.5q-36 -31 -32 -54h-66q-3 21 3 45
t32 42q23 16 32.5 33t9 32t-9 25.5t-21.5 12.5q-26 4 -43.5 -6.5t-19.5 -39.5h-70z" />
    <glyph glyph-name="uni1EC4" unicode="&#x1ec4;" horiz-adv-x="619" 
d="M571 0h-524v700h524v-128h-393v-161h379v-123h-379v-158h393v-130zM300 915h67l148 -138v-6h-124l-58 59l-57 -59h-124v6zM177 986q9 22 21 40.5t27.5 30.5t35.5 16.5t45 -1.5q18 -4 35 -13.5t33 -14.5t30 -0.5t26 27.5l80 -38q-22 -58 -56.5 -77.5t-69.5 -10.5
q-18 5 -35.5 16t-34 16.5t-31.5 0t-30 -32.5z" />
    <glyph glyph-name="uni1EC5" unicode="&#x1ec5;" horiz-adv-x="583" 
d="M144 203q6 -46 44 -75.5t103 -29.5q17 0 35.5 3t36.5 9t33.5 14.5t26.5 19.5l78 -77q-20 -20 -45 -35t-52.5 -25t-57 -15t-57.5 -5q-64 0 -114 19t-85 53.5t-53.5 83t-18.5 107.5q0 56 18.5 103.5t52.5 82t82.5 53.5t108.5 19q62 0 111 -19t82 -57.5t48 -95.5t8 -133
h-385zM412 304q-6 48 -40.5 72t-87.5 24q-50 0 -87 -24t-51 -72h266zM253 713h67l148 -138v-6h-124l-58 59l-57 -59h-124v6zM122 774q9 22 21 40.5t27.5 30.5t35.5 16.5t45 -1.5q18 -4 35 -13.5t33 -14.5t30 -0.5t26 27.5l80 -38q-22 -58 -56.5 -77.5t-69.5 -10.5
q-18 5 -35.5 16t-34 16.5t-31.5 0t-30 -32.5z" />
    <glyph glyph-name="uni1EC6" unicode="&#x1ec6;" horiz-adv-x="624" 
d="M240 -122q0 36 22.5 53.5t49.5 17.5t49.5 -17.5t22.5 -53.5t-22.5 -53.5t-49.5 -17.5t-49.5 17.5t-22.5 53.5zM571 0h-524v700h524v-128h-393v-161h379v-123h-379v-158h393v-130zM300 915h67l148 -138v-6h-124l-58 59l-57 -59h-124v6z" />
    <glyph glyph-name="uni1EC7" unicode="&#x1ec7;" horiz-adv-x="583" 
d="M219 -122q0 36 22.5 53.5t49.5 17.5t49.5 -17.5t22.5 -53.5t-22.5 -53.5t-49.5 -17.5t-49.5 17.5t-22.5 53.5zM144 203q6 -46 44 -75.5t103 -29.5q17 0 35.5 3t36.5 9t33.5 14.5t26.5 19.5l78 -77q-20 -20 -45 -35t-52.5 -25t-57 -15t-57.5 -5q-64 0 -114 19t-85 53.5
t-53.5 83t-18.5 107.5q0 56 18.5 103.5t52.5 82t82.5 53.5t108.5 19q62 0 111 -19t82 -57.5t48 -95.5t8 -133h-385zM412 304q-6 48 -40.5 72t-87.5 24q-50 0 -87 -24t-51 -72h266zM253 713h67l148 -138v-6h-124l-58 59l-57 -59h-124v6z" />
    <glyph glyph-name="uni1EC8" unicode="&#x1ec8;" horiz-adv-x="256" 
d="M50 0v700h131v-700h-131zM-4 881q5 39 23 66q7 12 18 22.5t26.5 17t36 9t46.5 -2.5q44 -9 64 -33.5t21.5 -55.5t-12.5 -61.5t-38 -51.5q-36 -31 -32 -54h-66q-3 21 3 45t32 42q23 16 32.5 33t9 32t-9 25.5t-21.5 12.5q-26 4 -43.5 -6.5t-19.5 -39.5h-70z" />
    <glyph glyph-name="uni1EC9" unicode="&#x1ec9;" horiz-adv-x="232" 
d="M162 495v-495h-122v495h122zM-17 674q5 39 23 66q7 12 18 22.5t26.5 17t36 9t46.5 -2.5q44 -9 64 -33.5t21.5 -55.5t-12.5 -61.5t-38 -51.5q-36 -31 -32 -54h-66q-3 21 3 45t32 42q23 16 32.5 33t9 32t-9 25.5t-21.5 12.5q-26 4 -43.5 -6.5t-19.5 -39.5h-70z" />
    <glyph glyph-name="uni1ECA" unicode="&#x1eca;" horiz-adv-x="256" 
d="M50 0v700h131v-700h-131zM45 -122q0 36 22.5 53.5t49.5 17.5t49.5 -17.5t22.5 -53.5t-22.5 -53.5t-49.5 -17.5t-49.5 17.5t-22.5 53.5z" />
    <glyph glyph-name="uni1ECB" unicode="&#x1ecb;" horiz-adv-x="214" 
d="M162 495v-495h-122v495h122zM29 632q0 36 22.5 53.5t49.5 17.5t49.5 -17.5t22.5 -53.5t-22.5 -53.5t-49.5 -17.5t-49.5 17.5t-22.5 53.5zM31 -122q0 36 22.5 53.5t49.5 17.5t49.5 -17.5t22.5 -53.5t-22.5 -53.5t-49.5 -17.5t-49.5 17.5t-22.5 53.5z" />
    <glyph glyph-name="uni1ECC" unicode="&#x1ecc;" horiz-adv-x="785" 
d="M378 714q90 0 158 -32t113 -83.5t67 -117.5t21 -135q-1 -68 -22.5 -133t-65.5 -116t-111.5 -82t-159.5 -31t-160 30.5t-112.5 81t-66 115.5t-21.5 134t22 135.5t67 118t112.5 83.5t158.5 32zM378 594q-62 0 -106 -22.5t-72 -58.5t-40.5 -81t-11.5 -89q1 -43 14 -85.5
t40.5 -76.5t70.5 -55t105 -21t105 21t70.5 55t40 77t13.5 86q1 44 -11.5 88.5t-40.5 80.5t-71.5 58.5t-105.5 22.5zM315 -122q0 36 22.5 53.5t49.5 17.5t49.5 -17.5t22.5 -53.5t-22.5 -53.5t-49.5 -17.5t-49.5 17.5t-22.5 53.5z" />
    <glyph glyph-name="uni1ECD" unicode="&#x1ecd;" horiz-adv-x="574" 
d="M272 503q59 0 106.5 -20.5t81.5 -55.5t52 -81.5t18 -99.5t-17.5 -100t-51 -82t-81 -55t-107.5 -20t-107.5 20t-80.5 55t-50.5 82t-17.5 100t18 99.5t51 81.5t80 55.5t106 20.5zM273 392q-33 0 -58 -12.5t-42 -33t-25.5 -46.5t-8.5 -54t8.5 -54t25 -46.5t42 -32.5
t58.5 -12t58.5 12t42 32.5t25 46.5t8.5 54t-9.5 54t-27 46.5t-42 33t-55.5 12.5zM204 -122q0 36 22.5 53.5t49.5 17.5t49.5 -17.5t22.5 -53.5t-22.5 -53.5t-49.5 -17.5t-49.5 17.5t-22.5 53.5z" />
    <glyph glyph-name="uni1ECE" unicode="&#x1ece;" horiz-adv-x="785" 
d="M378 714q90 0 158 -32t113 -83.5t67 -117.5t21 -135q-1 -68 -22.5 -133t-65.5 -116t-111.5 -82t-159.5 -31t-160 30.5t-112.5 81t-66 115.5t-21.5 134t22 135.5t67 118t112.5 83.5t158.5 32zM378 594q-62 0 -106 -22.5t-72 -58.5t-40.5 -81t-11.5 -89q1 -43 14 -85.5
t40.5 -76.5t70.5 -55t105 -21t105 21t70.5 55t40 77t13.5 86q1 44 -11.5 88.5t-40.5 80.5t-71.5 58.5t-105.5 22.5zM259 881q5 39 23 66q7 12 18 22.5t26.5 17t36 9t46.5 -2.5q44 -9 64 -33.5t21.5 -55.5t-12.5 -61.5t-38 -51.5q-36 -31 -32 -54h-66q-3 21 3 45t32 42
q23 16 32.5 33t9 32t-9 25.5t-21.5 12.5q-26 4 -43.5 -6.5t-19.5 -39.5h-70z" />
    <glyph glyph-name="uni1ECF" unicode="&#x1ecf;" horiz-adv-x="574" 
d="M272 503q59 0 106.5 -20.5t81.5 -55.5t52 -81.5t18 -99.5t-17.5 -100t-51 -82t-81 -55t-107.5 -20t-107.5 20t-80.5 55t-50.5 82t-17.5 100t18 99.5t51 81.5t80 55.5t106 20.5zM273 392q-33 0 -58 -12.5t-42 -33t-25.5 -46.5t-8.5 -54t8.5 -54t25 -46.5t42 -32.5
t58.5 -12t58.5 12t42 32.5t25 46.5t8.5 54t-9.5 54t-27 46.5t-42 33t-55.5 12.5zM153 674q5 39 23 66q7 12 18 22.5t26.5 17t36 9t46.5 -2.5q44 -9 64 -33.5t21.5 -55.5t-12.5 -61.5t-38 -51.5q-36 -31 -32 -54h-66q-3 21 3 45t32 42q23 16 32.5 33t9 32t-9 25.5t-21.5 12.5
q-26 4 -43.5 -6.5t-19.5 -39.5h-70z" />
    <glyph glyph-name="uni1ED0" unicode="&#x1ed0;" horiz-adv-x="785" 
d="M378 714q90 0 158 -32t113 -83.5t67 -117.5t21 -135q-1 -68 -22.5 -133t-65.5 -116t-111.5 -82t-159.5 -31t-160 30.5t-112.5 81t-66 115.5t-21.5 134t22 135.5t67 118t112.5 83.5t158.5 32zM378 594q-62 0 -106 -22.5t-72 -58.5t-40.5 -81t-11.5 -89q1 -43 14 -85.5
t40.5 -76.5t70.5 -55t105 -21t105 21t70.5 55t40 77t13.5 86q1 44 -11.5 88.5t-40.5 80.5t-71.5 58.5t-105.5 22.5zM356 920h67l148 -138v-6h-124l-58 59l-57 -59h-124v6zM734 1017l-110 -137h-108v6l74 136h144v-5z" />
    <glyph glyph-name="uni1ED1" unicode="&#x1ed1;" horiz-adv-x="574" 
d="M272 503q59 0 106.5 -20.5t81.5 -55.5t52 -81.5t18 -99.5t-17.5 -100t-51 -82t-81 -55t-107.5 -20t-107.5 20t-80.5 55t-50.5 82t-17.5 100t18 99.5t51 81.5t80 55.5t106 20.5zM273 392q-33 0 -58 -12.5t-42 -33t-25.5 -46.5t-8.5 -54t8.5 -54t25 -46.5t42 -32.5
t58.5 -12t58.5 12t42 32.5t25 46.5t8.5 54t-9.5 54t-27 46.5t-42 33t-55.5 12.5zM239 703h67l148 -138v-6h-124l-58 59l-57 -59h-124v6zM537 867l-110 -137h-108v6l74 136h144v-5z" />
    <glyph glyph-name="uni1ED2" unicode="&#x1ed2;" horiz-adv-x="785" 
d="M378 714q90 0 158 -32t113 -83.5t67 -117.5t21 -135q-1 -68 -22.5 -133t-65.5 -116t-111.5 -82t-159.5 -31t-160 30.5t-112.5 81t-66 115.5t-21.5 134t22 135.5t67 118t112.5 83.5t158.5 32zM378 594q-62 0 -106 -22.5t-72 -58.5t-40.5 -81t-11.5 -89q1 -43 14 -85.5
t40.5 -76.5t70.5 -55t105 -21t105 21t70.5 55t40 77t13.5 86q1 44 -11.5 88.5t-40.5 80.5t-71.5 58.5t-105.5 22.5zM356 920h67l148 -138v-6h-124l-58 59l-57 -59h-124v6zM401 1022h144l74 -136v-6h-108l-110 137v5z" />
    <glyph glyph-name="uni1ED3" unicode="&#x1ed3;" horiz-adv-x="574" 
d="M272 503q59 0 106.5 -20.5t81.5 -55.5t52 -81.5t18 -99.5t-17.5 -100t-51 -82t-81 -55t-107.5 -20t-107.5 20t-80.5 55t-50.5 82t-17.5 100t18 99.5t51 81.5t80 55.5t106 20.5zM273 392q-33 0 -58 -12.5t-42 -33t-25.5 -46.5t-8.5 -54t8.5 -54t25 -46.5t42 -32.5
t58.5 -12t58.5 12t42 32.5t25 46.5t8.5 54t-9.5 54t-27 46.5t-42 33t-55.5 12.5zM239 703h67l148 -138v-6h-124l-58 59l-57 -59h-124v6zM220 872h144l74 -136v-6h-108l-110 137v5z" />
    <glyph glyph-name="uni1ED4" unicode="&#x1ed4;" horiz-adv-x="785" 
d="M378 714q90 0 158 -32t113 -83.5t67 -117.5t21 -135q-1 -68 -22.5 -133t-65.5 -116t-111.5 -82t-159.5 -31t-160 30.5t-112.5 81t-66 115.5t-21.5 134t22 135.5t67 118t112.5 83.5t158.5 32zM378 594q-62 0 -106 -22.5t-72 -58.5t-40.5 -81t-11.5 -89q1 -43 14 -85.5
t40.5 -76.5t70.5 -55t105 -21t105 21t70.5 55t40 77t13.5 86q1 44 -11.5 88.5t-40.5 80.5t-71.5 58.5t-105.5 22.5zM356 920h67l148 -138v-6h-124l-58 59l-57 -59h-124v6zM420 1024q5 39 23 66q7 12 18 22.5t26.5 17t36 9t46.5 -2.5q44 -9 64 -33.5t21.5 -55.5t-12.5 -61.5
t-38 -51.5q-36 -31 -32 -54h-66q-3 21 3 45t32 42q23 16 32.5 33t9 32t-9 25.5t-21.5 12.5q-26 4 -43.5 -6.5t-19.5 -39.5h-70z" />
    <glyph glyph-name="uni1ED5" unicode="&#x1ed5;" horiz-adv-x="574" 
d="M272 503q59 0 106.5 -20.5t81.5 -55.5t52 -81.5t18 -99.5t-17.5 -100t-51 -82t-81 -55t-107.5 -20t-107.5 20t-80.5 55t-50.5 82t-17.5 100t18 99.5t51 81.5t80 55.5t106 20.5zM273 392q-33 0 -58 -12.5t-42 -33t-25.5 -46.5t-8.5 -54t8.5 -54t25 -46.5t42 -32.5
t58.5 -12t58.5 12t42 32.5t25 46.5t8.5 54t-9.5 54t-27 46.5t-42 33t-55.5 12.5zM239 703h67l148 -138v-6h-124l-58 59l-57 -59h-124v6zM251 874q5 39 23 66q7 12 18 22.5t26.5 17t36 9t46.5 -2.5q44 -9 64 -33.5t21.5 -55.5t-12.5 -61.5t-38 -51.5q-36 -31 -32 -54h-66
q-3 21 3 45t32 42q23 16 32.5 33t9 32t-9 25.5t-21.5 12.5q-26 4 -43.5 -6.5t-19.5 -39.5h-70z" />
    <glyph glyph-name="uni1ED6" unicode="&#x1ed6;" horiz-adv-x="785" 
d="M378 714q90 0 158 -32t113 -83.5t67 -117.5t21 -135q-1 -68 -22.5 -133t-65.5 -116t-111.5 -82t-159.5 -31t-160 30.5t-112.5 81t-66 115.5t-21.5 134t22 135.5t67 118t112.5 83.5t158.5 32zM378 594q-62 0 -106 -22.5t-72 -58.5t-40.5 -81t-11.5 -89q1 -43 14 -85.5
t40.5 -76.5t70.5 -55t105 -21t105 21t70.5 55t40 77t13.5 86q1 44 -11.5 88.5t-40.5 80.5t-71.5 58.5t-105.5 22.5zM356 920h67l148 -138v-6h-124l-58 59l-57 -59h-124v6zM223 1004q9 22 21 40.5t27.5 30.5t35.5 16.5t45 -1.5q18 -4 35 -13.5t33 -14.5t30 -0.5t26 27.5
l80 -38q-22 -58 -56.5 -77.5t-69.5 -10.5q-18 5 -35.5 16t-34 16.5t-31.5 0t-30 -32.5z" />
    <glyph glyph-name="uni1ED7" unicode="&#x1ed7;" horiz-adv-x="574" 
d="M272 503q59 0 106.5 -20.5t81.5 -55.5t52 -81.5t18 -99.5t-17.5 -100t-51 -82t-81 -55t-107.5 -20t-107.5 20t-80.5 55t-50.5 82t-17.5 100t18 99.5t51 81.5t80 55.5t106 20.5zM273 392q-33 0 -58 -12.5t-42 -33t-25.5 -46.5t-8.5 -54t8.5 -54t25 -46.5t42 -32.5
t58.5 -12t58.5 12t42 32.5t25 46.5t8.5 54t-9.5 54t-27 46.5t-42 33t-55.5 12.5zM239 703h67l148 -138v-6h-124l-58 59l-57 -59h-124v6zM107 774q9 22 21 40.5t27.5 30.5t35.5 16.5t45 -1.5q18 -4 35 -13.5t33 -14.5t30 -0.5t26 27.5l80 -38q-22 -58 -56.5 -77.5
t-69.5 -10.5q-18 5 -35.5 16t-34 16.5t-31.5 0t-30 -32.5z" />
    <glyph glyph-name="uni1ED8" unicode="&#x1ed8;" horiz-adv-x="785" 
d="M315 -122q0 36 22.5 53.5t49.5 17.5t49.5 -17.5t22.5 -53.5t-22.5 -53.5t-49.5 -17.5t-49.5 17.5t-22.5 53.5zM378 714q90 0 158 -32t113 -83.5t67 -117.5t21 -135q-1 -68 -22.5 -133t-65.5 -116t-111.5 -82t-159.5 -31t-160 30.5t-112.5 81t-66 115.5t-21.5 134
t22 135.5t67 118t112.5 83.5t158.5 32zM378 594q-62 0 -106 -22.5t-72 -58.5t-40.5 -81t-11.5 -89q1 -43 14 -85.5t40.5 -76.5t70.5 -55t105 -21t105 21t70.5 55t40 77t13.5 86q1 44 -11.5 88.5t-40.5 80.5t-71.5 58.5t-105.5 22.5zM356 920h67l148 -138v-6h-124l-58 59
l-57 -59h-124v6z" />
    <glyph glyph-name="uni1ED9" unicode="&#x1ed9;" horiz-adv-x="574" 
d="M204 -122q0 36 22.5 53.5t49.5 17.5t49.5 -17.5t22.5 -53.5t-22.5 -53.5t-49.5 -17.5t-49.5 17.5t-22.5 53.5zM272 503q59 0 106.5 -20.5t81.5 -55.5t52 -81.5t18 -99.5t-17.5 -100t-51 -82t-81 -55t-107.5 -20t-107.5 20t-80.5 55t-50.5 82t-17.5 100t18 99.5t51 81.5
t80 55.5t106 20.5zM273 392q-33 0 -58 -12.5t-42 -33t-25.5 -46.5t-8.5 -54t8.5 -54t25 -46.5t42 -32.5t58.5 -12t58.5 12t42 32.5t25 46.5t8.5 54t-9.5 54t-27 46.5t-42 33t-55.5 12.5zM239 703h67l148 -138v-6h-124l-58 59l-57 -59h-124v6z" />
    <glyph glyph-name="uni1EDA" unicode="&#x1eda;" horiz-adv-x="750" 
d="M378 714q101 0 173 -39t117 -101q7 8 10.5 15.5t5.5 13.5q2 7 2 14v82h103v-87q0 -27 -7 -46.5t-18.5 -33t-25.5 -22t-29 -12.5q14 -36 21 -74.5t7 -77.5q-1 -68 -22.5 -133t-65.5 -116t-111.5 -82t-159.5 -31t-160 30.5t-112.5 81t-66 115.5t-21.5 134t22 135.5t67 118
t112.5 83.5t158.5 32zM378 594q-62 0 -106 -22.5t-72 -58.5t-40.5 -81t-11.5 -89q1 -43 14 -85.5t40.5 -76.5t70.5 -55t105 -21t105 21t70.5 55t40 77t13.5 86q1 44 -11.5 88.5t-40.5 80.5t-71.5 58.5t-105.5 22.5zM539 912l-110 -137h-108v6l74 136h144v-5z" />
    <glyph glyph-name="uni1EDB" unicode="&#x1edb;" horiz-adv-x="604" 
d="M272 503q81 0 139.5 -36.5t89.5 -96.5q6 7 9.5 14.5t5.5 13.5q2 7 2 14v82h103v-87q0 -30 -8.5 -51t-22 -34.5t-30.5 -21t-33 -11.5q3 -21 3 -43q0 -53 -17.5 -100t-51 -82t-81 -55t-107.5 -20t-107.5 20t-80.5 55t-50.5 82t-17.5 100t18 99.5t51 81.5t80 55.5t106 20.5z
M273 392q-33 0 -58 -12.5t-42 -33t-25.5 -46.5t-8.5 -54t8.5 -54t25 -46.5t42 -32.5t58.5 -12t58.5 12t42 32.5t25 46.5t8.5 54t-9.5 54t-27 46.5t-42 33t-55.5 12.5zM411 694l-110 -137h-108v6l74 136h144v-5z" />
    <glyph glyph-name="uni1EDC" unicode="&#x1edc;" horiz-adv-x="750" 
d="M378 714q101 0 173 -39t117 -101q7 8 10.5 15.5t5.5 13.5q2 7 2 14v82h103v-87q0 -27 -7 -46.5t-18.5 -33t-25.5 -22t-29 -12.5q14 -36 21 -74.5t7 -77.5q-1 -68 -22.5 -133t-65.5 -116t-111.5 -82t-159.5 -31t-160 30.5t-112.5 81t-66 115.5t-21.5 134t22 135.5t67 118
t112.5 83.5t158.5 32zM378 594q-62 0 -106 -22.5t-72 -58.5t-40.5 -81t-11.5 -89q1 -43 14 -85.5t40.5 -76.5t70.5 -55t105 -21t105 21t70.5 55t40 77t13.5 86q1 44 -11.5 88.5t-40.5 80.5t-71.5 58.5t-105.5 22.5zM232 922h144l74 -136v-6h-108l-110 137v5z" />
    <glyph glyph-name="uni1EDD" unicode="&#x1edd;" horiz-adv-x="615" 
d="M272 503q81 0 139.5 -36.5t89.5 -96.5q6 7 9.5 14.5t5.5 13.5q2 7 2 14v82h103v-87q0 -30 -8.5 -51t-22 -34.5t-30.5 -21t-33 -11.5q3 -21 3 -43q0 -53 -17.5 -100t-51 -82t-81 -55t-107.5 -20t-107.5 20t-80.5 55t-50.5 82t-17.5 100t18 99.5t51 81.5t80 55.5t106 20.5z
M273 392q-33 0 -58 -12.5t-42 -33t-25.5 -46.5t-8.5 -54t8.5 -54t25 -46.5t42 -32.5t58.5 -12t58.5 12t42 32.5t25 46.5t8.5 54t-9.5 54t-27 46.5t-42 33t-55.5 12.5zM193 699h144l74 -136v-6h-108l-110 137v5z" />
    <glyph glyph-name="uni1EDE" unicode="&#x1ede;" horiz-adv-x="750" 
d="M378 714q101 0 173 -39t117 -101q7 8 10.5 15.5t5.5 13.5q2 7 2 14v82h103v-87q0 -27 -7 -46.5t-18.5 -33t-25.5 -22t-29 -12.5q14 -36 21 -74.5t7 -77.5q-1 -68 -22.5 -133t-65.5 -116t-111.5 -82t-159.5 -31t-160 30.5t-112.5 81t-66 115.5t-21.5 134t22 135.5t67 118
t112.5 83.5t158.5 32zM378 594q-62 0 -106 -22.5t-72 -58.5t-40.5 -81t-11.5 -89q1 -43 14 -85.5t40.5 -76.5t70.5 -55t105 -21t105 21t70.5 55t40 77t13.5 86q1 44 -11.5 88.5t-40.5 80.5t-71.5 58.5t-105.5 22.5zM241 881q5 39 23 66q7 12 18 22.5t26.5 17t36 9t46.5 -2.5
q44 -9 64 -33.5t21.5 -55.5t-12.5 -61.5t-38 -51.5q-36 -31 -32 -54h-66q-3 21 3 45t32 42q23 16 32.5 33t9 32t-9 25.5t-21.5 12.5q-26 4 -43.5 -6.5t-19.5 -39.5h-70z" />
    <glyph glyph-name="uni1EDF" unicode="&#x1edf;" horiz-adv-x="604" 
d="M272 503q81 0 139.5 -36.5t89.5 -96.5q6 7 9.5 14.5t5.5 13.5q2 7 2 14v82h103v-87q0 -30 -8.5 -51t-22 -34.5t-30.5 -21t-33 -11.5q3 -21 3 -43q0 -53 -17.5 -100t-51 -82t-81 -55t-107.5 -20t-107.5 20t-80.5 55t-50.5 82t-17.5 100t18 99.5t51 81.5t80 55.5t106 20.5z
M273 392q-33 0 -58 -12.5t-42 -33t-25.5 -46.5t-8.5 -54t8.5 -54t25 -46.5t42 -32.5t58.5 -12t58.5 12t42 32.5t25 46.5t8.5 54t-9.5 54t-27 46.5t-42 33t-55.5 12.5zM168 674q5 39 23 66q7 12 18 22.5t26.5 17t36 9t46.5 -2.5q44 -9 64 -33.5t21.5 -55.5t-12.5 -61.5
t-38 -51.5q-36 -31 -32 -54h-66q-3 21 3 45t32 42q23 16 32.5 33t9 32t-9 25.5t-21.5 12.5q-26 4 -43.5 -6.5t-19.5 -39.5h-70z" />
    <glyph glyph-name="uni1EE0" unicode="&#x1ee0;" horiz-adv-x="750" 
d="M378 714q101 0 173 -39t117 -101q7 8 10.5 15.5t5.5 13.5q2 7 2 14v82h103v-87q0 -27 -7 -46.5t-18.5 -33t-25.5 -22t-29 -12.5q14 -36 21 -74.5t7 -77.5q-1 -68 -22.5 -133t-65.5 -116t-111.5 -82t-159.5 -31t-160 30.5t-112.5 81t-66 115.5t-21.5 134t22 135.5t67 118
t112.5 83.5t158.5 32zM378 594q-62 0 -106 -22.5t-72 -58.5t-40.5 -81t-11.5 -89q1 -43 14 -85.5t40.5 -76.5t70.5 -55t105 -21t105 21t70.5 55t40 77t13.5 86q1 44 -11.5 88.5t-40.5 80.5t-71.5 58.5t-105.5 22.5zM219 816q9 22 21 40.5t27.5 30.5t35.5 16.5t45 -1.5
q18 -4 35 -13.5t33 -14.5t30 -0.5t26 27.5l80 -38q-22 -58 -56.5 -77.5t-69.5 -10.5q-18 5 -35.5 16t-34 16.5t-31.5 0t-30 -32.5z" />
    <glyph glyph-name="uni1EE1" unicode="&#x1ee1;" horiz-adv-x="604" 
d="M272 503q81 0 139.5 -36.5t89.5 -96.5q6 7 9.5 14.5t5.5 13.5q2 7 2 14v82h103v-87q0 -30 -8.5 -51t-22 -34.5t-30.5 -21t-33 -11.5q3 -21 3 -43q0 -53 -17.5 -100t-51 -82t-81 -55t-107.5 -20t-107.5 20t-80.5 55t-50.5 82t-17.5 100t18 99.5t51 81.5t80 55.5t106 20.5z
M273 392q-33 0 -58 -12.5t-42 -33t-25.5 -46.5t-8.5 -54t8.5 -54t25 -46.5t42 -32.5t58.5 -12t58.5 12t42 32.5t25 46.5t8.5 54t-9.5 54t-27 46.5t-42 33t-55.5 12.5zM109 624q9 22 21 40.5t27.5 30.5t35.5 16.5t45 -1.5q18 -4 35 -13.5t33 -14.5t30 -0.5t26 27.5l80 -38
q-22 -58 -56.5 -77.5t-69.5 -10.5q-18 5 -35.5 16t-34 16.5t-31.5 0t-30 -32.5z" />
    <glyph glyph-name="uni1EE2" unicode="&#x1ee2;" horiz-adv-x="750" 
d="M378 714q101 0 173 -39t117 -101q7 8 10.5 15.5t5.5 13.5q2 7 2 14v82h103v-87q0 -27 -7 -46.5t-18.5 -33t-25.5 -22t-29 -12.5q14 -36 21 -74.5t7 -77.5q-1 -68 -22.5 -133t-65.5 -116t-111.5 -82t-159.5 -31t-160 30.5t-112.5 81t-66 115.5t-21.5 134t22 135.5t67 118
t112.5 83.5t158.5 32zM378 594q-62 0 -106 -22.5t-72 -58.5t-40.5 -81t-11.5 -89q1 -43 14 -85.5t40.5 -76.5t70.5 -55t105 -21t105 21t70.5 55t40 77t13.5 86q1 44 -11.5 88.5t-40.5 80.5t-71.5 58.5t-105.5 22.5zM303 -122q0 36 22.5 53.5t49.5 17.5t49.5 -17.5
t22.5 -53.5t-22.5 -53.5t-49.5 -17.5t-49.5 17.5t-22.5 53.5z" />
    <glyph glyph-name="uni1EE3" unicode="&#x1ee3;" horiz-adv-x="604" 
d="M272 503q81 0 139.5 -36.5t89.5 -96.5q6 7 9.5 14.5t5.5 13.5q2 7 2 14v82h103v-87q0 -30 -8.5 -51t-22 -34.5t-30.5 -21t-33 -11.5q3 -21 3 -43q0 -53 -17.5 -100t-51 -82t-81 -55t-107.5 -20t-107.5 20t-80.5 55t-50.5 82t-17.5 100t18 99.5t51 81.5t80 55.5t106 20.5z
M273 392q-33 0 -58 -12.5t-42 -33t-25.5 -46.5t-8.5 -54t8.5 -54t25 -46.5t42 -32.5t58.5 -12t58.5 12t42 32.5t25 46.5t8.5 54t-9.5 54t-27 46.5t-42 33t-55.5 12.5zM230 -122q0 36 22.5 53.5t49.5 17.5t49.5 -17.5t22.5 -53.5t-22.5 -53.5t-49.5 -17.5t-49.5 17.5
t-22.5 53.5z" />
    <glyph glyph-name="uni1EE4" unicode="&#x1ee4;" horiz-adv-x="743" 
d="M663 699v-401q0 -78 -22.5 -136.5t-63 -97.5t-96 -59t-121.5 -20q-63 0 -119.5 19t-99 58t-67.5 98t-25 138v401h131v-401q0 -95 49.5 -144t131.5 -49t126.5 51t44.5 142v401h131zM299 -122q0 36 22.5 53.5t49.5 17.5t49.5 -17.5t22.5 -53.5t-22.5 -53.5t-49.5 -17.5
t-49.5 17.5t-22.5 53.5z" />
    <glyph glyph-name="uni1EE5" unicode="&#x1ee5;" horiz-adv-x="599" 
d="M165 493v-258q0 -28 7.5 -52t22.5 -42t37.5 -28t51.5 -10q28 0 51.5 11t40 30t25.5 44t9 53v252h121v-494h-109l-8 67q-38 -38 -76.5 -56t-90.5 -18q-44 0 -81.5 16.5t-64.5 47.5t-42.5 76t-15.5 102v259h122zM227 -122q0 36 22.5 53.5t49.5 17.5t49.5 -17.5t22.5 -53.5
t-22.5 -53.5t-49.5 -17.5t-49.5 17.5t-22.5 53.5z" />
    <glyph glyph-name="uni1EE6" unicode="&#x1ee6;" horiz-adv-x="743" 
d="M663 699v-401q0 -78 -22.5 -136.5t-63 -97.5t-96 -59t-121.5 -20q-63 0 -119.5 19t-99 58t-67.5 98t-25 138v401h131v-401q0 -95 49.5 -144t131.5 -49t126.5 51t44.5 142v401h131zM238 881q5 39 23 66q7 12 18 22.5t26.5 17t36 9t46.5 -2.5q44 -9 64 -33.5t21.5 -55.5
t-12.5 -61.5t-38 -51.5q-36 -31 -32 -54h-66q-3 21 3 45t32 42q23 16 32.5 33t9 32t-9 25.5t-21.5 12.5q-26 4 -43.5 -6.5t-19.5 -39.5h-70z" />
    <glyph glyph-name="uni1EE7" unicode="&#x1ee7;" horiz-adv-x="599" 
d="M165 493v-258q0 -28 7.5 -52t22.5 -42t37.5 -28t51.5 -10q28 0 51.5 11t40 30t25.5 44t9 53v252h121v-494h-109l-8 67q-38 -38 -76.5 -56t-90.5 -18q-44 0 -81.5 16.5t-64.5 47.5t-42.5 76t-15.5 102v259h122zM188 674q5 39 23 66q7 12 18 22.5t26.5 17t36 9t46.5 -2.5
q44 -9 64 -33.5t21.5 -55.5t-12.5 -61.5t-38 -51.5q-36 -31 -32 -54h-66q-3 21 3 45t32 42q23 16 32.5 33t9 32t-9 25.5t-21.5 12.5q-26 4 -43.5 -6.5t-19.5 -39.5h-70z" />
    <glyph glyph-name="uni1EE8" unicode="&#x1ee8;" horiz-adv-x="743" 
d="M663 699v-130q8 8 13 15.5t7 15.5q3 8 3 17v82h103v-87q0 -38 -13.5 -61t-33 -36.5t-41 -19t-38.5 -6.5v-191q0 -78 -22.5 -136.5t-63 -97.5t-96 -59t-121.5 -20q-63 0 -119.5 19t-99 58t-67.5 98t-25 138v401h131v-401q0 -95 49.5 -144t131.5 -49t126.5 51t44.5 142v401
h131zM515 916l-110 -137h-108v6l74 136h144v-5z" />
    <glyph glyph-name="uni1EE9" unicode="&#x1ee9;" horiz-adv-x="653" 
d="M165 493v-258q0 -28 7.5 -52t22.5 -42t37.5 -28t51.5 -10q28 0 51.5 11t40 30t25.5 44t9 53v252h121v-140q14 8 22 18t12 19q4 11 5 22v81h103v-86q0 -43 -16.5 -67.5t-39.5 -37t-47 -15.5t-39 -3v-285h-109l-8 67q-38 -38 -76.5 -56t-90.5 -18q-44 0 -81.5 16.5
t-64.5 47.5t-42.5 76t-15.5 102v259h122zM444 695l-110 -137h-108v6l74 136h144v-5z" />
    <glyph glyph-name="uni1EEA" unicode="&#x1eea;" horiz-adv-x="743" 
d="M663 699v-130q8 8 13 15.5t7 15.5q3 8 3 17v82h103v-87q0 -38 -13.5 -61t-33 -36.5t-41 -19t-38.5 -6.5v-191q0 -78 -22.5 -136.5t-63 -97.5t-96 -59t-121.5 -20q-63 0 -119.5 19t-99 58t-67.5 98t-25 138v401h131v-401q0 -95 49.5 -144t131.5 -49t126.5 51t44.5 142v401
h131zM217 922h144l74 -136v-6h-108l-110 137v5z" />
    <glyph glyph-name="uni1EEB" unicode="&#x1eeb;" horiz-adv-x="653" 
d="M165 493v-258q0 -28 7.5 -52t22.5 -42t37.5 -28t51.5 -10q28 0 51.5 11t40 30t25.5 44t9 53v252h121v-140q14 8 22 18t12 19q4 11 5 22v81h103v-86q0 -43 -16.5 -67.5t-39.5 -37t-47 -15.5t-39 -3v-285h-109l-8 67q-38 -38 -76.5 -56t-90.5 -18q-44 0 -81.5 16.5
t-64.5 47.5t-42.5 76t-15.5 102v259h122zM140 700h144l74 -136v-6h-108l-110 137v5z" />
    <glyph glyph-name="uni1EEC" unicode="&#x1eec;" horiz-adv-x="743" 
d="M663 699v-130q8 8 13 15.5t7 15.5q3 8 3 17v82h103v-87q0 -38 -13.5 -61t-33 -36.5t-41 -19t-38.5 -6.5v-191q0 -78 -22.5 -136.5t-63 -97.5t-96 -59t-121.5 -20q-63 0 -119.5 19t-99 58t-67.5 98t-25 138v401h131v-401q0 -95 49.5 -144t131.5 -49t126.5 51t44.5 142v401
h131zM238 881q5 39 23 66q7 12 18 22.5t26.5 17t36 9t46.5 -2.5q44 -9 64 -33.5t21.5 -55.5t-12.5 -61.5t-38 -51.5q-36 -31 -32 -54h-66q-3 21 3 45t32 42q23 16 32.5 33t9 32t-9 25.5t-21.5 12.5q-26 4 -43.5 -6.5t-19.5 -39.5h-70z" />
    <glyph glyph-name="uni1EED" unicode="&#x1eed;" horiz-adv-x="653" 
d="M165 493v-258q0 -28 7.5 -52t22.5 -42t37.5 -28t51.5 -10q28 0 51.5 11t40 30t25.5 44t9 53v252h121v-140q14 8 22 18t12 19q4 11 5 22v81h103v-86q0 -43 -16.5 -67.5t-39.5 -37t-47 -15.5t-39 -3v-285h-109l-8 67q-38 -38 -76.5 -56t-90.5 -18q-44 0 -81.5 16.5
t-64.5 47.5t-42.5 76t-15.5 102v259h122zM188 674q5 39 23 66q7 12 18 22.5t26.5 17t36 9t46.5 -2.5q44 -9 64 -33.5t21.5 -55.5t-12.5 -61.5t-38 -51.5q-36 -31 -32 -54h-66q-3 21 3 45t32 42q23 16 32.5 33t9 32t-9 25.5t-21.5 12.5q-26 4 -43.5 -6.5t-19.5 -39.5h-70z
" />
    <glyph glyph-name="uni1EEE" unicode="&#x1eee;" horiz-adv-x="743" 
d="M663 699v-130q8 8 13 15.5t7 15.5q3 8 3 17v82h103v-87q0 -38 -13.5 -61t-33 -36.5t-41 -19t-38.5 -6.5v-191q0 -78 -22.5 -136.5t-63 -97.5t-96 -59t-121.5 -20q-63 0 -119.5 19t-99 58t-67.5 98t-25 138v401h131v-401q0 -95 49.5 -144t131.5 -49t126.5 51t44.5 142v401
h131zM205 799q9 22 21 40.5t27.5 30.5t35.5 16.5t45 -1.5q18 -4 35 -13.5t33 -14.5t30 -0.5t26 27.5l80 -38q-22 -58 -56.5 -77.5t-69.5 -10.5q-18 5 -35.5 16t-34 16.5t-31.5 0t-30 -32.5z" />
    <glyph glyph-name="uni1EEF" unicode="&#x1eef;" horiz-adv-x="653" 
d="M165 493v-258q0 -28 7.5 -52t22.5 -42t37.5 -28t51.5 -10q28 0 51.5 11t40 30t25.5 44t9 53v252h121v-140q14 8 22 18t12 19q4 11 5 22v81h103v-86q0 -43 -16.5 -67.5t-39.5 -37t-47 -15.5t-39 -3v-285h-109l-8 67q-38 -38 -76.5 -56t-90.5 -18q-44 0 -81.5 16.5
t-64.5 47.5t-42.5 76t-15.5 102v259h122zM133 627q9 22 21 40.5t27.5 30.5t35.5 16.5t45 -1.5q18 -4 35 -13.5t33 -14.5t30 -0.5t26 27.5l80 -38q-22 -58 -56.5 -77.5t-69.5 -10.5q-18 5 -35.5 16t-34 16.5t-31.5 0t-30 -32.5z" />
    <glyph glyph-name="uni1EF0" unicode="&#x1ef0;" horiz-adv-x="743" 
d="M663 699v-130q8 8 13 15.5t7 15.5q3 8 3 17v82h103v-87q0 -38 -13.5 -61t-33 -36.5t-41 -19t-38.5 -6.5v-191q0 -78 -22.5 -136.5t-63 -97.5t-96 -59t-121.5 -20q-63 0 -119.5 19t-99 58t-67.5 98t-25 138v401h131v-401q0 -95 49.5 -144t131.5 -49t126.5 51t44.5 142v401
h131zM299 -122q0 36 22.5 53.5t49.5 17.5t49.5 -17.5t22.5 -53.5t-22.5 -53.5t-49.5 -17.5t-49.5 17.5t-22.5 53.5z" />
    <glyph glyph-name="uni1EF1" unicode="&#x1ef1;" horiz-adv-x="653" 
d="M165 493v-258q0 -28 7.5 -52t22.5 -42t37.5 -28t51.5 -10q28 0 51.5 11t40 30t25.5 44t9 53v252h121v-140q14 8 22 18t12 19q4 11 5 22v81h103v-86q0 -43 -16.5 -67.5t-39.5 -37t-47 -15.5t-39 -3v-285h-109l-8 67q-38 -38 -76.5 -56t-90.5 -18q-44 0 -81.5 16.5
t-64.5 47.5t-42.5 76t-15.5 102v259h122zM227 -122q0 36 22.5 53.5t49.5 17.5t49.5 -17.5t22.5 -53.5t-22.5 -53.5t-49.5 -17.5t-49.5 17.5t-22.5 53.5z" />
    <glyph glyph-name="Ygrave" unicode="&#x1ef2;" horiz-adv-x="698" 
d="M344 411l186 289h159v-6l-279 -405v-289h-132v289l-269 405v6h157zM206 906h144l74 -136v-6h-108l-110 137v5z" />
    <glyph glyph-name="ygrave" unicode="&#x1ef3;" horiz-adv-x="561" 
d="M537 493l-301 -699h-134l92 214l-197 485h142l75 -213l47 -139l51 136l90 216h135zM131 699h144l74 -136v-6h-108l-110 137v5z" />
    <glyph glyph-name="uni1EF4" unicode="&#x1ef4;" horiz-adv-x="698" 
d="M344 411l186 289h159v-6l-279 -405v-289h-132v289l-269 405v6h157zM277 -122q0 36 22.5 53.5t49.5 17.5t49.5 -17.5t22.5 -53.5t-22.5 -53.5t-49.5 -17.5t-49.5 17.5t-22.5 53.5z" />
    <glyph glyph-name="uni1EF5" unicode="&#x1ef5;" horiz-adv-x="524" 
d="M537 493l-301 -699h-134l92 214l-197 485h142l75 -213l47 -139l51 136l90 216h135zM298 -133q0 36 22.5 53.5t49.5 17.5t49.5 -17.5t22.5 -53.5t-22.5 -53.5t-49.5 -17.5t-49.5 17.5t-22.5 53.5z" />
    <glyph glyph-name="uni1EF6" unicode="&#x1ef6;" horiz-adv-x="698" 
d="M344 411l186 289h159v-6l-279 -405v-289h-132v289l-269 405v6h157zM233 870q5 39 23 66q7 12 18 22.5t26.5 17t36 9t46.5 -2.5q44 -9 64 -33.5t21.5 -55.5t-12.5 -61.5t-38 -51.5q-36 -31 -32 -54h-66q-3 21 3 45t32 42q23 16 32.5 33t9 32t-9 25.5t-21.5 12.5
q-26 4 -43.5 -6.5t-19.5 -39.5h-70z" />
    <glyph glyph-name="uni1EF7" unicode="&#x1ef7;" horiz-adv-x="561" 
d="M537 493l-301 -699h-134l92 214l-197 485h142l75 -213l47 -139l51 136l90 216h135zM147 674q5 39 23 66q7 12 18 22.5t26.5 17t36 9t46.5 -2.5q44 -9 64 -33.5t21.5 -55.5t-12.5 -61.5t-38 -51.5q-36 -31 -32 -54h-66q-3 21 3 45t32 42q23 16 32.5 33t9 32t-9 25.5
t-21.5 12.5q-26 4 -43.5 -6.5t-19.5 -39.5h-70z" />
    <glyph glyph-name="uni1EF8" unicode="&#x1ef8;" horiz-adv-x="698" 
d="M344 411l186 289h159v-6l-279 -405v-289h-132v289l-269 405v6h157zM182 793q9 22 21 40.5t27.5 30.5t35.5 16.5t45 -1.5q18 -4 35 -13.5t33 -14.5t30 -0.5t26 27.5l80 -38q-22 -58 -56.5 -77.5t-69.5 -10.5q-18 5 -35.5 16t-34 16.5t-31.5 0t-30 -32.5z" />
    <glyph glyph-name="uni1EF9" unicode="&#x1ef9;" horiz-adv-x="561" 
d="M537 493l-301 -699h-134l92 214l-197 485h142l75 -213l47 -139l51 136l90 216h135zM114 568q9 22 21 40.5t27.5 30.5t35.5 16.5t45 -1.5q18 -4 35 -13.5t33 -14.5t30 -0.5t26 27.5l80 -38q-22 -58 -56.5 -77.5t-69.5 -10.5q-18 5 -35.5 16t-34 16.5t-31.5 0t-30 -32.5z
" />
    <glyph glyph-name="endash" unicode="&#x2013;" horiz-adv-x="545" 
d="M21 349h473v-108h-473v108z" />
    <glyph glyph-name="emdash" unicode="&#x2014;" horiz-adv-x="623" 
d="M14 349h569v-108h-569v108z" />
    <glyph glyph-name="quoteleft" unicode="&#x2018;" horiz-adv-x="213" 
d="M140 476h-126l78 225h96z" />
    <glyph glyph-name="quoteright" unicode="&#x2019;" horiz-adv-x="202" 
d="M46 700h126l-78 -225h-96z" />
    <glyph glyph-name="quotesinglbase" unicode="&#x201a;" horiz-adv-x="250" 
d="M167 52q0 -5 -0.5 -9t-4.5 -17.5t-13.5 -42t-26.5 -81.5h-69l19 99q-21 4 -34 17.5t-13 36.5q0 34 22 51t49 16t49 -18.5t22 -51.5z" />
    <glyph glyph-name="quotedblleft" unicode="&#x201c;" horiz-adv-x="378" 
d="M301 474h-126l78 225h96zM132 474h-126l78 225h96z" />
    <glyph glyph-name="quotedblright" unicode="&#x201d;" horiz-adv-x="362" 
d="M46 700h126l-78 -225h-96zM215 700h126l-78 -225h-96z" />
    <glyph glyph-name="quotedblbase" unicode="&#x201e;" horiz-adv-x="403" 
d="M167 52q0 -5 -0.5 -9t-4.5 -17.5t-13.5 -42t-26.5 -81.5h-69l19 99q-21 4 -34 17.5t-13 36.5q0 34 22 51t49 16t49 -18.5t22 -51.5zM356 52q0 -5 -0.5 -9t-4.5 -17.5t-13.5 -42t-26.5 -81.5h-69l19 99q-21 4 -34 17.5t-13 36.5q0 34 22 51t49 16t49 -18.5t22 -51.5z" />
    <glyph glyph-name="dagger" unicode="&#x2020;" horiz-adv-x="593" 
d="M351 512h195v-110h-195v-518h-134v518h-195v110h195v187h134v-187z" />
    <glyph glyph-name="daggerdbl" unicode="&#x2021;" horiz-adv-x="652" 
d="M373 514h196v-110h-196v-221h196v-109h-196v-199h-132v199h-196v109h196v221h-196v110h196v185h132v-185z" />
    <glyph glyph-name="bullet" unicode="&#x2022;" horiz-adv-x="356" 
d="M165 198q-28 0 -51.5 9t-41 25.5t-27.5 39.5t-10 52q0 28 10 51.5t27.5 40.5t41 26t51.5 9q27 0 50.5 -9t40.5 -26t27 -40.5t10 -51.5q0 -29 -10 -52t-27 -39.5t-40.5 -25.5t-50.5 -9z" />
    <glyph glyph-name="ellipsis" unicode="&#x2026;" horiz-adv-x="726" 
d="M37 63q0 36 22.5 53.5t49.5 17.5t49.5 -17.5t22.5 -53.5t-22.5 -53.5t-49.5 -17.5t-49.5 17.5t-22.5 53.5zM265 63q0 36 22.5 53.5t49.5 17.5t49.5 -17.5t22.5 -53.5t-22.5 -53.5t-49.5 -17.5t-49.5 17.5t-22.5 53.5zM493 63q0 36 22.5 53.5t49.5 17.5t49.5 -17.5
t22.5 -53.5t-22.5 -53.5t-49.5 -17.5t-49.5 17.5t-22.5 53.5z" />
    <glyph glyph-name="perthousand" unicode="&#x2030;" horiz-adv-x="1159" 
d="M191 713q54 0 90.5 -23.5t54.5 -58t18 -75.5t-18 -75.5t-54.5 -58t-90.5 -23.5t-90.5 23.5t-54.5 58t-18 75.5t18 75.5t54.5 58t90.5 23.5zM679 701l-460 -702h-142l461 702h141zM571 307q54 0 90.5 -23.5t54.5 -58t18 -75.5t-18 -75.5t-54.5 -58t-90.5 -23.5t-90.5 23.5
t-54.5 58t-18 75.5t18 75.5t54.5 58t90.5 23.5zM571 215q-32 0 -48.5 -20.5t-16.5 -45t16.5 -45t48.5 -20.5t48 20.5t16 45t-16 45t-48 20.5zM191 622q-32 0 -48.5 -20.5t-16.5 -45t16.5 -45t48.5 -20.5t48 20.5t16 45t-16 45t-48 20.5zM943 307q54 0 90.5 -23.5t54.5 -58
t18 -75.5t-18 -75.5t-54.5 -58t-90.5 -23.5t-90.5 23.5t-54.5 58t-18 75.5t18 75.5t54.5 58t90.5 23.5zM943 215q-32 0 -48.5 -20.5t-16.5 -45t16.5 -45t48.5 -20.5t48 20.5t16 45t-16 45t-48 20.5z" />
    <glyph glyph-name="guilsinglleft" unicode="&#x2039;" horiz-adv-x="324" 
d="M151 539h130l-138 -221l138 -222h-130l-139 222z" />
    <glyph glyph-name="guilsinglright" unicode="&#x203a;" horiz-adv-x="350" 
d="M291 318l-139 -222h-130l138 222l-138 221h130z" />
    <glyph glyph-name="fraction" unicode="&#x2044;" horiz-adv-x="164" 
d="M186 729h113l-353 -795h-113z" />
    <glyph glyph-name="Euro" unicode="&#x20ac;" horiz-adv-x="565" 
d="M548 1q-28 -8 -59.5 -12.5t-61.5 -4.5q-77 0 -135.5 18t-101 50.5t-70 76.5t-40.5 96h-68v97h54v23v15t1 15h-55v98h71q15 51 43 95.5t70.5 76.5t99.5 50.5t131 18.5q57 0 108 -16l-42 -118q-17 5 -33 6.5t-33 1.5q-80 0 -131.5 -33t-78.5 -82h228l-22 -98h-236
q-1 -8 -1 -15v-15v-12t1 -11h220l-20 -97h-173q25 -50 77 -83.5t136 -33.5q42 0 84 15z" />
    <glyph glyph-name="trademark" unicode="&#x2122;" horiz-adv-x="738" 
d="M203 409h-95v212h-95v80h286v-80h-96v-212zM510 605l79 97h100v-293h-97v87l7 85l-80 -107h-20l-78 107l7 -85v-87h-97v293h100z" />
    <glyph glyph-name="minus" unicode="&#x2212;" horiz-adv-x="461" 
d="M22 349h391v-113h-391v113z" />
    <glyph glyph-name="glyph89" horiz-adv-x="0" 
 />
    </font>
</defs>
</svg>
